<svg width="898" height="858" viewBox="0 0 898 858" fill="none" xmlns="http://www.w3.org/2000/svg">
<g clip-path="url(#clip0_29_3821)">
<path fill-rule="evenodd" clip-rule="evenodd" d="M291.45 162.051C332.241 143.937 370.537 129.999 406.423 119.572C415.13 131.059 424.265 141.133 433.837 149.934C445.974 150.236 458.396 150.956 471.019 152.1C454.959 142.143 439.86 129.658 426.075 114.145C577.649 74.5061 684.297 98.4154 752.848 131.846C692.453 87.3109 580.364 51.4875 413.977 83.5233C418.762 76.5112 438.548 47.969 453.399 33.2909L460.724 67.4412C460.724 67.4412 460.306 79.0565 474.185 67.3125L512.368 18.893C512.368 18.893 703.508 -15.3051 815.979 162.834C798.585 164.725 778.704 168.072 757.17 171.699C753.096 172.385 748.962 173.081 744.775 173.779C750.775 177.999 756.809 182.515 762.845 187.345C767.473 186.652 772.137 185.951 776.837 185.245L776.841 185.245C797.436 182.151 818.729 178.953 840.735 175.875C840.735 175.875 748.055 -23.7659 507.338 3.0724L472.689 47.3662L464.304 6.8476C464.304 6.8476 426.686 24.9512 393.225 87.8128C363.073 94.4669 331.227 103.31 297.672 114.668L291.45 162.051ZM512.045 193.739C511.98 193.43 511.917 193.121 511.857 192.813C510.593 192.719 509.329 192.628 508.066 192.541C509.386 192.953 510.713 193.352 512.045 193.739Z" fill="#174174"/>
<path fill-rule="evenodd" clip-rule="evenodd" d="M752.849 131.846C692.454 87.3108 580.364 51.4873 413.978 83.5232C418.763 76.5111 438.549 47.9688 453.399 33.2907L460.725 67.441C460.725 67.441 460.307 79.0563 474.185 67.3123L512.369 18.8929C512.369 18.8929 703.508 -15.3053 815.979 162.834C798.585 164.724 778.704 168.072 757.17 171.698C753.096 172.385 748.962 173.081 744.775 173.779C673.301 123.5 606.743 115.061 601.99 115.437L577.497 131.631L580.705 117.612C577.988 105.678 566.878 109.409 555.92 115.112C530.46 133.365 517.702 146.452 511.914 157.199C498.124 155.016 484.459 153.318 471.02 152.101C454.96 142.143 439.861 129.658 426.076 114.145C577.649 74.506 684.297 98.4152 752.849 131.846Z" fill="white"/>
<path d="M512.381 18.8908C514.12 18.584 692.581 -12.4686 805.478 147.122C782.277 120.712 653.497 -11.0674 461.772 75.95C446.371 77.8483 430.44 80.3537 413.978 83.5233C418.165 77.3877 433.837 54.7681 447.638 39.3759C449.609 37.1771 451.543 35.1257 453.399 33.291L460.725 67.4412C460.725 67.4412 460.698 68.1672 460.876 69.0726C461.365 71.5625 463.395 75.4098 471.747 69.2493C472.506 68.6892 473.318 68.0465 474.185 67.3125L512.361 18.9025L512.369 18.8936C512.369 18.8936 512.373 18.8927 512.381 18.8908Z" fill="#A6B1B8"/>
<path fill-rule="evenodd" clip-rule="evenodd" d="M296.21 170.352C296.21 170.352 334.833 189.653 344.004 200.5C398.407 192.218 455.01 188.546 511.865 192.793C513.376 200.543 516.534 208.478 521.104 216.514C526.105 213.847 531.399 211.872 536.702 210.386C533.33 204.944 530.767 199.662 529.11 194.593L529.122 194.329C637.102 205.498 745.274 246.413 840.295 339.726C774.721 241.453 649.774 182.926 530.577 160.417L530.609 159.659C530.609 159.659 542.867 141.447 560.238 132.121L553.605 149.701C553.605 149.701 549.398 168.183 571.572 154.769L605.439 132.73C605.439 132.73 796.213 149.012 879.467 387.488C857.972 387.902 831.838 383.303 803.618 375.087C807.473 381.458 811.212 388.016 814.813 394.759C847.217 403.535 874.146 406.844 890.052 402.65C890.052 402.65 899.603 403.817 896.662 391.755C819.405 142.631 610.554 114.741 601.997 115.417L577.504 131.611L580.713 117.592C577.995 105.658 566.886 109.389 555.928 115.092C530.467 133.345 517.709 146.432 511.921 157.179C427.496 143.812 347.726 148.653 296.21 170.352ZM565.978 244.659C565.818 244.508 565.659 244.357 565.5 244.207C565.308 244.527 565.113 244.853 564.915 245.184C565.254 245.016 565.609 244.841 565.978 244.659Z" fill="#174174"/>
<path fill-rule="evenodd" clip-rule="evenodd" d="M840.295 339.726C774.721 241.453 649.774 182.926 530.577 160.417L530.609 159.658C530.609 159.658 542.867 141.447 560.238 132.121L553.605 149.701C553.605 149.701 549.398 168.183 571.572 154.769L605.439 132.729C605.439 132.729 796.213 149.012 879.467 387.488C857.972 387.902 831.838 383.303 803.618 375.087C739.976 269.897 644.791 215.629 615.26 220.291C605.714 225.091 590.465 232.597 578.407 238.534L578.403 238.535L578.348 238.562L578.3 238.586C573.49 240.954 569.194 243.069 565.978 244.659C565.818 244.508 565.659 244.357 565.5 244.207C566.34 242.803 567.121 241.499 567.849 240.284L567.856 240.272C577.013 224.986 577.715 223.815 581.082 215.999C581.843 206.595 576.941 203.805 569.086 205.508L568.546 205.55C559.835 206.238 548.246 207.152 536.702 210.386C533.33 204.944 530.767 199.662 529.11 194.593L529.122 194.329C637.102 205.498 745.274 246.413 840.295 339.726Z" fill="white"/>
<path d="M611.161 181.121C584.503 172.368 557.395 165.481 530.577 160.417L530.61 159.658C530.61 159.658 542.867 141.447 560.238 132.121L553.605 149.701L553.605 149.703C553.56 149.902 550.178 165.182 566.565 157.485C568.055 156.84 569.717 155.951 571.57 154.77L571.573 154.769L605.404 132.752C605.418 132.753 605.432 132.753 605.446 132.753C605.54 132.754 605.638 132.756 605.74 132.758C613.244 133.505 759.541 150.124 849.047 317.626C824.951 283.11 750.062 192.901 620.376 183.842C620.376 183.842 616.88 182.79 611.161 181.121Z" fill="#A6B1B8"/>
<path fill-rule="evenodd" clip-rule="evenodd" d="M359.641 219.444C359.641 219.444 381.043 244.012 385.319 253.891C404.886 252.881 443.851 256.94 491.355 269.125C491.349 269.286 491.344 269.446 491.339 269.608C491.339 269.608 504.554 324.172 562.905 347.225C562.905 347.225 571.75 339.484 572.273 333.104L573.422 334.9C575.325 337.875 577.365 341.064 579.551 344.445C584.314 342.957 589.334 341.777 594.571 341.018C584.84 325.787 577.756 312.684 573.018 302.835C573.018 302.835 558.806 285.356 555.44 306.125L553.652 328.563C553.652 328.563 518.647 311.011 509.458 274.448L509.503 274.069C610.307 303.13 740.943 367.526 809.487 493.136C804.07 473.227 794.674 453.356 782.102 433.922L785.523 437.087L831.913 480.65L839.181 546.27C801.771 529.874 768.857 510.905 740.053 490.813C744.577 500.575 748.706 510.496 752.408 520.504C778.194 537.073 807.248 552.766 839.992 566.735C839.992 566.735 850.911 573.329 852.903 558.291C852.903 558.291 852.028 501.977 847.369 483.438C847.369 483.438 843.27 470.28 836.017 464.771C836.017 464.771 796.312 422.746 775.115 411.601C775.115 411.601 813.008 426.423 838.384 447.387C782.457 295.08 650.926 214.681 615.245 220.314C605.698 225.114 590.447 232.622 578.388 238.558L578.333 238.585L578.281 238.611C572.921 241.249 568.199 243.574 564.9 245.207C565.968 243.422 566.945 241.791 567.841 240.295C576.998 225.009 577.7 223.838 581.067 216.022C581.829 206.618 576.926 203.828 569.071 205.531L568.531 205.573C549.115 207.105 515.407 209.765 499.744 236.722C449.373 220.928 400.473 214.076 359.641 219.444ZM623.078 380.978C622.78 380.6 622.483 380.223 622.187 379.846C621.736 380.63 621.368 381.252 621.095 381.667C621.652 381.434 622.319 381.204 623.078 380.978ZM513.387 241.194L513.385 241.205C523.879 244.81 534.41 248.787 544.92 253.107C543.924 248.836 560.787 221.266 560.787 221.266C536.972 222.099 513.387 241.194 513.387 241.194ZM565.915 262.2L565.721 262.117C637.614 294.846 706.67 342.866 753.757 396.661L753.75 396.647C768.048 393.304 810.749 416.09 810.749 416.09C705.557 239.738 616.024 236.917 616.024 236.917L565.915 262.2Z" fill="#174174"/>
<path fill-rule="evenodd" clip-rule="evenodd" d="M513.387 241.194L513.386 241.205C523.879 244.81 534.41 248.787 544.92 253.107C543.925 248.836 560.787 221.266 560.787 221.266C536.973 222.099 513.387 241.194 513.387 241.194ZM565.916 262.2L565.722 262.117C637.614 294.846 706.67 342.866 753.757 396.661L753.75 396.647C768.048 393.304 810.75 416.09 810.75 416.09C705.558 239.738 616.024 236.917 616.024 236.917L565.916 262.2ZM809.487 493.136C804.07 473.227 794.674 453.356 782.103 433.922L785.524 437.087L831.914 480.65L839.182 546.27C801.771 529.874 768.857 510.905 740.053 490.813C719.87 447.269 691.809 406.915 658.638 376.364C654.589 376.09 632.202 378.256 623.079 380.978C622.781 380.6 622.483 380.223 622.188 379.846C622.549 379.218 622.963 378.487 623.423 377.674L623.423 377.674C626.928 371.479 633.089 360.587 638.818 355.163C642.772 345.524 635.52 344.238 634.304 344.022C634.222 344.008 634.167 343.998 634.145 343.991C620.132 339.768 606.765 339.252 594.572 341.018C584.841 325.787 577.756 312.684 573.019 302.835C573.019 302.835 558.806 285.356 555.441 306.125L553.652 328.563C553.652 328.563 518.647 311.011 509.459 274.448L509.504 274.069C610.307 303.13 740.944 367.526 809.487 493.136Z" fill="white"/>
<path d="M544.919 253.107C534.41 248.787 523.879 244.81 513.386 241.205C513.386 241.205 513.386 241.205 513.386 241.205L513.387 241.194C513.387 241.194 536.972 222.1 560.786 221.266C560.729 221.36 543.925 248.843 544.919 253.107Z" fill="#A6B1B8"/>
<path d="M775.654 362.511C750.765 342.122 648.92 262.736 572.821 263.485C572.821 263.485 570.94 263.622 568.946 263.596C567.872 263.099 566.797 262.606 565.722 262.117L565.916 262.2L616.024 236.917C616.024 236.917 686.391 239.134 775.654 362.511Z" fill="#A6B1B8"/>
<path d="M532.735 379.094C532.735 379.094 532.735 379.094 532.735 379.094C532.724 379.139 532.709 379.198 532.69 379.271C532.641 379.463 532.568 379.753 532.477 380.135C532.294 380.898 532.036 382.03 531.737 383.489L530.268 383.188C529.79 385.519 529.212 388.668 528.671 392.476L530.156 392.687C529.763 395.46 529.389 398.587 529.089 402.004L527.595 401.873C527.337 404.812 527.134 407.963 527.02 411.288L528.519 411.34C528.416 414.325 528.385 417.45 528.451 420.687L526.951 420.718C527.014 423.772 527.162 426.926 527.416 430.154L528.911 430.037C529.15 433.071 529.483 436.171 529.929 439.318L528.443 439.528C528.877 442.589 529.415 445.693 530.074 448.823L531.542 448.514C532.174 451.516 532.918 454.541 533.788 457.571L532.346 457.985C533.204 460.972 534.182 463.966 535.295 466.951L536.701 466.427C537.219 467.818 537.767 469.207 538.346 470.593C538.348 470.594 538.349 470.596 538.351 470.598C538.419 470.685 538.528 470.816 538.675 470.973C538.973 471.289 539.413 471.694 539.979 472.05L539.181 473.32C540.505 474.152 542.413 474.786 544.821 474.099L544.41 472.656C545.004 472.487 545.66 472.212 546.376 471.792L549.191 466.895L550.491 467.642L556.504 457.181L555.203 456.434L558.209 451.203L561.065 446.235L561.01 451.965L561.01 451.965L561.01 451.966L561.01 451.971L561.01 451.989L561.009 452.062L561.006 452.348C561.004 452.599 561.001 452.969 560.997 453.442C560.989 454.389 560.979 455.75 560.968 457.409L559.468 457.399C559.45 460.331 559.431 464.191 559.425 468.333L560.925 468.335C560.919 471.906 560.924 475.685 560.947 479.257L559.447 479.267C559.473 483.397 559.525 487.254 559.614 490.199L561.113 490.154C561.157 491.591 561.209 492.794 561.271 493.696C561.302 494.148 561.334 494.51 561.367 494.782C561.395 495.012 561.418 495.123 561.424 495.154C561.426 495.164 561.426 495.166 561.425 495.161L561.45 495.237L561.466 495.314L561.466 495.314L561.466 495.314L561.466 495.314L561.466 495.315L561.466 495.315L561.468 495.324L561.479 495.37C561.488 495.413 561.504 495.48 561.525 495.57C561.568 495.751 561.636 496.027 561.732 496.397C561.926 497.137 562.235 498.25 562.693 499.725L561.261 500.17C561.944 502.369 562.95 505.348 564.385 509.065L565.784 508.525C566.766 511.067 567.951 513.961 569.374 517.193L568.001 517.797C569.165 520.439 570.485 523.303 571.982 526.383L573.331 525.728C574.611 528.362 576.021 531.156 577.573 534.105L576.246 534.804C577.637 537.449 579.142 540.218 580.769 543.107L582.076 542.371C583.551 544.99 585.126 547.71 586.809 550.526L585.521 551.296C587.071 553.891 588.712 556.569 590.448 559.326L591.717 558.527C593.338 561.102 595.042 563.748 596.834 566.462L595.582 567.289C597.262 569.833 599.018 572.437 600.854 575.101L602.089 574.249C603.826 576.769 605.635 579.342 607.518 581.967L606.299 582.841C608.093 585.341 609.954 587.887 611.884 590.479L613.087 589.583C614.917 592.04 616.81 594.539 618.769 597.079L617.581 597.995C619.462 600.435 621.404 602.913 623.407 605.427L624.58 604.492C625.508 605.657 626.449 606.83 627.404 608.011C627.407 608.013 627.411 608.015 627.414 608.017C627.542 608.095 627.732 608.205 627.97 608.326C628.455 608.57 629.092 608.832 629.766 608.961L629.484 610.434C631.311 610.783 633.512 610.403 634.809 607.346L633.428 606.76C633.711 606.093 633.96 605.231 634.138 604.122C634.132 604.091 634.126 604.058 634.119 604.022C634.074 603.781 634.014 603.431 633.948 602.98C633.815 602.078 633.659 600.768 633.558 599.109L635.055 599.018C634.898 596.426 634.879 592.94 635.322 588.794L633.831 588.634C634.162 585.536 634.745 582.08 635.708 578.361L637.16 578.737C637.954 575.67 639.013 572.419 640.411 569.038L639.025 568.465C640.278 565.436 641.797 562.308 643.634 559.118L644.934 559.866C646.548 557.062 648.413 554.208 650.566 551.33L649.365 550.431C650.381 549.073 651.46 547.71 652.605 546.345L655.484 542.912L655.252 547.387L655.015 551.947L653.517 551.869L653.044 560.99L654.542 561.068L654.068 570.189L652.57 570.111L652.097 579.232L653.595 579.31L653.121 588.431L651.623 588.353L651.15 597.474L652.648 597.552L652.175 606.673L650.677 606.595L650.203 615.716L651.701 615.794L651.228 624.915L649.73 624.837L649.256 633.958L650.754 634.036L650.548 638.004C650.684 638.164 650.855 638.366 651.06 638.607C651.647 639.299 652.512 640.316 653.628 641.618L652.489 642.594C654.247 644.646 656.625 647.404 659.507 650.71L660.638 649.724C662.742 652.137 665.115 654.842 667.713 657.777L666.59 658.771C668.811 661.28 671.196 663.956 673.717 666.762L674.833 665.759C677.126 668.312 679.532 670.971 682.03 673.708L680.922 674.719C683.27 677.291 685.699 679.932 688.191 682.617L689.291 681.596C691.679 684.17 694.126 686.784 696.617 689.417L695.527 690.448C697.96 693.021 700.435 695.614 702.937 698.205L704.016 697.163C706.489 699.725 708.989 702.285 711.5 704.824L710.434 705.879C712.958 708.431 715.495 710.963 718.031 713.454L719.083 712.384C721.655 714.912 724.225 717.398 726.779 719.821L725.746 720.909C728.388 723.416 731.012 725.857 733.603 728.21L734.612 727.099C735.947 728.312 737.273 729.5 738.588 730.662L738.787 730.838L738.911 731.067L738.912 731.068L738.912 731.069L738.913 731.07L738.913 731.071L738.913 731.071L738.914 731.072C738.917 731.077 738.921 731.085 738.927 731.096C738.93 731.1 738.932 731.104 738.934 731.108C738.955 731.143 738.988 731.199 739.033 731.272C739.125 731.418 739.264 731.628 739.446 731.871C739.817 732.367 740.334 732.953 740.956 733.413L740.064 734.619C741.717 735.841 744.096 736.466 746.885 733.855L745.859 732.76C746.517 732.144 747.238 731.284 748.008 730.104C748.885 728.758 749.737 727.395 750.566 726.014L751.852 726.785C753.522 724.001 755.094 721.148 756.569 718.23L755.23 717.553C756.677 714.691 758.03 711.765 759.292 708.778L760.674 709.362C761.934 706.379 763.104 703.337 764.184 700.241L762.768 699.747C763.824 696.72 764.794 693.639 765.68 690.509L767.124 690.917C768.005 687.804 768.804 684.642 769.521 681.436L768.057 681.109C768.758 677.976 769.381 674.801 769.927 671.585L771.405 671.836C771.946 668.652 772.412 665.43 772.804 662.173L771.315 661.993C771.699 658.809 772.012 655.59 772.256 652.341L773.752 652.453C773.993 649.23 774.168 645.977 774.275 642.698L772.776 642.649C772.881 639.435 772.922 636.196 772.9 632.934L774.4 632.924C774.378 629.686 774.295 626.426 774.15 623.147L772.652 623.213C772.51 619.992 772.31 616.753 772.052 613.497L773.547 613.379C773.291 610.152 772.979 606.909 772.612 603.654L771.121 603.822C770.76 600.621 770.345 597.407 769.877 594.184L771.362 593.968C770.896 590.761 770.379 587.543 769.811 584.318L768.334 584.579C767.773 581.397 767.163 578.209 766.505 575.015L767.974 574.712C767.317 571.53 766.613 568.344 765.862 565.156L764.402 565.5C763.661 562.357 762.874 559.212 762.042 556.067L763.492 555.683C762.662 552.545 761.788 549.407 760.869 546.27L759.43 546.692C758.52 543.585 757.567 540.481 756.573 537.381L758.001 536.922C757.007 533.826 755.971 530.733 754.894 527.647L753.478 528.141C752.411 525.084 751.304 522.034 750.158 518.991L751.562 518.462C750.415 515.419 749.228 512.384 748.003 509.36L746.613 509.923C745.396 506.917 744.14 503.922 742.847 500.939L744.224 500.343C742.929 497.355 741.596 494.38 740.228 491.419L738.866 492.049C737.504 489.104 736.107 486.173 734.674 483.26L736.02 482.598C734.582 479.674 733.108 476.766 731.6 473.878L730.271 474.572C728.768 471.693 727.23 468.833 725.659 465.993L726.972 465.267C725.394 462.415 723.782 459.583 722.137 456.775L720.843 457.533C719.2 454.728 717.524 451.946 715.816 449.188L717.092 448.399C715.373 445.624 713.622 442.874 711.839 440.152L710.584 440.973C708.803 438.253 706.99 435.561 705.147 432.898L706.38 432.044C704.523 429.361 702.635 426.708 700.716 424.087L699.506 424.973C697.583 422.345 695.629 419.75 693.647 417.189L694.833 416.271C692.831 413.686 690.799 411.136 688.739 408.623L687.579 409.574C685.515 407.058 683.423 404.579 681.302 402.14L682.434 401.156C680.29 398.69 678.118 396.265 675.918 393.883L674.816 394.901C672.605 392.507 670.366 390.157 668.101 387.853L669.17 386.801C666.874 384.466 664.551 382.178 662.2 379.939L661.166 381.025C660.127 380.036 659.084 379.057 658.036 378.087C657.18 378.075 655.797 378.126 654.001 378.243L653.904 376.746C651.308 376.914 647.986 377.21 644.431 377.604L644.596 379.095C641.538 379.433 638.307 379.844 635.223 380.309L634.999 378.825C631.565 379.343 628.306 379.926 625.65 380.55L625.993 382.01C624.158 382.441 622.688 382.876 621.682 383.297L617.156 385.19L619.849 381.09C619.997 380.865 620.186 380.557 620.417 380.166L620.826 380.407C621.274 380.231 621.772 380.059 622.31 379.892C622.483 379.591 622.667 379.268 622.861 378.925L621.556 378.185C621.737 377.867 621.926 377.532 622.125 377.18L622.128 377.175C623.085 375.483 624.248 373.428 625.547 371.228L626.839 371.991C629.047 368.252 631.65 364.094 634.335 360.555L633.139 359.648C634.58 357.748 636.068 355.991 637.554 354.549C637.98 353.464 638.239 352.525 638.374 351.716L639.853 351.963C640.43 348.512 639.138 346.61 637.637 345.557L636.776 346.785C635.734 346.053 634.525 345.829 634.049 345.745L634.311 344.268L634.049 345.745L634.008 345.737L634.271 344.261C634.239 344.255 634.213 344.25 634.192 344.246L633.893 345.716L633.89 345.715C633.87 345.711 633.801 345.697 633.72 345.673C632.055 345.171 630.399 344.722 628.754 344.324L629.107 342.866C625.636 342.027 622.209 341.41 618.836 340.992L618.651 342.481C615.175 342.051 611.757 341.836 608.404 341.811L608.415 340.311C604.861 340.285 601.381 340.469 597.984 340.834L598.145 342.326C594.672 342.699 591.287 343.265 588.003 343.991L587.679 342.526C584.209 343.294 580.85 344.237 577.616 345.32L578.093 346.743C574.76 347.859 571.561 349.125 568.513 350.501L567.896 349.133C564.617 350.613 561.51 352.216 558.594 353.892L559.341 355.192C557.822 356.066 556.355 356.959 554.944 357.865L554.029 358.453L553.186 357.766C551.934 356.746 550.682 355.735 549.428 354.733L550.365 353.561C547.827 351.533 545.286 349.541 542.742 347.588L541.829 348.778C539.259 346.805 536.688 344.871 534.117 342.979L535.006 341.771C532.387 339.844 529.768 337.959 527.151 336.119L526.288 337.346C523.632 335.479 520.979 333.658 518.33 331.885L519.165 330.638C516.456 328.825 513.752 327.062 511.054 325.35L510.25 326.617C507.506 324.876 504.77 323.19 502.042 321.559L502.812 320.272C500.009 318.596 497.216 316.979 494.434 315.424L493.702 316.733C490.862 315.144 488.035 313.62 485.223 312.162L485.914 310.83C483.007 309.323 480.116 307.887 477.244 306.523L476.601 307.878C473.655 306.48 470.731 305.159 467.83 303.919L468.42 302.54C465.399 301.248 462.403 300.043 459.436 298.928L458.908 300.332C455.851 299.183 452.825 298.131 449.836 297.178L450.291 295.749C447.152 294.749 444.05 293.857 440.991 293.079L440.621 294.532C437.453 293.726 434.334 293.043 431.267 292.487L431.535 291.011C428.281 290.421 425.084 289.972 421.948 289.669L421.804 291.162C420.791 291.064 419.785 290.982 418.787 290.915L419.015 293.319L417.522 293.461L418.308 301.75L419.802 301.608L420.588 309.897L419.095 310.038L419.882 318.327L421.375 318.185L421.703 321.641L422.291 322.054L421.43 323.282L423.739 324.902L424.6 323.674L425.552 324.342C427.067 324.787 428.582 325.245 430.096 325.717L429.65 327.149C432.798 328.13 435.946 329.168 439.093 330.263L439.586 328.846C442.716 329.935 445.844 331.079 448.969 332.276L448.432 333.677C451.512 334.856 454.588 336.088 457.662 337.371L458.24 335.987C461.297 337.263 464.35 338.59 467.398 339.964L466.782 341.332C469.79 342.688 472.793 344.092 475.79 345.542L476.443 344.192C479.426 345.634 482.402 347.122 485.371 348.654L484.683 349.987C487.616 351.501 490.543 353.058 493.461 354.656L494.182 353.34C497.088 354.933 499.987 356.566 502.876 358.239L502.125 359.537C504.983 361.192 507.831 362.886 510.67 364.618L511.451 363.337C514.281 365.064 517.101 366.828 519.909 368.628L519.1 369.891C521.882 371.674 524.653 373.493 527.412 375.346L528.249 374.101C529.627 375.026 531.002 375.961 532.375 376.904L533.435 377.632L532.876 378.791C532.86 378.825 532.844 378.859 532.828 378.892L531.471 378.254C531.435 378.331 531.4 378.407 531.366 378.482M532.735 379.094L532.096 378.809M532.735 379.094C532.739 379.08 532.743 379.067 532.746 379.055L532.759 379.003L532.763 378.991L532.763 378.989L532.763 378.989C532.763 378.989 532.763 378.989 532.096 378.809M532.735 379.094L531.366 378.482M532.096 378.809C531.9 378.756 531.645 378.687 531.315 378.598C531.332 378.559 531.349 378.521 531.366 378.482M532.096 378.809L531.366 378.482M624.264 353.113L626.298 353.769L624.989 355.459L621.295 360.23L620.109 359.311L612.721 368.853L613.907 369.771L606.518 379.313L605.332 378.394L597.944 387.936L599.13 388.854L595.435 393.625L594.399 394.963L593.195 393.773C592.024 392.616 590.85 391.465 589.672 390.32L590.718 389.245C588.347 386.94 585.964 384.661 583.569 382.411L582.542 383.504C580.138 381.243 577.722 379.011 575.297 376.809L576.306 375.699C573.855 373.473 571.395 371.277 568.927 369.114L567.938 370.242C566.699 369.155 565.459 368.077 564.216 367.007L562.7 365.703L564.377 364.613C565.111 364.136 566.66 363.161 568.865 361.939L569.592 363.251C571.958 361.939 575.098 360.335 578.809 358.758L578.223 357.378C581.165 356.128 584.465 354.894 588.023 353.833L588.452 355.271C591.602 354.331 594.956 353.53 598.442 352.98L598.208 351.498C601.585 350.965 605.093 350.66 608.669 350.685L608.659 352.185C612.018 352.208 615.432 352.53 618.846 353.235L619.15 351.766C620.855 352.119 622.562 352.564 624.264 353.113ZM725.151 646.715C724.592 643.392 723.951 640.05 723.229 636.692L724.696 636.377C723.978 633.036 723.181 629.679 722.307 626.31L720.855 626.686C720.004 623.399 719.078 620.1 718.082 616.789L719.518 616.357C718.534 613.089 717.481 609.812 716.362 606.527L714.942 607.011C713.846 603.796 712.686 600.574 711.462 597.345L712.865 596.814C711.655 593.621 710.384 590.422 709.053 587.221L707.668 587.797C706.363 584.657 705.001 581.513 703.582 578.368L704.95 577.751C703.545 574.637 702.087 571.521 700.575 568.406L699.225 569.061C697.739 565.998 696.202 562.936 694.615 559.876L695.946 559.185C694.373 556.151 692.75 553.118 691.08 550.09L689.767 550.814C688.121 547.83 686.43 544.85 684.694 541.876L685.99 541.12C684.266 538.165 682.498 535.217 680.688 532.275L679.411 533.061C677.623 530.156 675.795 527.259 673.926 524.369L675.186 523.554C673.327 520.681 671.429 517.815 669.492 514.959L668.251 515.801C666.335 512.976 664.382 510.161 662.393 507.356L663.616 506.488C661.634 503.695 659.617 500.913 657.565 498.142L656.36 499.035C654.327 496.291 652.259 493.558 650.159 490.839L651.346 489.922C649.251 487.21 647.124 484.511 644.965 481.827L643.796 482.767C641.654 480.104 639.48 477.455 637.277 474.822L638.427 473.859C636.226 471.23 633.996 468.616 631.737 466.019L630.605 467.004C628.36 464.423 626.087 461.859 623.786 459.314L624.899 458.308C622.598 455.763 620.27 453.236 617.917 450.728L616.823 451.755C614.48 449.259 612.112 446.783 609.719 444.328L610.793 443.281C608.397 440.822 605.977 438.385 603.532 435.969L602.478 437.036C600.042 434.629 597.583 432.244 595.101 429.882L596.135 428.795C593.646 426.427 591.136 424.081 588.603 421.761L587.59 422.867C585.063 420.552 582.515 418.261 579.947 415.996L580.939 414.871C578.361 412.597 575.762 410.349 573.144 408.129L572.174 409.273C569.558 407.054 566.924 404.864 564.271 402.702L565.219 401.539C562.552 399.365 559.867 397.22 557.165 395.106L556.241 396.288C553.538 394.173 550.818 392.088 548.083 390.036L548.983 388.836C547.609 387.805 546.231 386.783 544.85 385.768L543.248 384.592L542.556 386.454C541.921 388.162 541.39 389.946 540.95 391.785L542.409 392.134C541.602 395.511 541.105 399.108 540.847 402.795L539.351 402.69C539.098 406.302 539.071 409.989 539.202 413.632L540.701 413.578C540.833 417.238 541.128 420.864 541.518 424.334L540.028 424.501C540.458 428.333 541.004 431.974 541.575 435.264L543.053 435.008C543.784 439.22 544.559 442.856 545.187 445.574L543.726 445.912C544.109 447.568 544.438 448.888 544.673 449.796C544.79 450.25 544.883 450.601 544.948 450.839C544.98 450.959 545.005 451.05 545.022 451.112L545.042 451.183L545.047 451.202L545.048 451.207L545.049 451.208L545.049 451.209L545.049 451.209C545.049 451.209 545.049 451.209 546.493 450.803L545.049 451.209L546 454.59L547.785 451.566L551.568 445.155L550.277 444.393L557.844 431.572L559.136 432.335L562.874 426.002C564.141 424.348 565.258 423.189 566.231 422.405L565.29 421.237C569.733 417.658 572.394 420.304 573.881 423.352L572.533 424.01C573.066 425.104 573.442 426.279 573.686 427.199C573.806 427.655 573.892 428.039 573.947 428.305C573.968 428.409 573.985 428.494 573.997 428.559L573.728 434.623L575.226 434.69L574.673 447.152L573.174 447.085L572.621 459.547L574.12 459.613L573.566 472.075L572.068 472.008L571.791 478.239L571.791 478.243C571.7 480.411 571.692 482.445 571.745 484.339L573.245 484.297C573.384 489.279 573.956 493.269 574.557 496.186L573.087 496.489C573.487 498.43 573.902 499.918 574.22 500.931C574.379 501.438 574.515 501.825 574.612 502.091C574.661 502.224 574.7 502.326 574.729 502.398C574.73 502.403 574.732 502.407 574.734 502.411C574.741 502.43 574.748 502.447 574.754 502.461C575.222 503.873 575.75 505.33 576.33 506.824L577.728 506.281C578.783 508.997 580.018 511.851 581.392 514.796L580.033 515.43C581.307 518.159 582.697 520.961 584.17 523.798L585.501 523.107C586.9 525.8 588.375 528.529 589.899 531.26L588.59 531.991C590.095 534.689 591.648 537.389 593.22 540.059L594.512 539.298C596.094 541.984 597.696 544.642 599.291 547.238L598.012 548.023C599.673 550.728 601.326 553.366 602.94 555.902L604.205 555.097C605.941 557.825 607.632 560.436 609.238 562.885L607.984 563.707C609.83 566.522 611.565 569.122 613.131 571.441L614.374 570.602C616.473 573.712 618.266 576.314 619.609 578.244L618.378 579.101C619.218 580.307 619.882 581.252 620.338 581.897C620.565 582.219 620.741 582.465 620.859 582.632L620.994 582.821L621.028 582.869L621.037 582.882L621.04 582.885L621.04 582.886L621.04 582.886L622.26 582.013L621.041 582.886L622.869 585.439L623.706 582.412C624.175 580.714 624.717 578.984 625.322 577.233L623.904 576.743C625.073 573.359 626.465 569.914 627.998 566.485L629.367 567.098C630.853 563.775 632.474 560.465 634.155 557.242L632.825 556.548C634.572 553.199 636.38 549.947 638.164 546.874L639.461 547.627C641.428 544.24 643.367 541.071 645.163 538.231L643.895 537.43C646.251 533.703 648.362 530.542 649.968 528.195L651.206 529.042C652.178 527.621 652.965 526.501 653.507 525.737C653.778 525.355 653.988 525.063 654.13 524.866C654.134 524.86 654.138 524.854 654.143 524.849L655.088 524.348L654.387 523.022L656.895 521.696L657.597 523.022L658.455 522.568C659.143 522.658 659.886 522.873 660.662 523.194L661.234 521.807C663.261 522.643 665.211 524.001 666.657 525.152L665.723 526.326C666.418 526.879 666.991 527.383 667.389 527.747C667.436 527.789 667.48 527.83 667.521 527.868L667.276 532.579L668.774 532.657L668.211 543.453L666.713 543.375L666.15 554.172L667.648 554.25L667.085 565.046L665.587 564.968L665.025 575.765L666.523 575.843L665.96 586.639L664.462 586.561L663.899 597.358L665.397 597.436L664.834 608.232L663.336 608.154L662.773 618.95L664.271 619.029L663.709 629.825L662.211 629.747L661.929 635.145L661.896 635.783L662.333 636.249L665.557 639.688L666.652 638.663L673.1 645.541L672.006 646.567L678.455 653.446L679.549 652.42L685.998 659.298L684.904 660.324L691.353 667.203L692.447 666.177L698.896 673.056L697.802 674.082L704.25 680.96L705.345 679.934L711.793 686.813L710.699 687.839L717.148 694.717L718.242 693.692L724.691 700.57L723.597 701.596L730.046 708.475L731.14 707.449L737.589 714.327L736.495 715.353L739.719 718.793L741.236 720.41L742.173 718.401C742.895 716.852 743.594 715.303 744.272 713.752L742.898 713.151C744.244 710.073 745.503 706.99 746.678 703.905L748.08 704.439C749.292 701.257 750.416 698.073 751.453 694.888L750.027 694.423C751.068 691.229 752.022 688.034 752.892 684.839L754.339 685.234C755.229 681.966 756.033 678.699 756.753 675.434L755.288 675.111C756.013 671.826 756.652 668.542 757.21 665.262L758.689 665.513C759.255 662.184 759.738 658.858 760.14 655.538L758.651 655.358C759.055 652.027 759.378 648.701 759.624 645.382L761.12 645.493C761.369 642.123 761.54 638.76 761.635 635.407L760.135 635.365C760.23 632.017 760.249 628.678 760.196 625.349L761.696 625.326C761.642 621.954 761.515 618.595 761.319 615.248L759.822 615.336C759.626 611.989 759.36 608.656 759.028 605.337L760.52 605.187C760.185 601.835 759.784 598.499 759.319 595.179L757.834 595.387C757.37 592.072 756.844 588.774 756.259 585.495L757.735 585.232C757.143 581.913 756.491 578.613 755.783 575.335L754.317 575.651C753.61 572.376 752.847 569.121 752.033 565.889L753.487 565.523C752.665 562.26 751.79 559.02 750.868 555.807L749.426 556.221C748.5 552.995 747.525 549.795 746.506 546.622L747.934 546.164C746.903 542.952 745.826 539.769 744.709 536.617L743.295 537.118C742.175 533.955 741.013 530.823 739.815 527.723L741.214 527.182C739.999 524.039 738.746 520.929 737.462 517.855L736.078 518.433C734.778 515.324 733.445 512.251 732.083 509.217L733.452 508.603C732.067 505.517 730.653 502.472 729.215 499.468L727.862 500.116C726.407 497.079 724.928 494.086 723.429 491.137L724.766 490.457C723.234 487.444 721.681 484.478 720.114 481.562L718.793 482.273C717.187 479.285 715.566 476.35 713.935 473.47L715.24 472.731C713.561 469.767 711.873 466.862 710.181 464.019L708.892 464.786C707.154 461.864 705.413 459.008 703.675 456.22L704.948 455.426C703.14 452.526 701.336 449.7 699.545 446.952L698.288 447.771C696.421 444.906 694.567 442.126 692.736 439.435L693.976 438.591C692.035 435.738 690.12 432.986 688.241 430.337L687.017 431.205C685.008 428.374 683.041 425.663 681.129 423.078L682.335 422.186C680.237 419.35 678.206 416.664 676.258 414.138L675.07 415.054C672.885 412.221 670.807 409.589 668.859 407.169L670.027 406.228C667.709 403.348 665.575 400.767 663.668 398.505L662.521 399.471C659.823 396.271 657.582 393.713 655.918 391.85L657.036 390.851C655.971 389.659 655.14 388.75 654.573 388.137C654.29 387.831 654.074 387.598 653.927 387.442C653.879 387.391 653.839 387.349 653.806 387.314L653.76 387.265L653.717 387.219L653.705 387.207L653.702 387.204L653.701 387.203L653.701 387.203L653.701 387.203C653.701 387.203 653.701 387.203 652.615 388.238L653.701 387.203L653.282 386.763L652.675 386.739C651.289 386.683 649.808 386.744 648.263 386.896L648.411 388.389C645.839 388.643 643.025 389.168 640.103 389.874L639.751 388.416C637.056 389.067 634.281 389.869 631.527 390.75L631.985 392.179C629.283 393.044 626.593 393.991 624.013 394.955L623.488 393.55C620.68 394.598 618.004 395.666 615.584 396.671L616.159 398.056C613.076 399.336 610.408 400.513 608.414 401.417L607.795 400.051C606.592 400.597 605.632 401.044 604.972 401.355C604.642 401.51 604.386 401.632 604.213 401.715C604.127 401.756 604.06 401.788 604.016 401.81L603.964 401.834L603.951 401.841L603.947 401.842L603.946 401.843L603.946 401.843L604.576 403.139L603.492 404.204C604.662 405.417 605.827 406.637 606.989 407.863L608.077 406.831C610.403 409.286 612.711 411.763 615.001 414.262L613.895 415.275C616.175 417.763 618.436 420.273 620.677 422.802L621.8 421.808C624.044 424.341 626.268 426.894 628.471 429.466L627.332 430.441C629.529 433.007 631.704 435.591 633.856 438.192L635.012 437.235C637.171 439.846 639.308 442.473 641.419 445.116L640.247 446.052C642.357 448.693 644.442 451.35 646.5 454.021L647.688 453.106C649.758 455.792 651.8 458.493 653.814 461.206L652.61 462.1C654.627 464.817 656.615 467.546 658.572 470.287L659.792 469.415C661.765 472.178 663.707 474.952 665.615 477.735L664.378 478.583C666.294 481.376 668.176 484.179 670.023 486.989L671.276 486.165C673.142 489.005 674.973 491.852 676.766 494.707L675.496 495.505C677.299 498.375 679.064 501.252 680.789 504.133L682.076 503.363C683.824 506.283 685.532 509.208 687.197 512.136L685.893 512.878C687.57 515.828 689.204 518.782 690.792 521.736L692.113 521.026C693.726 524.028 695.292 527.031 696.81 530.034L695.471 530.71C697.003 533.742 698.485 536.772 699.914 539.8L701.27 539.16C702.727 542.244 704.129 545.327 705.475 548.404L704.101 549.005C705.462 552.118 706.766 555.225 708.009 558.325L709.401 557.767C710.671 560.935 711.879 564.096 713.022 567.247L711.612 567.758C712.771 570.955 713.863 574.142 714.885 577.315L716.313 576.855C717.363 580.114 718.339 583.359 719.239 586.589L717.794 586.992C718.707 590.268 719.541 593.528 720.294 596.768L721.755 596.429C722.529 599.761 723.217 603.073 723.816 606.363L722.34 606.632C722.949 609.977 723.466 613.297 723.886 616.589L725.374 616.399C725.808 619.799 726.141 623.171 726.369 626.511L724.872 626.613C725.103 629.995 725.224 633.343 725.234 636.653L726.734 636.649C726.743 639.996 726.638 643.308 726.416 646.579L725.473 646.737L725.151 646.715Z" stroke="#174174" stroke-width="3" stroke-dasharray="10 10"/>
<path fill-rule="evenodd" clip-rule="evenodd" d="M223.496 89.282L223.652 88.6013C226.612 75.7575 229.992 61.0855 244.496 61.282C245.836 72.7679 248.409 78.5656 251.463 85.4437C251.801 86.2067 252.146 86.9831 252.496 87.782C254.186 89.5665 255.806 91.2099 257.359 92.7851C264.072 99.5951 269.529 105.13 273.996 115.282C335.032 98.9147 360.792 92.7387 384.92 88.075C384.874 81.7742 384.001 74.345 381.996 65.282C411.045 90.4868 442.285 135.766 432.678 166.193C434.459 172.597 436.231 179.594 437.996 187.282C440.043 200.385 444.103 207.788 448.801 216.355C449.84 218.249 450.909 220.2 451.996 222.282C473.996 256.782 522.916 344.782 538.996 379.782C541.481 385.192 540.589 387.714 539.496 390.782C524.496 423.282 488.996 474.586 442.496 502.282C397.416 529.132 357.496 544.282 307.496 549.782L296.496 485.282C296.023 485.981 295.553 486.675 295.086 487.364C277.223 513.758 263.937 533.39 246.232 542.884C240.871 545.659 235.003 547.657 228.481 548.656C219.088 549.972 208.294 549.105 195.322 545.765C164.435 537.126 141.257 514.159 144.996 474.282C145.679 466.99 150.125 464.322 154.305 461.813C156.714 460.368 159.034 458.975 160.496 456.782C164.283 437.846 169.089 419.588 173.43 403.097C176.539 391.286 179.409 380.381 181.496 370.782C182.109 367.573 182.991 364.368 183.87 361.173C186.445 351.815 188.992 342.556 184.676 333.602C180.486 324.927 178.65 316.899 176.683 308.301C175.927 304.995 175.152 301.605 174.216 298.062C171.728 285.458 173.189 276.852 174.007 272.032L174.008 272.03C174.084 271.581 174.154 271.165 174.216 270.782C185.524 235.336 206.711 197.764 228.39 167.412C234.88 156.844 231.489 146.98 228.201 137.416C227.61 135.696 227.022 133.985 226.496 132.282C222.926 120.692 221.186 101.382 223.496 89.282ZM420.133 171.961C418.77 174.82 417.208 177.469 415.67 180.076C411.083 187.855 406.712 195.267 408.496 206.782C411.646 197.472 416.416 186.992 423.996 180.282C426.296 192.382 431.386 204.292 437.306 214.982C452.975 243.298 471.011 276.874 489.043 310.445L489.046 310.451L489.049 310.456L489.053 310.462C503.074 336.565 517.093 362.663 529.996 386.282C478.496 492.282 374.915 529.607 315.996 540.282L301.996 476.282L359.996 389.782C371.977 389.782 388.496 388.782 398.996 383.782C434.496 368.782 450.496 293.782 419.496 232.782C432.496 298.782 435.496 396.782 345.496 378.282C351.996 385.782 350.496 386.282 350.496 386.282C348.714 389.063 346.935 391.841 345.156 394.616C318.473 436.235 291.995 477.102 263.746 517.032C263.214 517.876 262.609 518.693 261.938 519.483C257.238 525.013 249.306 529.235 240.976 532.262C238.445 533.178 235.863 533.988 233.247 534.679C214.934 539.515 194.952 538.501 179.246 527.032C178.214 526.126 177.217 525.2 176.252 524.24C169.496 517.516 164.309 509.095 159.996 493.782C159.837 493.22 159.906 492.47 160.148 491.62C161.845 485.673 172.058 474.845 172.496 489.281C172.621 488.531 172.719 487.629 172.781 486.632C173.218 479.647 171.884 467.993 165.496 471.282C165.222 471.465 164.963 471.641 164.717 471.812C161.032 474.374 160.367 475.724 158.88 478.744L158.874 478.757C158.802 478.902 158.729 479.051 158.653 479.204C158.108 480.307 157.442 481.627 156.496 483.282C156.246 482.688 156.043 482.104 155.883 481.531C153.498 472.934 161.027 466.782 168.996 466.782C168.979 466.758 168.963 466.734 168.947 466.71C168.929 466.684 168.912 466.659 168.894 466.635C168.387 465.92 167.88 465.54 167.451 465.219C167.142 464.987 166.873 464.786 166.673 464.511C166.072 463.688 166.09 462.206 167.496 457.282C168.628 452.484 169.877 447.171 171.211 441.491L171.294 441.141L171.294 441.139L171.294 441.138C172.378 436.524 173.518 431.672 174.698 426.661C182.959 391.583 193.192 348.717 199.996 325.282C206.088 325.602 211.472 322.52 214.336 317.28C215.859 314.495 216.669 311.1 216.496 307.282C214.191 309.257 212.188 311.103 210.417 312.736C208.169 314.808 206.294 316.536 204.65 317.748C199.716 321.383 196.856 320.372 192.226 310.052C192.057 309.676 191.891 309.309 191.726 308.95C189.256 303.566 187.228 300.025 185.75 297.444C185.639 297.251 185.532 297.063 185.427 296.88C184.119 294.591 183.303 293.088 183.067 291.646C183.02 291.357 182.996 291.071 182.996 290.782C181.996 241.282 233.496 176.782 271.996 130.282C265.226 152.472 258.156 176.592 261.996 200.782C266.673 196.299 271.484 191.475 276.446 186.498C291.501 171.399 307.954 154.898 326.341 142.28C326.732 142.011 327.124 141.745 327.517 141.48C333.804 137.241 340.317 133.466 347.076 130.362C354.058 127.156 361.998 127.592 370.062 130.295C365.718 138.985 361.988 149.7 361.496 166.782C361.716 173.182 362.496 178.782 368.996 185.782C368.919 183.25 368.778 180.589 368.634 177.843C367.836 162.728 366.903 145.032 375.695 132.155C375.718 132.121 375.742 132.086 375.766 132.052C387.952 114.346 393.456 103.361 393.495 86.4643C393.495 86.4036 393.496 86.3428 393.496 86.282C393.534 86.3358 393.572 86.3897 393.61 86.4435C428.924 136.498 427.231 157.073 420.133 171.961ZM241.579 149.894C250.671 138.458 259.509 128.653 267.385 121.186C259.609 114.453 251.509 106.073 245.996 97.782C244.138 94.7191 242.485 91.83 240.673 88.6638L240.672 88.6616L240.671 88.6608C239.538 86.6799 238.342 84.5905 236.996 82.282C232.74 104.342 235.66 128.837 241.579 149.894Z" fill="#174174"/>
<path d="M267.385 121.186C264.9 119.034 262.381 116.714 259.925 114.282C257.578 111.958 255.287 109.533 253.136 107.055C250.636 104.176 248.324 101.225 246.331 98.282C246.218 98.1153 246.106 97.9486 245.995 97.782C244.138 94.7183 242.484 91.8288 240.672 88.6616L240.671 88.6608C239.538 86.6799 238.342 84.5905 236.995 82.282C232.739 104.342 235.66 128.837 241.579 149.894C250.671 138.457 259.509 128.653 267.385 121.186Z" fill="white"/>
<path d="M423.996 180.282C416.416 186.992 411.645 197.472 408.495 206.782C406.711 195.267 411.083 187.855 415.67 180.076C417.208 177.469 418.77 174.82 420.133 171.961C427.239 157.057 428.927 136.453 393.495 86.282C393.495 103.282 387.995 114.282 375.766 132.052C366.898 144.937 367.834 162.688 368.633 177.843C368.778 180.589 368.919 183.25 368.995 185.782C362.495 178.782 361.715 173.182 361.495 166.782C361.988 149.7 365.718 138.985 370.062 130.295C361.997 127.591 354.058 127.156 347.076 130.362C320.04 142.777 296.946 165.938 276.446 186.498C271.484 191.475 266.673 196.299 261.995 200.782C258.155 176.592 265.225 152.472 271.995 130.282C233.495 176.782 181.995 241.282 182.995 290.782C182.995 292.635 183.976 294.348 185.75 297.444C187.326 300.197 189.529 304.043 192.226 310.052C198.4 323.812 201.425 321.023 210.417 312.736C212.188 311.103 214.191 309.257 216.495 307.282C216.995 318.282 209.326 325.772 199.996 325.282C192.22 352.064 179.966 404.226 171.294 441.138L171.294 441.139L171.293 441.141C169.928 446.952 168.652 452.385 167.495 457.282C165.621 463.848 166.215 464.293 167.45 465.218C167.908 465.562 168.454 465.971 168.995 466.782C160.495 466.782 152.495 473.782 156.495 483.282C157.576 481.39 158.292 479.937 158.88 478.744C160.466 475.522 161.117 474.201 165.495 471.282C172.796 467.523 173.495 483.282 172.495 489.282C171.995 472.782 158.728 489.282 159.995 493.782C164.925 511.282 170.996 519.782 179.246 527.032C197.196 540.139 220.73 539.591 240.976 532.262C250.496 528.802 259.495 523.782 263.745 517.032C293.878 474.44 321.995 430.782 350.495 386.282C350.495 386.282 351.995 385.782 345.495 378.282C435.495 396.782 432.495 298.782 419.495 232.782C450.495 293.782 434.495 368.782 398.995 383.782C388.495 388.782 371.977 389.782 359.995 389.782L301.995 476.282L315.995 540.282C374.915 529.607 478.495 492.282 529.995 386.282C517.091 362.66 503.069 336.557 489.046 310.45L489.043 310.445C471.011 276.874 452.975 243.298 437.305 214.982C431.385 204.292 426.295 192.382 423.996 180.282Z" fill="white"/>
<path d="M246.056 97.8728C251.568 106.134 259.637 114.477 267.385 121.186C262.648 125.677 257.563 131.013 252.285 137.041C252.187 137.123 252.091 137.203 251.995 137.282C250.062 133.417 246.729 104.337 246.056 97.8728Z" fill="#C4C3C3"/>
<path d="M398.995 109.282C415.635 130.182 419.835 165.192 400.995 186.282C400.855 184.015 401.275 181.171 401.721 178.157C402.669 171.746 403.731 164.566 399.745 160.532C395.986 156.741 391.455 160.603 387.336 164.115C385.023 166.086 382.84 167.948 380.995 168.282C378.455 146.192 385.275 125.742 398.995 109.282Z" fill="#C4C3C3"/>
<path fill-rule="evenodd" clip-rule="evenodd" d="M240.995 321.282C237.785 319.662 231.495 314.282 227.995 308.782C228.965 326.132 241.495 337.282 263.995 334.282C264.495 338.782 259.495 357.782 257.495 365.282C261.308 360.821 269.995 351.282 269.995 351.282C269.995 351.282 278.495 353.282 288.995 353.282C306.995 351.782 329.995 327.782 328.995 308.282C327.473 318.782 313.995 345.782 290.495 348.782C284.746 349.179 280.495 348.282 271.495 346.782C271.495 346.782 271.495 340.782 271.995 334.282C277.495 334.282 279.995 333.782 282.495 332.282C291.995 337.782 296.995 340.032 305.675 336.962C316.325 334.112 322.995 322.782 318.065 310.212C317.112 307.782 315.995 305.782 313.995 302.282C317.995 293.282 326.495 280.782 329.495 297.782C329.455 296.072 329.495 287.693 329.995 285.282C331.405 278.482 334.465 273.582 340.995 270.282C343.662 269.115 345.995 267.282 361.495 264.782C329.995 264.282 315.495 282.282 297.745 297.032C282.085 310.752 262.885 332.342 240.995 321.282Z" fill="#174174"/>
<path fill-rule="evenodd" clip-rule="evenodd" d="M329.485 296.863C329.472 294.087 329.557 287.394 329.995 285.282C331.392 278.544 334.41 273.672 340.817 270.373C340.876 270.342 340.936 270.312 340.995 270.282C332.255 277.112 332.495 293.282 332.995 304.282C334.995 316.282 336.155 328.752 327.745 337.032C319.335 345.322 312.765 349.712 302.915 354.202C293.075 358.702 284.395 363.432 278.225 372.512C261.995 400.782 250.995 436.782 240.495 471.282C240.851 471.608 241.206 471.929 241.556 472.247L241.558 472.249C247.114 477.284 251.728 481.466 247.495 492.282C245.495 483.782 239.415 474.892 229.995 477.282C234.443 457.305 241.649 428.983 247.595 405.615C252.525 386.239 256.589 370.268 257.495 365.282C257.495 365.282 257.496 365.282 257.496 365.281C261.303 360.826 269.97 351.31 269.995 351.282C269.995 351.282 269.995 351.282 269.995 351.282C270.061 351.297 278.536 353.282 288.995 353.282C306.995 351.782 329.995 327.782 328.995 308.282C329.495 303.282 329.495 302.282 329.495 297.782C329.495 297.782 329.495 297.782 329.495 297.782M329.485 296.863C329.491 297.17 329.495 297.475 329.495 297.781Z" fill="#C4C3C3"/>
<path d="M227.995 308.782C225.495 297.782 224.495 287.782 234.495 274.782C234.475 275.393 234.453 276.011 234.432 276.634C233.936 290.897 233.331 308.348 240.995 321.282C237.785 319.662 231.495 314.282 227.995 308.782Z" fill="#C4C3C3"/>
<circle cx="299.695" cy="328.282" r="6" fill="#D9383B"/>
<path d="M210.43 507.278C217.237 500.421 222.177 498.104 228.745 506.532C232.978 511.957 238.315 510.022 241.429 505.323C240.109 507.835 238.241 510.3 235.875 512.501C228.048 519.781 217.74 521.421 212.85 516.164C210.746 513.903 209.988 510.734 210.43 507.278Z" fill="#E7E7E9"/>
<path d="M243.725 497.284C243.642 499.839 242.855 502.609 241.43 505.323C238.315 510.022 232.979 511.957 228.746 506.532C222.181 498.109 217.244 500.418 210.442 507.265C214.174 502.223 214.931 501.52 218.501 498.21C218.81 497.923 219.14 497.617 219.496 497.286L243.725 497.284Z" fill="#B3B2B3"/>
<path d="M210.442 507.265C214.173 502.223 214.931 501.52 218.5 498.21C218.809 497.924 219.14 497.617 219.495 497.286L243.725 497.284C243.719 497.451 243.711 497.618 243.7 497.786C243.91 494.682 243.11 491.864 241.191 489.801C236.301 484.544 225.993 486.184 218.166 493.464C213.706 497.613 211.015 502.698 210.43 507.278" fill="#C4C3C3"/>
<path d="M172.345 487.185C172.421 487.815 172.472 488.513 172.495 489.282C172.497 489.275 172.498 489.269 172.499 489.263C172.511 489.96 172.484 490.676 172.417 491.404C171.829 497.728 168.355 502.576 164.657 502.233C163.828 502.156 163.058 501.824 162.369 501.285C161.548 498.98 160.758 496.489 159.995 493.782C158.886 489.844 168.909 476.715 171.764 484.557C172.024 485.37 172.221 486.252 172.345 487.185Z" fill="#E7E7E9"/>
<path fill-rule="evenodd" clip-rule="evenodd" d="M530.003 361.78C536.902 376.499 542.353 380.254 545.166 382.193C545.411 382.362 545.636 382.517 545.84 382.664C570.888 400.729 589.692 423.202 598.959 455.131C607.014 455.401 615.356 456.508 624.003 458.28C637.613 461.07 649.878 466.041 662.503 471.939C743.503 509.78 749.503 671.201 616.792 741.673C612.894 743.743 609.117 745.844 606.003 747.781C584.325 764.511 563.325 782.258 546.895 796.143L546.894 796.143C535.091 806.118 525.646 814.099 520.003 818.28C513.503 827.78 500.063 837.72 493.083 842.36C490.667 843.644 488.319 844.971 486.003 846.281C484.162 847.202 482.874 848.468 481.502 849.817C477.66 853.595 473.163 858.017 454.003 857.28C421.453 855.232 393.458 835.251 367.399 816.651L367.398 816.65L367.386 816.642C363.29 813.719 359.243 810.83 355.232 808.05C346.266 801.835 336.871 796.574 327.561 791.361L327.557 791.358C306.207 779.403 285.297 767.695 271.002 745.28C266.157 748.65 261.307 752.09 256.435 755.545C222.437 779.656 187.391 804.51 146.002 811.28C141.902 810.46 137.058 809.927 131.749 809.344C124.113 808.505 115.515 807.559 106.782 805.5C97.2425 803.26 88.4225 801.89 79.3225 805.6C51.5025 813.78 17.0523 811.164 6.68248 783.6C3.58248 775.36 1.04248 765.1 0.222484 756.06C-0.597516 747.02 0.652485 736.61 7.30249 729.59C12.1451 724.478 12.4303 723.993 13.3786 722.379C13.7345 721.773 14.1838 721.008 15.0025 719.78C8.50249 700.78 15.0825 642.36 26.0025 625.78C41.1019 602.854 68.9944 587.787 93.726 574.427C97.5818 572.345 101.361 570.303 105.002 568.28C104.502 550.78 114.002 534.78 123.252 521.53C129.797 512.155 136.855 502.104 145.5 494.259L146.503 493.28L150.003 508.28L149.56 508.699C133.675 524.273 113.159 549.18 121.002 569.28C113.565 572.343 103.065 578.085 97.2066 583.827C96.3697 584.647 95.6275 585.468 95.0025 586.28C114.65 589.188 132.85 597.618 150.002 607.28C157.352 581.313 171.902 558.707 185.186 542.284L185.503 541.78C188.263 542.917 191.078 543.907 194.003 544.78L193.503 545.23C191.45 548.651 188.944 552.663 186.192 557.014C174.522 575.464 158.433 600.902 153.76 621.69C153.092 624.659 152.658 627.534 152.502 630.28L152.534 630.238C171.942 604.158 208.021 574.659 242.003 576.28C265.28 578.482 289.349 596.12 305.246 608.9C307.517 610.726 309.621 612.453 311.533 614.021C317.508 618.924 321.598 622.28 323.003 622.28L325.08 621.381C329.46 619.485 334.321 617.38 339.501 615.152C368.964 602.479 408.737 585.809 428.834 580.779L428.864 580.772C432.698 579.814 435.813 579.28 438.003 579.28C453.367 579.28 461.897 583.061 471.143 587.16L471.144 587.161L471.15 587.163C472.734 587.866 474.339 588.577 476.003 589.28C480.008 533.649 510.5 476.868 563.394 460.088L563.403 460.086C563.683 459.997 563.964 459.909 564.246 459.823C570.521 457.892 577.109 456.521 584.003 455.78L583.985 455.668C580.441 432.691 561.467 405.257 539.503 390.78C535.709 388.28 532.503 384.78 530.003 361.78ZM605.839 732.682C593.66 725.375 571.479 712.066 544.111 699.052C553.139 695.248 559.106 689.191 562.529 685.716L562.532 685.714L562.534 685.711C563.324 684.91 563.978 684.246 564.503 683.78C554.101 675.512 542.845 667.386 532.102 659.63C522.705 652.846 513.701 646.345 506.003 640.28C519.922 645.78 521.503 646.78 535.003 656.78C539.926 660.427 574.503 673.28 585.503 654.78C571.336 641.417 554.503 628.28 536.003 614.28C524.76 608.659 504.943 600.405 487.083 593.629C489.264 566.62 493.977 540.117 503.922 524.2C512.627 508.094 523.079 493.153 538.703 482.98C561.82 466.865 594.05 461.731 624.003 468.387C753.503 502.78 718.003 675.78 605.839 732.682ZM595.297 738.96C589.1 744.38 582.659 749.888 576.106 755.494L576.104 755.495L576.099 755.5C557.327 771.556 537.621 788.41 520.003 806.28C504.721 821.78 491.833 834.29 472.922 843.2C454.023 852.12 426.283 841.6 408.313 831.98C400.886 827.389 394.206 821.87 387.513 816.34C378.605 808.981 369.673 801.601 358.923 796.36C349.091 790.645 340.276 785.254 331.434 779.846C322.36 774.297 313.259 768.731 303.003 762.78C286.796 753.376 283.075 744.556 276.364 728.645C275.152 725.773 273.898 722.922 272.643 720.071L272.642 720.069L272.635 720.053L272.634 720.051C271.967 718.535 271.3 717.019 270.639 715.5C262.058 695.767 254.862 680.126 243.003 660.28C232.738 639.75 193.475 642.148 168.687 643.663C163.29 643.992 158.579 644.28 155.003 644.28C165.857 631.618 177.23 622.526 189.552 612.674C192.159 610.59 194.807 608.473 197.503 606.28C212.933 593.72 238.003 582.28 258.073 592.21C266.643 594.995 286.069 610.185 309.511 628.514C337.162 650.136 370.402 676.127 398.003 691.28L421.222 690.28C455.503 705.78 495.003 736.28 515.503 769.78C516.937 749.22 480.421 709.457 468.48 703.395C479.987 705.796 502.991 710.448 518.503 701.78C521.8 702.32 524.903 702.529 527.819 702.471C554.698 713.792 577.079 725.176 595.297 738.96ZM475.003 622.78C490.503 621.28 507.353 626.94 519.922 635.36C523.058 637.46 525.837 639.581 528.487 641.603L528.489 641.605L528.491 641.606L528.493 641.608L528.495 641.609C538.732 649.422 547.044 655.766 566.503 653.78C564.494 652.074 562.566 650.433 560.71 648.854L560.695 648.841C538.083 629.597 526.286 619.557 511.503 614.28C507.844 612.832 503.733 611.162 499.356 609.385L499.354 609.384C475.018 599.502 442.478 586.289 434.003 589.28C422.024 593.137 410.378 598.121 398.187 603.338C391.66 606.131 384.976 608.99 378.003 611.78C367.003 617.78 356.955 622.876 347.003 626.28C344.006 627.369 340.834 628.19 337.686 629.005C333.984 629.963 330.315 630.913 327.003 632.28C328.119 633.072 329.344 633.945 330.662 634.884L330.676 634.894L330.679 634.896C347.676 647.001 380.181 670.152 395.303 674.92C396.367 674.512 397.438 674.028 398.552 673.525C404.451 670.862 411.533 667.665 424.933 672.35C430.692 674.364 436.514 677.53 442.654 680.869C452.58 686.267 463.337 692.118 476.003 694.28C477.267 694.465 478.59 694.716 479.941 694.973C484.655 695.87 489.728 696.834 494.003 695.28L492.624 694.245C478.857 683.903 448.846 661.359 430.003 649.28C439.003 644.28 462.908 648.78 470.753 654.53C477.184 658.493 483.463 663.721 489.761 668.966C507.702 683.905 525.798 698.973 548.003 685.28C526.003 663.28 499.823 647.72 473.003 634.28C473.147 633.415 473.291 632.301 473.447 631.094L473.448 631.089L473.448 631.084L473.449 631.08C473.834 628.101 474.292 624.557 475.003 622.78ZM141.631 630.008C139.732 639.512 137.577 650.301 134.003 653.28C106.582 659.36 80.5025 668.78 51.0025 689.28C41.0573 695.696 32.0025 702.28 23.0025 710.28C23.0025 707.464 22.9108 704.683 22.8195 701.912C22.6378 696.398 22.4573 690.923 23.0025 685.28C23.0025 671.02 27.0025 653.14 30.9825 640.26C34.9525 627.37 43.7525 616.96 54.7525 610.03C59.5301 607.017 63.4139 603.931 67.0585 601.035C71.7976 597.269 76.1324 593.824 81.5025 591.28C100.47 593.044 122.939 604.148 139.299 612.232L139.301 612.233L139.303 612.235L139.313 612.24C141.492 613.316 143.563 614.34 145.503 615.28C144.088 617.705 142.918 623.561 141.631 630.008ZM222.503 654.78C237.746 675.791 256.722 713.434 266.288 734.427C265.632 734.88 264.976 735.333 264.32 735.786C259.209 739.321 253.983 742.992 248.69 746.709L248.67 746.723C214.591 770.659 177.75 796.534 151.003 800.78C132.528 801.231 113.157 797.379 95.68 793.904C93.7635 793.522 91.8698 793.146 90.0025 792.78C85.0333 793.72 80.1362 794.841 75.3404 795.938L75.3385 795.938L75.337 795.939C62.2795 798.927 49.9725 801.743 39.0025 800.28C16.9965 792.225 8.0025 765.78 13.0025 743.28C17.5025 735.78 22.5249 728.472 28.9225 722.2C62.5025 689.28 102.003 662.28 175.003 661.28C179.781 660.893 184.093 660.705 188.161 660.529L188.163 660.528L188.165 660.528C199.846 660.021 209.524 659.601 222.503 654.78Z" fill="#174174"/>
<path d="M576.106 755.494C582.659 749.888 589.1 744.38 595.297 738.96C577.079 725.176 554.698 713.792 527.82 702.471C524.903 702.528 521.8 702.32 518.503 701.78C502.991 710.448 479.987 705.796 468.481 703.395C480.422 709.457 516.937 749.22 515.503 769.78C495.003 736.28 455.503 705.78 421.223 690.28L398.003 691.28C370.402 676.127 337.162 650.136 309.511 628.514C286.069 610.185 266.643 594.995 258.073 592.21C238.003 582.28 212.933 593.72 197.503 606.28C194.807 608.473 192.159 610.59 189.553 612.674C177.23 622.526 165.857 631.618 155.003 644.28C158.579 644.28 163.29 643.992 168.688 643.663C193.476 642.148 232.738 639.75 243.003 660.28C254.863 680.126 262.058 695.767 270.639 715.5C271.3 717.02 271.968 718.536 272.635 720.053L272.642 720.069L272.643 720.071C273.898 722.922 275.153 725.773 276.364 728.645C283.076 744.556 286.797 753.376 303.003 762.78C313.259 768.731 322.361 774.297 331.434 779.846C340.276 785.254 349.092 790.645 358.923 796.36C369.674 801.601 378.606 808.981 387.513 816.34C394.206 821.87 400.886 827.389 408.313 831.98C426.283 841.6 454.023 852.12 472.923 843.2C491.833 834.29 504.721 821.78 520.003 806.28C537.622 788.41 557.327 771.556 576.099 755.5L576.105 755.495L576.106 755.494Z" fill="white"/>
<path d="M519.923 635.36C507.353 626.94 490.503 621.28 475.003 622.78C474.292 624.557 473.834 628.101 473.449 631.08L473.448 631.084L473.448 631.089L473.447 631.094C473.291 632.301 473.147 633.415 473.003 634.28C499.823 647.72 526.003 663.28 548.003 685.28C525.798 698.973 507.702 683.905 489.762 668.966C483.463 663.721 477.184 658.493 470.753 654.53C462.908 648.78 439.003 644.28 430.003 649.28C448.846 661.359 478.857 683.903 492.625 694.245L494.003 695.28C489.728 696.834 484.656 695.87 479.941 694.973C478.59 694.716 477.268 694.465 476.003 694.28C463.337 692.118 452.58 686.267 442.654 680.869C436.514 677.53 430.692 674.364 424.933 672.35C411.533 667.665 404.451 670.862 398.552 673.525C397.438 674.028 396.367 674.512 395.303 674.92C380.182 670.152 347.676 647.001 330.679 634.896L330.676 634.894L330.663 634.884C329.344 633.945 328.119 633.072 327.003 632.28C330.315 630.913 333.984 629.963 337.686 629.005C340.834 628.19 344.006 627.369 347.003 626.28C356.955 622.876 367.003 617.78 378.003 611.78C384.977 608.99 391.66 606.131 398.187 603.338C410.378 598.121 422.025 593.137 434.003 589.28C442.478 586.289 475.018 599.502 499.355 609.384L499.356 609.385C503.733 611.162 507.845 612.832 511.503 614.28C526.287 619.557 538.083 629.597 560.695 648.841L560.71 648.854C562.566 650.433 564.494 652.074 566.503 653.78C547.045 655.766 538.732 649.422 528.495 641.609L528.494 641.608L528.491 641.606L528.489 641.605L528.488 641.603C525.837 639.581 523.058 637.46 519.923 635.36Z" fill="white"/>
<path d="M141.631 630.008C139.733 639.512 137.578 650.301 134.003 653.28C106.583 659.36 80.5027 668.78 51.0027 689.28C41.0575 695.696 32.0027 702.28 23.0027 710.28C23.0027 707.464 22.9111 704.683 22.8198 701.912C22.638 696.398 22.4576 690.923 23.0027 685.28C23.0027 671.02 27.0027 653.14 30.9827 640.26C34.9527 627.37 43.7527 616.96 54.7527 610.03C59.5304 607.017 63.4141 603.931 67.0587 601.035C71.7978 597.269 76.1326 593.824 81.5027 591.28C100.47 593.044 122.94 604.148 139.299 612.232L139.301 612.233L139.303 612.235L139.313 612.24C141.493 613.316 143.563 614.34 145.503 615.28C144.088 617.705 142.918 623.561 141.631 630.008Z" fill="white"/>
<path d="M266.288 734.427C256.722 713.434 237.746 675.791 222.503 654.78C209.524 659.601 199.846 660.021 188.165 660.528L188.164 660.528C184.095 660.705 179.782 660.893 175.003 661.28C102.003 662.28 62.5027 689.28 28.9227 722.2C22.5251 728.472 17.5027 735.78 13.0027 743.28C8.00274 765.78 16.9967 792.225 39.0027 800.28C49.9727 801.743 62.2798 798.927 75.3372 795.939L75.3387 795.938C80.1352 794.841 85.0329 793.72 90.0027 792.78C91.87 793.146 93.7637 793.522 95.6802 793.904C113.157 797.379 132.529 801.231 151.003 800.78C177.75 796.534 214.591 770.659 248.67 746.723L248.69 746.709C253.983 742.992 259.209 739.321 264.32 735.786C264.976 735.333 265.632 734.88 266.288 734.427Z" fill="white"/>
<path d="M22.8198 701.912C22.9111 704.683 23.0028 707.464 23.0028 710.28C24.9474 708.551 26.8946 706.889 28.8528 705.28C29.0028 692.78 35.0028 644.78 41.5028 636.78C47.0028 626.78 74.0028 602.28 87.0028 592.027C85.1432 591.7 83.3072 591.448 81.5028 591.28C76.1326 593.824 71.7978 597.269 67.0587 601.035C63.4141 603.931 59.5304 607.017 54.7528 610.03C43.7528 616.96 34.9528 627.37 30.9828 640.26C27.0028 653.14 23.0028 671.02 23.0028 685.28C22.4576 690.923 22.638 696.398 22.8198 701.912Z" fill="#D0D1D2"/>
<path d="M41.3494 695.78C44.4892 693.564 47.6968 691.413 51.0028 689.28C60.5028 666.28 91.0028 615.78 111.003 599.237C107.027 597.658 103.002 596.206 99.0028 594.977C93.5028 601.78 45.5028 675.28 41.3494 695.78Z" fill="#D0D1D2"/>
<path d="M308.383 637.335C285.684 621.405 264.173 606.308 248.503 594.78C253.603 599.189 259.839 604.883 267.162 611.571C285.719 628.516 311.258 651.838 343.003 676.78C350.003 682.28 393.503 708.28 414.503 714.78C392.751 696.547 348.693 665.626 308.383 637.335Z" fill="#E7E7E9"/>
<path d="M248.67 698.652C251.792 704.582 254.773 710.449 257.503 715.975C257.503 715.975 45.0027 812.78 19.2458 783.78C12.1088 772.19 9.95353 757.002 13.0027 743.28C17.5406 750.639 22.1748 757.548 41.5027 756.28C101.503 750.28 212.503 718.28 248.67 698.652Z" fill="#E7E7E9"/>
<path d="M134.003 653.28C137.578 650.301 139.733 639.512 141.631 630.008C142.919 623.561 144.088 617.705 145.503 615.28C143.563 614.34 141.493 613.316 139.313 612.24L139.303 612.235L139.301 612.233L139.299 612.232C131.018 608.14 121.169 603.273 111.003 599.237C91.003 615.78 60.503 666.28 51.0029 689.28C76.8154 671.343 100.009 661.888 123.774 655.732C127.169 654.852 130.575 654.04 134.003 653.28Z" fill="#9A9898"/>
<path d="M491.503 724.49C491.503 724.49 537.003 713.78 543.003 717.28C543.817 717.778 544.62 718.264 545.411 718.744L545.42 718.749L545.428 718.754C553.378 723.575 560.277 727.759 568.003 736.28C572.195 740.904 561.413 748.922 547.327 759.398C539.572 765.166 530.815 771.679 523.003 778.78C526.503 787.28 524.504 801.78 524.504 801.78C540.939 785.573 558.91 770.202 576.099 755.5L576.105 755.495C582.659 749.889 589.1 744.38 595.298 738.96C577.079 725.175 554.698 713.792 527.82 702.471C524.904 702.528 521.8 702.32 518.503 701.78C502.992 710.448 479.987 705.796 468.481 703.395C473.423 705.904 482.575 714.186 491.503 724.49Z" fill="#9A9898"/>
<path d="M519.923 635.36C507.353 626.94 490.503 621.28 475.003 622.78C474.832 623.207 474.676 623.737 474.532 624.336C453.176 626.996 465.077 641.81 475.313 645.97C498.003 656.78 515.757 670.409 531.003 686.28C528.823 687.152 519.801 686.883 514.211 686.469C505.797 682.318 497.763 675.629 489.761 668.966L489.76 668.965C483.462 663.721 477.184 658.492 470.753 654.53C462.908 648.78 439.003 644.28 430.003 649.28C430.432 649.555 430.866 649.835 431.306 650.121C429.713 650.766 428.253 651.634 427.003 652.78C427.003 655.765 467.606 688.757 477.362 694.498C476.903 694.419 476.449 694.345 476.003 694.28C463.337 692.118 452.58 686.267 442.654 680.869C436.514 677.53 430.692 674.364 424.933 672.35C411.533 667.665 404.451 670.862 398.552 673.525C397.438 674.028 396.367 674.512 395.303 674.92C380.182 670.152 347.677 647.001 330.68 634.896L330.677 634.894L330.669 634.888L330.668 634.887L330.646 634.872L330.644 634.87L330.628 634.859C329.323 633.929 328.109 633.065 327.003 632.28C330.315 630.913 333.984 629.963 337.686 629.005C340.54 628.266 343.414 627.523 346.159 626.579C350.115 628.596 354.231 630.896 358.501 633.282L358.503 633.282C372.828 641.288 388.891 650.264 406.503 652.78C434.969 642.86 448.925 628.847 459.925 617.803L459.927 617.801C461.678 616.043 463.355 614.359 465.003 612.78C467.063 613.123 469.46 613.499 472.097 613.912C488.664 616.507 514.741 620.591 526.693 627.59C540.935 638.031 548.198 644.959 554.224 650.707L554.228 650.71C555.463 651.889 556.647 653.018 557.828 654.117C544.287 653.661 537.066 648.15 528.495 641.609C525.843 639.585 523.061 637.462 519.923 635.36Z" fill="#C4C3C3"/>
<path d="M472.923 843.2C491.833 834.29 504.721 821.78 520.003 806.28C521.489 804.773 522.99 803.273 524.504 801.78C524.504 801.78 526.503 787.28 523.003 778.78C530.814 771.679 539.571 765.166 547.326 759.399L547.327 759.398C561.413 748.922 572.195 740.904 568.003 736.28C560.277 727.759 553.378 723.575 545.428 718.754C544.631 718.271 543.823 717.781 543.003 717.28C537.003 713.78 491.503 724.49 491.503 724.49C504.147 739.082 516.344 757.729 515.503 769.78C495.003 736.28 455.503 705.78 421.223 690.28L403.003 691.065C451.003 707.78 489.003 806.78 464.503 795.28C427.003 779.28 353.503 726.78 304.503 688.28C326.793 739.866 391.266 778.068 431.406 801.851C454.293 815.412 469.268 824.286 464.003 828.28C429.309 856.469 336.871 770.28 272.003 670.28C242.445 631.808 225.214 621.775 218.657 617.958C218.227 617.707 217.842 617.483 217.503 617.28C207.503 611.28 188.003 627.28 173.503 643.374C198.278 641.938 233.381 641.036 243.003 660.28C254.863 680.126 262.059 695.767 270.639 715.499C271.298 717.013 271.962 718.524 272.627 720.035L272.63 720.042L272.633 720.047L272.635 720.052L272.635 720.053L272.642 720.069L272.643 720.071C273.898 722.922 275.153 725.773 276.364 728.645C283.076 744.556 286.797 753.376 303.003 762.78C313.259 768.731 322.361 774.297 331.434 779.846C340.276 785.254 349.092 790.645 358.923 796.36C369.674 801.601 378.606 808.981 387.513 816.34C394.206 821.87 400.886 827.389 408.313 831.98C426.283 841.6 454.023 852.12 472.923 843.2Z" fill="#C4C3C3"/>
<path d="M266.288 734.427C265.632 734.88 264.976 735.333 264.32 735.786C259.21 739.321 253.985 742.991 248.692 746.708L248.69 746.709L248.67 746.723C214.591 770.659 177.75 796.534 151.003 800.78C132.529 801.231 113.157 797.379 95.6804 793.904L95.6716 793.902C94.7769 793.724 93.8873 793.547 93.0029 793.372L261.302 723.78C263.152 727.638 264.83 731.226 266.288 734.427Z" fill="#C4C3C3"/>
<path d="M471.144 587.16C472.73 587.863 474.337 588.576 476.003 589.28C480.503 526.78 518.433 462.83 584.003 455.78C580.503 432.78 561.503 405.28 539.503 390.78C524.503 423.28 489.003 474.584 442.503 502.28C397.423 529.13 357.503 544.28 307.503 549.78L296.503 485.28C296.03 485.979 295.56 486.673 295.094 487.362C263.5 534.043 246.224 559.528 193.503 545.24C191.45 548.661 188.944 552.663 186.192 557.014C172.856 578.1 153.746 608.313 152.503 630.28C171.904 604.189 208.003 574.658 242.003 576.28C268.606 578.797 296.243 601.474 311.533 614.021C317.508 618.924 321.598 622.28 323.003 622.28C323.683 621.986 324.375 621.686 325.081 621.381C359.14 606.635 422.328 579.28 438.003 579.28C453.367 579.28 461.898 583.061 471.144 587.16Z" fill="#ED1F23"/>
<path d="M544.111 699.052C571.48 712.066 593.66 725.375 605.84 732.682C718.003 675.78 753.503 502.78 624.003 468.387C594.051 461.731 561.821 466.865 538.703 482.98C523.08 493.153 512.628 508.094 503.923 524.2C493.977 540.117 489.265 566.62 487.084 593.629C504.943 600.405 524.761 608.659 536.003 614.28C554.503 628.28 571.337 641.417 585.503 654.78C574.503 673.28 539.927 660.427 535.003 656.78C521.503 646.78 519.923 645.78 506.003 640.28C513.701 646.345 522.706 652.846 532.102 659.63C542.845 667.386 554.101 675.512 564.503 683.78C563.978 684.247 563.324 684.91 562.534 685.712L562.532 685.714L562.53 685.716C559.107 689.191 553.139 695.248 544.111 699.052Z" fill="#ED1F23"/>
<path d="M149.56 508.699C133.675 524.273 113.159 549.18 121.003 569.28C112.503 572.78 100.003 579.78 95.0029 586.28C114.65 589.188 132.851 597.618 150.003 607.28C157.352 581.313 171.902 558.707 185.186 542.284C169.211 535.701 156.255 524.652 149.56 508.699Z" fill="#ED1F23"/>
<path d="M670.257 533.28C685.503 568.78 673.003 623.28 658.003 660.78C711.003 584.28 694.503 548.78 670.257 533.28Z" fill="#F19B9B"/>
<path d="M577.937 436.318C538.492 458.79 528.472 468.091 512.753 483.03C492.84 501.994 478.753 522.78 465.233 548.51C464.874 549.14 464.482 549.874 464.057 550.668C461.139 556.122 456.677 564.462 451.003 562.28C450.255 561.79 449.561 561.328 448.912 560.895C445.7 558.755 443.564 557.331 441.223 556.788C436.573 555.71 431.116 558.111 414.816 565.283C408.819 567.921 401.355 571.206 391.923 575.2C384.962 578.221 378.325 581.178 371.866 584.055L371.862 584.057C358.912 589.827 346.68 595.276 334.003 600.28C317.503 587.78 324.873 581.41 338.003 581.28C347.503 580.28 361.003 576.78 373.073 572.35C423.003 552.78 467.003 518.28 501.753 483.03C527.908 458.868 542.894 440.414 564.269 414.068C569.769 421.09 574.455 428.69 577.937 436.318Z" fill="#EB7070"/>
<path d="M605.84 732.682C605.967 732.618 606.094 732.553 606.22 732.489C606.335 732.43 606.45 732.371 606.564 732.312C624.617 701.062 640.888 658.381 648.944 637.248C650.157 634.066 651.184 631.372 652.003 629.28C660.219 608.28 665.003 548.28 652.003 516.28C637.644 489.469 597.16 465.479 565.694 470.172C565.438 470.248 565.183 470.325 564.928 470.403C561.658 475.815 557.834 481.626 553.777 487.792C536.1 514.653 514.003 548.232 514.003 584.78C513.503 587.78 524.003 601.28 534.503 613.28C534.681 613.409 534.859 613.539 535.037 613.669C535.222 613.804 535.406 613.939 535.591 614.075C535.73 614.143 535.867 614.212 536.003 614.28C553.411 627.454 569.344 639.863 582.967 652.416C583.314 652.706 583.659 652.994 584.003 653.28C584.317 653.577 584.587 653.788 584.818 653.969C585.515 654.515 585.86 654.786 586.003 656.28C586.513 661.64 578.703 668.18 573.773 670.05C568.843 671.92 556.903 674.59 551.003 673.28L551.055 673.461C555.621 676.864 560.137 680.31 564.503 683.78C563.978 684.247 563.323 684.911 562.533 685.713L562.531 685.715L562.53 685.716C560.992 687.277 558.942 689.358 556.331 691.522C558.279 698.101 560.249 704.625 561.248 707.554C580.69 717.592 596.32 726.97 605.84 732.682Z" fill="#EB7070"/>
<path d="M185.186 542.284C171.902 558.707 157.352 581.313 150.003 607.28C137.601 600.294 124.651 593.952 111.003 589.876C115.418 587.228 119.298 585.019 122.783 583.034C129.955 578.95 135.456 575.818 140.503 571.78L140.743 571.449C151.103 557.142 157.63 548.129 167.759 532.28C172.954 536.34 178.832 539.665 185.186 542.284Z" fill="#EB7070"/>
<path d="M275.93 514.718C258.638 537.526 242.69 550.512 215.998 549.143C199.714 561.328 180.503 575.78 177.003 599.28C206.503 579.78 243.103 563.01 274.503 583.28C271.663 576.4 263.413 552.6 274.923 556.36C283.298 561.59 287.913 566.581 292.475 571.513C293.948 573.106 295.416 574.693 297.003 576.28C296.003 558.78 284.003 525.78 275.93 514.718Z" fill="#EB7070"/>
<path d="M463.003 508.78C488.96 492.058 529.993 441.209 553.886 402.47C550.699 399.362 547.365 396.482 543.932 393.903C517.973 439.318 501.471 460.309 466.753 492.03C428.348 522.623 378.834 535.704 328.178 549.086L328.174 549.087C320.465 551.123 312.73 553.167 305.003 555.28C302.761 543.433 299.657 531.814 296.551 520.188C294.292 511.734 292.032 503.275 290.102 494.722C287.722 498.218 285.415 501.576 283.155 504.787L301.003 564.28C347.503 555.28 432.503 530.78 463.003 508.78Z" fill="white"/>
<path d="M104.104 578.335C108.022 575.679 112.448 573.229 116.496 571.292C129.968 571.75 148.369 579.667 158.335 584.889C156.658 588.531 155.092 592.272 153.666 596.102C146.427 590.446 126.249 579.601 104.104 578.335Z" fill="white"/>
<path d="M555.737 692.008C568.94 696.156 612.729 715.334 622.832 722.815C627.27 719.894 631.559 716.786 635.694 713.51C626.808 708.665 580.326 686.936 564.191 684.065C563.726 684.502 563.176 685.061 562.536 685.71L562.532 685.714L562.53 685.716L562.53 685.717C560.878 687.394 558.633 689.672 555.737 692.008Z" fill="white"/>
</g>
<defs>
<clipPath id="clip0_29_3821">
<rect width="898" height="858" fill="white"/>
</clipPath>
</defs>
</svg>
