<svg width="898" height="858" viewBox="0 0 898 858" fill="none" xmlns="http://www.w3.org/2000/svg">
<g clip-path="url(#clip0_29_3798)">
<path fill-rule="evenodd" clip-rule="evenodd" d="M291.45 162.051C332.241 143.937 370.537 129.999 406.423 119.572C415.13 131.059 424.265 141.133 433.837 149.934C445.974 150.236 458.396 150.956 471.019 152.1C454.959 142.143 439.86 129.658 426.075 114.145C577.649 74.5061 684.297 98.4154 752.848 131.846C692.453 87.3109 580.364 51.4875 413.977 83.5233C418.762 76.5112 438.548 47.969 453.399 33.2909L460.724 67.4412C460.724 67.4412 460.306 79.0565 474.185 67.3125L512.368 18.893C512.368 18.893 703.508 -15.3051 815.979 162.834C798.585 164.725 778.704 168.072 757.17 171.699C753.096 172.385 748.962 173.081 744.775 173.779C750.775 177.999 756.809 182.515 762.845 187.345C767.473 186.652 772.137 185.951 776.837 185.245L776.841 185.245C797.436 182.151 818.729 178.953 840.735 175.875C840.735 175.875 748.055 -23.7659 507.338 3.0724L472.689 47.3662L464.304 6.8476C464.304 6.8476 426.686 24.9512 393.225 87.8128C363.073 94.4669 331.227 103.31 297.672 114.668L291.45 162.051ZM512.045 193.739C511.98 193.43 511.917 193.121 511.857 192.813C510.593 192.719 509.329 192.628 508.066 192.541C509.386 192.953 510.713 193.352 512.045 193.739Z" fill="#174174"/>
<path fill-rule="evenodd" clip-rule="evenodd" d="M752.849 131.846C692.454 87.3108 580.364 51.4873 413.978 83.5232C418.763 76.5111 438.549 47.9688 453.399 33.2907L460.725 67.441C460.725 67.441 460.307 79.0563 474.185 67.3123L512.369 18.8929C512.369 18.8929 703.508 -15.3053 815.979 162.834C798.585 164.724 778.704 168.072 757.17 171.698C753.096 172.385 748.962 173.081 744.775 173.779C673.301 123.5 606.743 115.061 601.99 115.437L577.497 131.631L580.705 117.612C577.988 105.678 566.878 109.409 555.92 115.112C530.46 133.365 517.702 146.452 511.914 157.199C498.124 155.016 484.459 153.318 471.02 152.101C454.96 142.143 439.861 129.658 426.076 114.145C577.649 74.506 684.297 98.4152 752.849 131.846Z" fill="white"/>
<path d="M512.381 18.8908C514.12 18.584 692.581 -12.4686 805.478 147.122C782.277 120.712 653.497 -11.0674 461.772 75.95C446.371 77.8483 430.44 80.3537 413.978 83.5233C418.165 77.3877 433.837 54.7681 447.638 39.3759C449.609 37.1771 451.543 35.1257 453.399 33.291L460.725 67.4412C460.725 67.4412 460.698 68.1672 460.876 69.0726C461.365 71.5625 463.395 75.4098 471.747 69.2493C472.506 68.6892 473.318 68.0465 474.185 67.3125L512.361 18.9025L512.369 18.8936C512.369 18.8936 512.373 18.8927 512.381 18.8908Z" fill="#A6B1B8"/>
<path fill-rule="evenodd" clip-rule="evenodd" d="M296.21 170.352C296.21 170.352 334.833 189.653 344.004 200.5C398.407 192.218 455.01 188.546 511.865 192.793C513.376 200.543 516.534 208.478 521.104 216.514C526.105 213.847 531.399 211.872 536.702 210.386C533.33 204.944 530.767 199.662 529.11 194.593L529.122 194.329C637.102 205.498 745.274 246.413 840.295 339.726C774.721 241.453 649.774 182.926 530.577 160.417L530.609 159.659C530.609 159.659 542.867 141.447 560.238 132.121L553.605 149.701C553.605 149.701 549.398 168.183 571.572 154.769L605.439 132.73C605.439 132.73 796.213 149.012 879.467 387.488C857.972 387.902 831.838 383.303 803.618 375.087C807.473 381.458 811.212 388.016 814.813 394.759C847.217 403.535 874.146 406.844 890.052 402.65C890.052 402.65 899.603 403.817 896.662 391.755C819.405 142.631 610.554 114.741 601.997 115.417L577.504 131.611L580.713 117.592C577.995 105.658 566.886 109.389 555.928 115.092C530.467 133.345 517.709 146.432 511.921 157.179C427.496 143.812 347.726 148.653 296.21 170.352ZM565.978 244.659C565.818 244.508 565.659 244.357 565.5 244.207C565.308 244.527 565.113 244.853 564.915 245.184C565.254 245.016 565.609 244.841 565.978 244.659Z" fill="#174174"/>
<path fill-rule="evenodd" clip-rule="evenodd" d="M840.295 339.726C774.721 241.453 649.774 182.926 530.577 160.417L530.609 159.658C530.609 159.658 542.867 141.447 560.238 132.121L553.605 149.701C553.605 149.701 549.398 168.183 571.572 154.769L605.439 132.729C605.439 132.729 796.213 149.012 879.467 387.488C857.972 387.902 831.838 383.303 803.618 375.087C739.976 269.897 644.791 215.629 615.26 220.291C605.714 225.091 590.465 232.597 578.407 238.534L578.403 238.535L578.348 238.562L578.3 238.586C573.49 240.954 569.194 243.069 565.978 244.659C565.818 244.508 565.659 244.357 565.5 244.207C566.34 242.803 567.121 241.499 567.849 240.284L567.856 240.272C577.013 224.986 577.715 223.815 581.082 215.999C581.843 206.595 576.941 203.805 569.086 205.508L568.546 205.55C559.835 206.238 548.246 207.152 536.702 210.386C533.33 204.944 530.767 199.662 529.11 194.593L529.122 194.329C637.102 205.498 745.274 246.413 840.295 339.726Z" fill="white"/>
<path d="M611.161 181.121C584.503 172.368 557.395 165.481 530.577 160.417L530.61 159.658C530.61 159.658 542.867 141.447 560.238 132.121L553.605 149.701L553.605 149.703C553.56 149.902 550.178 165.182 566.565 157.485C568.055 156.84 569.717 155.951 571.57 154.77L571.573 154.769L605.404 132.752C605.418 132.753 605.432 132.753 605.446 132.753C605.54 132.754 605.638 132.756 605.74 132.758C613.244 133.505 759.541 150.124 849.047 317.626C824.951 283.11 750.062 192.901 620.376 183.842C620.376 183.842 616.88 182.79 611.161 181.121Z" fill="#A6B1B8"/>
<path d="M750.918 516.767C749.972 514.291 749 511.822 748.003 509.36L746.613 509.923C745.395 506.917 744.14 503.922 742.847 500.939L744.223 500.343C743.378 498.392 742.516 496.446 741.639 494.507L740.366 495.082C739.902 494.054 739.434 493.028 738.961 492.004L738.866 492.049C737.504 489.104 736.106 486.173 734.673 483.26L736.019 482.598C734.581 479.674 733.108 476.766 731.6 473.878L730.27 474.572C728.767 471.693 727.23 468.833 725.659 465.993L726.971 465.267C725.393 462.415 723.781 459.583 722.137 456.775L720.842 457.533C719.199 454.728 717.524 451.946 715.816 449.188L717.091 448.399C715.372 445.624 713.621 442.874 711.839 440.152L710.584 440.973C708.802 438.253 706.99 435.561 705.147 432.898L706.38 432.044C704.523 429.361 702.634 426.708 700.716 424.087L699.505 424.973C697.582 422.345 695.629 419.75 693.646 417.189L694.832 416.271C692.831 413.686 690.799 411.136 688.738 408.623L687.578 409.574C685.515 407.058 683.422 404.579 681.302 402.14L682.434 401.156C680.29 398.69 678.117 396.265 675.917 393.883L674.815 394.901C672.604 392.507 670.366 390.157 668.1 387.853L669.17 386.801C666.874 384.466 664.55 382.178 662.2 379.939L661.165 381.025C660.127 380.036 659.084 379.057 658.035 378.087C657.18 378.075 655.796 378.126 654.001 378.243L653.903 376.746C651.307 376.914 647.986 377.21 644.431 377.604L644.596 379.095C641.537 379.433 638.307 379.844 635.222 380.309L634.999 378.825C631.565 379.343 628.305 379.926 625.649 380.55L625.993 382.01C624.158 382.441 622.687 382.876 621.681 383.297L617.156 385.19L619.848 381.09C619.864 381.066 619.88 381.042 619.896 381.016L621.034 381.75L620.901 381.431L619.994 380.862L620.044 380.783L620.304 380.363L620.604 380.244L620.473 380.078L620.977 379.201C621.051 379.071 621.128 378.937 621.207 378.799L621.264 378.698L622.567 379.441C622.749 379.122 622.941 378.783 623.143 378.426L621.838 377.688L622.125 377.18L622.127 377.176C623.084 375.484 624.247 373.429 625.546 371.228L626.838 371.991C629.046 368.252 631.65 364.094 634.334 360.555L633.139 359.648C634.58 357.748 636.067 355.991 637.554 354.549C637.98 353.464 638.238 352.525 638.373 351.716L639.853 351.963C640.43 348.512 639.137 346.61 637.637 345.557L636.775 346.785C635.733 346.053 634.524 345.829 634.049 345.745L634.007 345.737L634.271 344.261C634.239 344.255 634.212 344.25 634.192 344.246L633.892 345.716C633.876 345.712 633.804 345.698 633.72 345.673C632.054 345.171 630.399 344.722 628.754 344.324L629.106 342.866C625.635 342.027 622.209 341.41 618.835 340.992L618.651 342.481C615.175 342.051 611.756 341.836 608.404 341.811L608.415 340.311C604.861 340.285 601.38 340.469 597.984 340.834L598.144 342.326C594.671 342.699 591.287 343.265 588.003 343.991L587.679 342.526C586.207 342.852 584.755 343.209 583.324 343.595L583.652 344.809C582.421 345.142 581.206 345.497 580.007 345.872L578.919 346.212L578.3 345.255C578.271 345.211 578.242 345.166 578.214 345.122C578.014 345.188 577.815 345.254 577.616 345.32L578.092 346.743C574.759 347.859 571.561 349.125 568.512 350.501L567.895 349.133C564.616 350.613 561.51 352.216 558.593 353.892L559.341 355.192C557.822 356.066 556.355 356.959 554.944 357.865L554.029 358.453L553.186 357.766C551.934 356.746 550.681 355.735 549.428 354.733L550.364 353.561C547.827 351.532 545.285 349.541 542.742 347.588L541.828 348.778C539.259 346.805 536.687 344.871 534.116 342.979L535.005 341.771C532.386 339.844 529.767 337.959 527.15 336.119L526.287 337.346C523.632 335.479 520.979 333.658 518.33 331.885L519.164 330.638C516.456 328.825 513.751 327.062 511.053 325.35L510.25 326.617C507.506 324.876 504.769 323.19 502.042 321.559L502.811 320.272C500.009 318.596 497.215 316.979 494.433 315.424L493.701 316.733C490.861 315.144 488.034 313.62 485.223 312.162L485.913 310.83C483.006 309.323 480.116 307.887 477.244 306.523L476.6 307.878C473.655 306.48 470.73 305.159 467.83 303.919L468.419 302.54C465.399 301.248 462.403 300.043 459.435 298.928L458.908 300.332C455.85 299.183 452.825 298.131 449.835 297.178L450.291 295.749C447.152 294.749 444.05 293.857 440.99 293.079L440.62 294.532C437.453 293.726 434.333 293.043 431.267 292.487L431.535 291.011C428.281 290.421 425.083 289.972 421.948 289.669L421.804 291.162C420.791 291.064 419.785 290.982 418.786 290.915L419.015 293.319L417.521 293.461L418.308 301.75L419.801 301.608L420.588 309.897L419.095 310.038L419.881 318.327L421.374 318.185L421.702 321.641L422.291 322.054L421.429 323.282L423.738 324.902L424.6 323.674L425.552 324.342C427.066 324.787 428.581 325.245 430.096 325.717L429.65 327.149C432.798 328.13 435.946 329.168 439.093 330.263L439.586 328.846C442.715 329.935 445.843 331.079 448.969 332.276L448.432 333.677C451.511 334.856 454.588 336.089 457.661 337.371L458.239 335.987C461.296 337.263 464.35 338.59 467.398 339.964L466.781 341.332C469.789 342.688 472.792 344.092 475.79 345.542L476.443 344.192C479.425 345.634 482.401 347.122 485.37 348.654L484.682 349.987C487.616 351.501 490.542 353.058 493.46 354.656L494.181 353.34C497.088 354.933 499.987 356.566 502.876 358.239L502.124 359.537C504.982 361.192 507.831 362.886 510.669 364.618L511.451 363.337C514.281 365.064 517.101 366.828 519.909 368.628L519.099 369.89C521.882 371.674 524.653 373.493 527.412 375.346L528.248 374.101C529.627 375.026 531.002 375.961 532.374 376.904L533.435 377.632L532.876 378.791C532.859 378.825 532.843 378.859 532.828 378.892L531.471 378.253C531.434 378.331 531.399 378.407 531.365 378.482L532.096 378.809C532.763 378.989 532.763 378.989 532.763 378.989L532.762 378.991L532.759 379.003L532.745 379.055C532.742 379.067 532.739 379.08 532.735 379.094C532.735 379.094 532.735 379.094 532.735 379.095M750.918 516.767L561.449 495.237L561.424 495.162C561.425 495.165 561.426 495.165 561.425 495.161C561.425 495.16 561.424 495.157 561.424 495.154C561.417 495.123 561.395 495.012 561.367 494.782C561.334 494.51 561.301 494.148 561.27 493.696C561.209 492.794 561.156 491.591 561.113 490.154L559.613 490.199C559.524 487.254 559.473 483.397 559.446 479.267L560.946 479.257C560.923 475.685 560.919 471.906 560.924 468.335L559.424 468.333C559.43 464.191 559.449 460.331 559.468 457.399L560.968 457.408C560.978 455.75 560.989 454.389 560.997 453.442C561 452.969 561.004 452.599 561.006 452.348L561.008 452.062L561.009 451.989L561.009 451.971L561.009 451.966V451.965V451.965L561.064 446.235L558.209 451.203L555.203 456.434L556.503 457.181L550.491 467.642L549.19 466.895L546.376 471.792C545.659 472.212 545.004 472.487 544.409 472.656L544.821 474.099C542.413 474.786 540.505 474.152 539.18 473.32L539.978 472.05C539.412 471.694 538.972 471.289 538.675 470.973C538.527 470.816 538.418 470.685 538.35 470.598C538.349 470.596 538.347 470.594 538.346 470.592C537.767 469.207 537.219 467.818 536.7 466.427L535.295 466.951C534.182 463.966 533.203 460.972 532.346 457.985L533.787 457.571C532.917 454.541 532.173 451.516 531.541 448.514L530.074 448.823C529.415 445.693 528.876 442.589 528.443 439.528L529.928 439.318C529.483 436.171 529.149 433.071 528.911 430.037L527.415 430.154C527.161 426.926 527.013 423.772 526.951 420.718L528.451 420.687C528.384 417.45 528.415 414.325 528.518 411.34L527.019 411.288C527.134 407.963 527.337 404.812 527.594 401.873L529.089 402.004C529.388 398.587 529.762 395.46 530.156 392.687L528.671 392.476C529.212 388.668 529.79 385.519 530.267 383.188M750.918 516.767L749.6 517.269C749.815 517.833 750.028 518.396 750.24 518.96L750.157 518.991C751.304 522.034 752.411 525.084 753.478 528.141L754.894 527.647C755.971 530.733 757.006 533.826 758 536.922L756.572 537.381C757.567 540.481 758.52 543.585 759.429 546.692L760.869 546.27C761.787 549.407 762.662 552.545 763.492 555.683L762.042 556.067C762.874 559.212 763.66 562.357 764.401 565.5L765.861 565.156C766.613 568.344 767.317 571.53 767.973 574.712L766.504 575.015C767.163 578.208 767.773 581.397 768.333 584.579L769.811 584.318C770.379 587.543 770.896 590.761 771.361 593.968L769.877 594.184C770.344 597.407 770.759 600.621 771.12 603.822L772.611 603.654C772.978 606.909 773.291 610.152 773.547 613.379L772.051 613.497C772.309 616.753 772.51 619.992 772.651 623.213L774.15 623.147C774.294 626.426 774.378 629.686 774.4 632.924L772.9 632.934C772.922 636.196 772.881 639.435 772.775 642.649L774.275 642.698C774.167 645.977 773.993 649.23 773.751 652.453L772.255 652.341C772.011 655.59 771.698 658.809 771.315 661.993L772.804 662.173C772.411 665.429 771.946 668.652 771.405 671.836L769.926 671.585C769.38 674.801 768.757 677.976 768.057 681.109L769.52 681.436C768.803 684.642 768.005 687.804 767.123 690.917L765.68 690.509C764.794 693.639 763.823 696.72 762.767 699.747L764.183 700.241C763.103 703.337 761.934 706.379 760.673 709.362L759.291 708.778C758.03 711.765 756.676 714.691 755.23 717.553L756.568 718.23C755.093 721.148 753.521 724.001 751.852 726.785L750.565 726.014C749.737 727.395 748.884 728.758 748.007 730.104C747.237 731.284 746.517 732.144 745.859 732.76L746.884 733.855C744.095 736.466 741.716 735.841 740.063 734.619L740.955 733.413C740.334 732.953 739.817 732.367 739.445 731.871C739.263 731.628 739.124 731.418 739.033 731.272C738.987 731.199 738.954 731.143 738.934 731.108C738.924 731.091 738.917 731.078 738.913 731.072L738.913 731.071L738.913 731.071L738.912 731.07L738.912 731.069L738.911 731.068L738.911 731.067L738.786 730.838L738.588 730.662C737.273 729.5 735.947 728.312 734.611 727.099L733.603 728.21C731.012 725.857 728.387 723.416 725.746 720.909L726.778 719.821C724.225 717.398 721.654 714.912 719.082 712.384L718.031 713.454C715.495 710.963 712.958 708.431 710.434 705.879L711.5 704.824C708.988 702.285 706.489 699.725 704.016 697.163L702.937 698.205C700.435 695.614 697.96 693.021 695.526 690.448L696.616 689.417C694.126 686.784 691.679 684.17 689.29 681.596L688.191 682.617C685.698 679.932 683.27 677.291 680.922 674.719L682.03 673.708C679.532 670.971 677.126 668.312 674.832 665.759L673.716 666.762C671.195 663.956 668.81 661.28 666.59 658.771L667.713 657.777C665.115 654.842 662.741 652.137 660.637 649.724L659.507 650.71C656.625 647.404 654.247 644.646 652.489 642.594L653.628 641.618C652.512 640.316 651.646 639.299 651.06 638.607C650.854 638.366 650.684 638.164 650.548 638.004L650.754 634.036L649.256 633.958L649.729 624.837L651.227 624.915L651.701 615.794L650.203 615.716L650.676 606.595L652.174 606.673L652.648 597.552L651.15 597.474L651.623 588.353L653.121 588.431L653.594 579.31L652.096 579.232L652.57 570.111L654.068 570.189L654.541 561.068L653.043 560.99L653.517 551.869L655.015 551.947L655.251 547.387L655.484 542.912L652.604 546.345C651.459 547.71 650.38 549.073 649.364 550.431L650.566 551.33C648.413 554.208 646.548 557.062 644.933 559.866L643.633 559.117C641.796 562.308 640.277 565.436 639.025 568.465L640.411 569.038C639.012 572.419 637.954 575.67 637.16 578.737L635.707 578.361C634.744 582.08 634.161 585.536 633.83 588.634L635.322 588.794C634.879 592.94 634.898 596.426 635.055 599.018L633.558 599.109C633.658 600.768 633.814 602.078 633.947 602.98C634.013 603.431 634.074 603.781 634.119 604.022C634.125 604.058 634.132 604.091 634.138 604.122C633.96 605.231 633.711 606.093 633.428 606.76L634.809 607.346C633.512 610.403 631.31 610.783 629.484 610.434L629.765 608.961C629.091 608.832 628.454 608.57 627.97 608.326C627.732 608.205 627.541 608.095 627.414 608.017C627.41 608.015 627.407 608.013 627.404 608.011C626.449 606.83 625.507 605.657 624.579 604.492L623.406 605.427C621.403 602.913 619.462 600.435 617.58 597.995L618.768 597.079C616.81 594.539 614.917 592.04 613.087 589.583L611.884 590.479C609.953 587.887 608.092 585.341 606.299 582.841L607.518 581.967C605.634 579.342 603.825 576.769 602.089 574.249L600.854 575.101C599.018 572.437 597.262 569.833 595.582 567.289L596.834 566.462C595.042 563.748 593.337 561.102 591.717 558.527L590.447 559.326C588.711 556.569 587.071 553.891 585.521 551.296L586.808 550.526C585.126 547.71 583.55 544.99 582.076 542.371L580.768 543.107C579.142 540.218 577.637 537.449 576.245 534.804L577.573 534.105C576.021 531.156 574.611 528.362 573.331 525.728L571.981 526.383C570.485 523.303 569.164 520.439 568.001 517.797L569.374 517.193C567.95 513.961 566.765 511.067 565.784 508.525L564.385 509.065C562.949 505.348 561.943 502.369 561.26 500.171L562.693 499.725C562.234 498.25 561.925 497.137 561.732 496.397C561.635 496.027 561.567 495.751 561.525 495.57C561.503 495.48 561.488 495.413 561.478 495.37L561.468 495.324L561.466 495.315L561.466 495.315L561.466 495.314L561.466 495.314L750.918 516.767ZM532.735 379.095C532.733 379.099 532.731 379.103 532.729 379.107C532.716 379.137 532.703 379.166 532.691 379.195L531.315 378.598C531.315 378.598 530.872 380.236 530.267 383.188M532.735 379.095C532.723 379.139 532.708 379.198 532.689 379.271C532.64 379.463 532.568 379.753 532.477 380.135C532.294 380.898 532.035 382.03 531.737 383.489L530.267 383.188M532.735 379.095L530.267 383.188M369.987 231.837C367.413 228.635 364.992 225.724 363.14 223.528L364.287 222.561C363.657 221.813 363.092 221.148 362.61 220.583C363.352 220.496 364.098 220.413 364.846 220.334L364.689 218.842C368.015 218.491 371.392 218.218 374.816 218.021L374.902 219.519C378.219 219.328 381.582 219.208 384.987 219.159L384.965 217.66C388.314 217.612 391.701 217.631 395.126 217.717L395.088 219.217C398.418 219.3 401.784 219.446 405.183 219.654L405.274 218.157C408.62 218.362 411.996 218.626 415.401 218.948L415.259 220.442C418.584 220.756 421.936 221.127 425.313 221.552L425.501 220.063C428.831 220.482 432.185 220.954 435.561 221.478L435.331 222.96C438.636 223.472 441.962 224.034 445.307 224.645L445.576 223.169C448.882 223.773 452.206 224.423 455.546 225.12L455.239 226.589C458.519 227.273 461.815 228.002 465.124 228.775L465.465 227.315C468.742 228.08 472.031 228.888 475.332 229.738L474.958 231.191C478.208 232.027 481.468 232.904 484.738 233.821L485.143 232.377C488.386 233.287 491.638 234.235 494.897 235.221L494.463 236.657C496.074 237.145 497.688 237.642 499.303 238.149L500.447 238.507L501.049 237.471C501.867 236.063 502.735 234.725 503.648 233.451L502.429 232.577C504.399 229.831 506.575 227.376 508.912 225.18L509.939 226.273C512.298 224.056 514.829 222.107 517.484 220.392L516.67 219.132C519.45 217.335 522.357 215.791 525.335 214.461L525.947 215.83C528.906 214.508 531.943 213.399 535.004 212.462L534.565 211.028C537.752 210.052 540.957 209.264 544.116 208.619L544.416 210.089C547.687 209.421 550.915 208.907 554.03 208.498L553.834 207.011C557.277 206.558 560.576 206.233 563.637 205.968L563.767 207.462C565.474 207.315 567.108 207.186 568.657 207.063L568.539 205.568L568.657 207.063L568.792 207.053L568.674 205.557L568.944 205.536L569.062 207.031L569.197 207.021L569.298 207.013L569.397 206.991C571.105 206.621 572.606 206.489 573.885 206.585L573.997 205.089C577.598 205.359 580.049 207.228 580.859 211.083L579.392 211.391C579.634 212.545 579.718 213.954 579.598 215.653C578.541 218.103 577.756 219.871 576.875 221.651L578.219 222.317C576.747 225.289 575.004 228.313 571.405 234.347L570.116 233.579C569.096 235.289 567.927 237.241 566.571 239.504L566.562 239.519L565.826 240.747L567.113 241.518C566.858 241.943 566.597 242.379 566.33 242.826C565.832 243.071 565.356 243.307 564.903 243.531L564.356 243.203L563.62 244.432L561.001 248.81L565.573 246.546C566.565 246.055 567.686 245.502 568.914 244.896L568.251 243.55C570.232 242.573 572.492 241.46 574.942 240.253L575.605 241.599L578.952 239.951L578.289 238.606L578.952 239.951L578.978 239.938L578.316 238.592L578.369 238.566L579.032 239.912L579.059 239.899L579.115 239.871C580.591 239.144 582.115 238.394 583.671 237.628L583.008 236.282C586.005 234.807 589.118 233.273 592.231 231.738L592.894 233.083C596.006 231.548 599.118 230.011 602.114 228.528L601.448 227.184C604.707 225.571 607.827 224.022 610.658 222.609L611.328 223.951C612.885 223.174 614.355 222.439 615.713 221.756C616.997 221.57 618.432 221.498 620.017 221.546L620.063 220.047C622.906 220.135 626.134 220.593 629.698 221.417L629.36 222.878C632.214 223.539 635.301 224.442 638.596 225.588L639.089 224.172C641.965 225.173 644.988 226.354 648.142 227.714L647.547 229.092C650.38 230.314 653.321 231.683 656.359 233.198L657.029 231.855C659.821 233.248 662.691 234.762 665.631 236.397L664.901 237.708C667.632 239.227 670.423 240.852 673.267 242.581L674.046 241.299C676.749 242.943 679.499 244.68 682.288 246.51L681.465 247.764C684.108 249.498 686.786 251.316 689.496 253.219L690.358 251.991C692.966 253.821 695.601 255.729 698.259 257.713L697.362 258.915C699.911 260.818 702.48 262.791 705.067 264.835L705.997 263.658C708.508 265.642 711.035 267.693 713.574 269.809L712.613 270.961C715.067 273.007 717.532 275.114 720.004 277.283L720.993 276.156C723.409 278.275 725.831 280.453 728.257 282.69L727.24 283.792C729.594 285.962 731.95 288.187 734.306 290.466L735.349 289.388C737.656 291.619 739.963 293.903 742.267 296.239L741.199 297.292C743.449 299.573 745.696 301.904 747.937 304.285L749.03 303.256C751.238 305.602 753.441 307.995 755.636 310.437L754.52 311.439C756.671 313.831 758.814 316.269 760.946 318.753L762.084 317.776C764.186 320.224 766.278 322.716 768.357 325.253L767.197 326.204C769.231 328.686 771.254 331.21 773.262 333.776L774.443 332.851C776.432 335.393 778.407 337.975 780.366 340.599L779.164 341.496C781.092 344.078 783.004 346.7 784.899 349.362L786.121 348.492C787.994 351.124 789.851 353.795 791.688 356.504L790.446 357.346C792.25 360.006 794.036 362.704 795.801 365.439L797.061 364.626C798.814 367.342 800.547 370.095 802.258 372.885L800.98 373.669C802.668 376.421 804.335 379.209 805.978 382.032L807.275 381.278C808.897 384.065 810.497 386.886 812.072 389.742L810.759 390.466C812.315 393.287 813.848 396.141 815.354 399.028L816.684 398.334C818.184 401.207 819.658 404.113 821.106 407.052L819.76 407.715C821.181 410.601 822.577 413.518 823.945 416.466L825.306 415.835C826.666 418.768 828 421.732 829.305 424.727L827.93 425.326C829.22 428.288 830.483 431.28 831.716 434.303L833.105 433.736C834.324 436.725 835.514 439.742 836.674 442.789L835.272 443.323C835.327 443.467 835.382 443.611 835.437 443.755L834.831 444.541C832.443 442.698 829.971 440.909 827.454 439.18L828.303 437.943C825.772 436.205 823.197 434.528 820.614 432.918L819.821 434.191C817.208 432.562 814.585 431.002 811.992 429.516L812.738 428.215C810.013 426.654 807.322 425.176 804.709 423.788L804.005 425.113C801.19 423.618 798.465 422.229 795.887 420.954L796.552 419.609C793.571 418.135 790.787 416.815 788.283 415.661L787.656 417.024C784.577 415.605 781.926 414.441 779.866 413.56L780.296 412.885C780.086 412.752 779.878 412.62 779.671 412.491L779.903 411.945C778.566 411.377 777.51 410.942 776.788 410.648C776.426 410.501 776.148 410.389 775.959 410.314C775.865 410.276 775.793 410.248 775.745 410.228L775.689 410.206L775.674 410.201L775.671 410.199L775.669 410.199L775.669 410.199L775.122 411.596L775.669 410.199L774.424 412.923C775.763 413.627 777.189 414.464 778.685 415.416L779.491 414.15C782.093 415.806 784.878 417.786 787.765 419.989L786.855 421.181C789.406 423.128 792.042 425.254 794.707 427.49L795.671 426.341C798.219 428.479 800.789 430.713 803.332 432.981L802.334 434.101C804.863 436.357 807.366 438.649 809.794 440.915L810.818 439.818C813.368 442.198 815.835 444.549 818.163 446.8L817.12 447.878C819.73 450.403 822.165 452.803 824.346 454.978L825.405 453.916C828.284 456.788 830.719 459.269 832.528 461.131L831.453 462.176C832.559 463.315 833.431 464.221 834.025 464.842C834.159 464.982 834.28 465.108 834.385 465.219C834.513 465.353 834.619 465.465 834.703 465.553L834.877 465.736L834.92 465.781L834.931 465.793L834.934 465.796L834.934 465.796L836.025 464.766L834.934 465.796L835.019 465.886L835.117 465.961C836.398 466.933 837.6 468.193 838.71 469.62L839.894 468.699C842.273 471.757 844.126 475.382 845.392 478.272L844.018 478.874C844.654 480.323 845.138 481.583 845.462 482.477C845.624 482.924 845.746 483.279 845.827 483.52C845.867 483.641 845.897 483.733 845.917 483.794L845.933 483.843C846.254 485.129 846.561 486.615 846.852 488.272L848.329 488.012C848.81 490.749 849.241 493.904 849.63 497.331L848.139 497.5C848.471 500.429 848.771 503.56 849.042 506.802L850.536 506.677C850.792 509.734 851.021 512.884 851.227 516.05L849.73 516.147C849.933 519.278 850.114 522.424 850.273 525.51L851.771 525.433C851.938 528.658 852.082 531.817 852.206 534.823L850.708 534.885C850.846 538.24 850.96 541.405 851.052 544.259L852.551 544.211C852.673 547.98 852.758 551.208 852.815 553.618L851.315 553.653C851.35 555.123 851.374 556.287 851.389 557.084C851.397 557.483 851.402 557.789 851.406 557.996L851.409 558.197C851.173 559.928 850.816 561.312 850.39 562.413L851.788 562.955C850.066 567.399 847.09 568.325 844.56 568.149L844.663 566.653C843.623 566.581 842.643 566.28 841.904 565.983C841.539 565.836 841.246 565.695 841.048 565.593C840.949 565.543 840.875 565.502 840.828 565.476L840.806 565.463C840.794 565.457 840.785 565.452 840.78 565.448L840.776 565.446L840.775 565.446L840.775 565.445L840.774 565.445L840.772 565.444L840.772 565.444L840.686 565.392L840.589 565.35C839.066 564.701 837.552 564.048 836.046 563.391L835.446 564.766C832.395 563.435 829.376 562.09 826.389 560.73L827.011 559.365C823.988 557.989 820.999 556.598 818.042 555.194L817.399 556.549C814.392 555.12 811.418 553.677 808.478 552.221L809.144 550.877C806.168 549.403 803.226 547.915 800.318 546.414L799.63 547.747C796.672 546.219 793.748 544.679 790.859 543.125L791.569 541.804C788.644 540.231 785.753 538.645 782.898 537.046L782.165 538.355C779.259 536.728 776.389 535.089 773.555 533.437L774.31 532.141C771.44 530.469 768.606 528.785 765.809 527.09L765.032 528.373C762.183 526.646 759.371 524.908 756.597 523.16L757.397 521.891C756.139 521.098 754.89 520.304 753.648 519.507C753.238 518.404 752.823 517.301 752.403 516.2L751.001 516.735C750.057 514.258 749.086 511.788 748.09 509.324L749.393 508.797C749.383 508.772 749.373 508.747 749.363 508.723L749.451 508.688C748.443 506.196 747.409 503.712 746.349 501.236L746.258 501.275C746.04 500.765 745.82 500.255 745.599 499.746L744.315 500.303C743.47 498.351 742.609 496.405 741.733 494.464L742.322 494.199C742.584 494.379 742.847 494.56 743.11 494.74L743.958 493.503C746.547 495.277 749.169 497.041 751.824 498.796L750.997 500.047C753.623 501.783 756.281 503.508 758.971 505.222L759.777 503.957C762.425 505.644 765.104 507.321 767.815 508.985L767.03 510.263C769.712 511.911 772.425 513.547 775.17 515.17L775.933 513.879C778.636 515.478 781.369 517.065 784.133 518.639L783.39 519.943C786.127 521.501 788.893 523.047 791.689 524.58L792.41 523.265C795.164 524.774 797.947 526.27 800.759 527.753L800.06 529.08C802.846 530.548 805.661 532.003 808.504 533.444L809.182 532.106C811.984 533.526 814.815 534.931 817.673 536.322L817.017 537.671C819.849 539.049 822.709 540.412 825.597 541.761L826.231 540.402C829.078 541.731 831.952 543.045 834.853 544.344L834.24 545.713C835.682 546.359 837.131 547.001 838.587 547.639L840.966 548.682L840.68 546.1L840.074 540.632L838.583 540.797L837.372 529.86L838.863 529.695L837.651 518.758L836.161 518.923L834.949 507.987L836.44 507.822L835.229 496.885L833.738 497.05L832.526 486.113L834.017 485.948L833.412 480.48L833.351 479.93L832.948 479.551L829.082 475.921L828.055 477.015L820.323 469.754L821.35 468.661L813.619 461.4L812.592 462.494L804.86 455.233L805.887 454.14L798.155 446.879L797.128 447.973L789.397 440.712L790.424 439.619L786.558 435.988L786.55 435.981L785.694 435.19L785.108 435.824C784.68 435.146 784.249 434.468 783.814 433.791L783.984 433.607L783.129 432.816L780.851 434.732C781.838 436.259 782.806 437.788 783.754 439.319L784.941 438.585L785.233 438.859C787.092 441.874 788.874 444.899 790.575 447.932L789.267 448.666C791.054 451.851 792.75 455.044 794.354 458.243L795.695 457.571C797.342 460.857 798.892 464.15 800.34 467.449L798.967 468.052C800.434 471.392 801.796 474.737 803.05 478.085L804.455 477.558C805.743 480.998 806.919 484.443 807.977 487.889L806.785 488.255C805.225 485.495 803.634 482.766 802.014 480.066L803.3 479.294C801.566 476.405 799.799 473.55 798 470.729L796.735 471.535C794.93 468.704 793.092 465.908 791.224 463.144L792.466 462.304C790.58 459.514 788.661 456.758 786.713 454.037L785.493 454.91C783.541 452.184 781.559 449.492 779.548 446.834L780.744 445.929C778.714 443.246 776.654 440.597 774.566 437.983L773.394 438.919C771.3 436.297 769.178 433.709 767.028 431.156L768.176 430.19C766.008 427.615 763.813 425.074 761.592 422.567L760.469 423.562C758.247 421.053 755.997 418.579 753.723 416.138L754.821 415.115C752.528 412.655 750.211 410.229 747.87 407.836L746.797 408.885C744.454 406.49 742.086 404.129 739.695 401.801L740.742 400.727C738.331 398.379 735.897 396.066 733.442 393.786L732.422 394.885C729.966 392.604 727.488 390.357 724.99 388.143L725.985 387.02C723.469 384.79 720.932 382.593 718.377 380.43L717.408 381.575C714.851 379.41 712.275 377.278 709.682 375.18L710.625 374.014C708.012 371.899 705.381 369.818 702.734 367.77L701.816 368.956C699.164 366.904 696.496 364.885 693.813 362.898L694.706 361.693C692.003 359.692 689.285 357.723 686.553 355.788L685.686 357.012C682.951 355.074 680.202 353.168 677.441 351.295L678.283 350.054C675.501 348.166 672.707 346.311 669.902 344.488L669.085 345.746C666.274 343.92 663.453 342.126 660.623 340.364L661.416 339.091C658.56 337.313 655.696 335.568 652.824 333.856L652.056 335.144C649.173 333.425 646.283 331.738 643.387 330.083L644.131 328.781C641.209 327.111 638.281 325.474 635.349 323.869L634.628 325.184C631.684 323.572 628.735 321.993 625.784 320.445L626.481 319.117C623.5 317.553 620.516 316.023 617.533 314.524L616.859 315.864C613.859 314.357 610.858 312.882 607.858 311.44L608.508 310.088C605.474 308.629 602.442 307.202 599.412 305.807L598.785 307.17C595.733 305.765 592.684 304.392 589.64 303.052L590.244 301.679C587.157 300.319 584.076 298.993 581.002 297.698L580.42 299.081C577.317 297.775 574.223 296.502 571.137 295.261L571.697 293.869C568.565 292.61 565.443 291.384 562.334 290.19L561.796 291.591C558.651 290.384 555.518 289.21 552.399 288.069L552.914 286.661C549.741 285.5 546.582 284.373 543.441 283.279L542.948 284.696C539.762 283.587 536.594 282.512 533.447 281.471L533.918 280.047C530.705 278.984 527.513 277.956 524.345 276.962L523.896 278.393C520.671 277.382 517.472 276.406 514.299 275.464L514.726 274.026C513.119 273.55 511.519 273.082 509.926 272.623L508.229 272.133L508.021 273.888L508.01 273.983L509.484 274.157L509.431 274.343L507.988 274.172L507.977 274.267L507.944 274.541L508.011 274.808C508.389 276.311 508.809 277.781 509.268 279.22L510.697 278.765C511.627 281.682 512.719 284.469 513.938 287.124L512.575 287.75C513.879 290.59 515.324 293.282 516.869 295.827L518.151 295.049C519.746 297.675 521.45 300.144 523.216 302.456L522.024 303.366C523.936 305.868 525.918 308.189 527.913 310.329L529.01 309.306C531.156 311.608 533.318 313.7 535.423 315.585L534.423 316.702C536.885 318.906 539.269 320.829 541.462 322.474L542.362 321.274C545.269 323.455 547.835 325.142 549.783 326.34L548.997 327.618C550.224 328.372 551.213 328.938 551.9 329.318C552.243 329.508 552.511 329.651 552.695 329.747C552.786 329.796 552.858 329.833 552.907 329.858L552.964 329.887L552.98 329.895L552.984 329.897L552.986 329.898L552.987 329.898L552.987 329.899C552.987 329.899 552.987 329.899 553.659 328.558L552.987 329.899L554.978 330.897L555.155 328.677L555.602 323.068L554.107 322.948L555.001 311.729L556.496 311.849L556.938 306.301C557.364 303.701 557.954 301.809 558.62 300.461L557.275 299.797C560.1 294.08 564.731 295.755 568.243 298.315L567.359 299.527C568.632 300.455 569.763 301.52 570.582 302.364C570.989 302.783 571.314 303.142 571.535 303.394C571.59 303.456 571.637 303.511 571.679 303.559C571.707 303.593 571.733 303.623 571.755 303.649C572.487 305.166 573.273 306.759 574.115 308.424L575.453 307.747C576.973 310.752 578.677 313.994 580.571 317.447L579.255 318.168C580.92 321.203 582.729 324.4 584.689 327.743L585.983 326.984C587.75 329.998 589.639 333.131 591.654 336.372L590.38 337.164C590.939 338.063 591.508 338.971 592.086 339.887C591.555 339.977 591.027 340.071 590.5 340.169L590.546 340.412C589.472 340.612 588.408 340.829 587.355 341.062L587.626 342.287C586.15 342.614 584.695 342.973 583.261 343.361L582.869 341.914C581.972 342.156 581.084 342.41 580.204 342.674C579.894 342.194 579.588 341.718 579.284 341.247L578.023 342.059C576.967 340.418 575.947 338.827 574.961 337.288L576.225 336.479C575.706 335.669 575.197 334.873 574.698 334.092L574.697 334.092L574.409 333.642L573.658 334.122C573.712 333.822 573.752 333.522 573.776 333.221L573.161 333.171L573.833 332.741L573.545 332.29L571.149 328.546L570.786 332.976C570.698 334.057 570.304 335.262 569.673 336.532L571.017 337.2C569.723 339.803 567.683 342.321 565.973 344.181L564.869 343.166C564.049 344.058 563.307 344.795 562.772 345.307C562.709 345.366 562.65 345.423 562.593 345.477C561.196 344.913 559.826 344.331 558.483 343.732L557.872 345.102C554.45 343.577 551.195 341.943 548.099 340.219L548.829 338.908C545.599 337.11 542.545 335.213 539.658 333.241L538.812 334.48C535.715 332.364 532.807 330.163 530.079 327.905L531.036 326.75C528.178 324.384 525.52 321.954 523.049 319.493L521.99 320.556C519.322 317.899 516.869 315.207 514.617 312.519L515.766 311.555C513.351 308.673 511.168 305.796 509.2 302.975L507.97 303.833C505.759 300.665 503.815 297.567 502.113 294.611L503.413 293.862C501.442 290.441 499.799 287.211 498.44 284.286L497.08 284.918C495.208 280.887 493.871 277.425 492.961 274.818L494.377 274.324C493.813 272.707 493.417 271.428 493.164 270.558C493.037 270.124 492.946 269.791 492.888 269.57C492.858 269.459 492.837 269.377 492.823 269.323L492.815 269.289L492.858 269.291L492.862 269.172L492.903 267.967L491.735 267.667C489.981 267.217 488.239 266.778 486.509 266.35L486.149 267.807C482.611 266.932 479.125 266.102 475.694 265.317L476.028 263.855C472.461 263.039 468.954 262.27 465.512 261.548L465.204 263.016C461.618 262.264 458.103 261.562 454.664 260.909L454.944 259.436C451.321 258.748 447.783 258.114 444.337 257.532L444.087 259.011C440.444 258.395 436.903 257.838 433.474 257.337L433.691 255.853C429.997 255.313 426.431 254.838 423.003 254.425L422.824 255.914C419.096 255.465 415.533 255.089 412.148 254.784L412.283 253.29C408.46 252.944 404.861 252.687 401.504 252.514L401.427 254.012C397.496 253.809 393.906 253.721 390.685 253.74L390.676 252.24C389.122 252.249 387.65 252.283 386.264 252.34C385.675 251.136 384.908 249.797 384.023 248.38L382.751 249.175C381.085 246.506 378.926 243.451 376.599 240.336L377.8 239.438C375.642 236.551 373.342 233.617 371.156 230.897L369.987 231.837ZM491.351 269.482C491.353 269.401 491.356 269.321 491.358 269.241L492.662 269.284C492.53 269.316 492.276 269.378 491.789 269.496L491.351 269.482ZM512.451 240.023L511.977 240.406L511.905 241.012L511.905 241.014L513.394 241.191L513.393 241.197L511.904 241.02L511.904 241.023L511.761 242.225L512.906 242.619C514.228 243.073 515.551 243.533 516.875 243.999L517.373 242.584C520.014 243.515 522.657 244.468 525.3 245.444L524.781 246.851C527.401 247.819 530.023 248.809 532.644 249.821L533.185 248.422C535.798 249.431 538.412 250.462 541.024 251.514L540.464 252.905C541.762 253.428 543.06 253.956 544.357 254.489L547.049 255.596L546.389 252.764C546.391 252.772 546.377 252.702 546.393 252.515C546.409 252.328 546.451 252.079 546.528 251.761C546.682 251.124 546.952 250.312 547.332 249.345L545.935 248.797C546.82 246.542 548.188 243.699 549.743 240.701L551.074 241.392C552.412 238.813 553.891 236.114 555.322 233.576L554.015 232.839C555.681 229.884 557.276 227.152 558.501 225.085L559.791 225.85C560.481 224.685 561.052 223.732 561.451 223.071C561.65 222.741 561.806 222.483 561.913 222.309L562.033 222.11L562.064 222.06L562.072 222.047L562.074 222.044L562.074 222.044L562.074 222.044L563.529 219.664L560.742 219.762C559.249 219.814 557.759 219.936 556.278 220.118L556.461 221.607C553.583 221.961 550.729 222.55 547.941 223.309L547.547 221.862C544.656 222.649 541.841 223.612 539.146 224.678L539.698 226.072C536.915 227.173 534.256 228.389 531.771 229.639L531.097 228.299C528.278 229.716 525.682 231.175 523.38 232.561L524.154 233.846C521.178 235.638 518.697 237.308 516.87 238.601L516.003 237.376C514.877 238.174 513.994 238.831 513.39 239.291C513.088 239.521 512.856 239.702 512.698 239.826C512.619 239.888 512.558 239.936 512.517 239.969L512.469 240.008L512.456 240.018L512.453 240.021L512.451 240.022L512.451 240.022L512.451 240.022C512.451 240.023 512.451 240.023 513.394 241.188L512.451 240.023ZM578.903 268.295C575.986 266.885 573.063 265.499 570.134 264.138L569.502 265.498C568.038 264.818 566.574 264.144 565.107 263.477L565.791 261.932L565.247 260.856L569.423 258.749L570.099 260.088L578.45 255.874L577.775 254.535L586.126 250.321L586.802 251.66L595.153 247.446L594.477 246.107L602.829 241.893L603.504 243.232L611.856 239.019L611.18 237.679L615.356 235.572L615.697 235.4L616.079 235.412L616.031 236.912C616.079 235.412 616.079 235.412 616.079 235.412L616.08 235.412L616.081 235.412L616.083 235.413L616.09 235.413L616.11 235.414C616.127 235.414 616.151 235.415 616.18 235.417C616.24 235.419 616.325 235.424 616.435 235.431C616.655 235.445 616.976 235.47 617.394 235.511C618.23 235.594 619.456 235.744 621.049 236.016L620.797 237.495C623.144 237.895 626.323 238.567 630.255 239.694L630.668 238.252C633.435 239.045 636.565 240.059 640.032 241.354L639.506 242.759C642.278 243.795 645.269 245.014 648.466 246.449L649.08 245.08C651.869 246.332 654.811 247.744 657.897 249.34L657.208 250.672C659.936 252.082 662.777 253.636 665.728 255.348L666.481 254.051C669.189 255.623 671.986 257.327 674.868 259.175L674.059 260.438C676.669 262.111 679.35 263.903 682.099 265.823L682.958 264.593C685.532 266.391 688.163 268.3 690.85 270.325L689.947 271.523C692.451 273.411 695.003 275.401 697.601 277.5L698.543 276.333C701.003 278.32 703.503 280.404 706.042 282.588L705.064 283.725C707.456 285.784 709.884 287.933 712.345 290.177L713.356 289.069C715.707 291.213 718.088 293.442 720.497 295.761L719.457 296.841C721.733 299.031 724.035 301.302 726.361 303.654L727.427 302.6C729.654 304.852 731.902 307.18 734.171 309.585L733.08 310.615C735.254 312.92 737.448 315.297 739.661 317.748L740.774 316.743C742.917 319.118 745.077 321.562 747.254 324.077L746.12 325.059C748.2 327.463 750.295 329.933 752.405 332.47L753.558 331.511C755.589 333.952 757.632 336.456 759.687 339.022L758.516 339.96C760.514 342.455 762.523 345.01 764.544 347.627L765.732 346.71C767.684 349.238 769.646 351.824 771.618 354.468L770.416 355.365C772.315 357.911 774.223 360.512 776.139 363.168L777.356 362.29C779.245 364.908 781.142 367.58 783.047 370.307L781.817 371.166C783.627 373.758 785.445 376.4 787.269 379.092L788.511 378.251C790.315 380.914 792.126 383.626 793.942 386.389L792.689 387.213C794.438 389.873 796.192 392.58 797.952 395.335L799.216 394.527C800.944 397.231 802.676 399.981 804.413 402.777L803.139 403.568C804.825 406.283 806.516 409.042 808.211 411.845L809.495 411.069C810.344 412.474 811.194 413.889 812.045 415.316L814.807 419.946L810.051 417.408L810.05 417.408L810.047 417.406L810.033 417.398L809.976 417.368C809.926 417.342 809.85 417.302 809.751 417.249C809.551 417.144 809.255 416.989 808.872 416.79C808.105 416.391 806.987 415.816 805.588 415.112L806.262 413.772C803.9 412.584 800.742 411.031 797.118 409.342L796.484 410.702C793.639 409.376 790.508 407.966 787.253 406.584L787.839 405.203C784.763 403.896 781.573 402.613 778.406 401.446L777.888 402.853C774.626 401.651 771.401 400.578 768.36 399.733L768.762 398.288C765.117 397.275 761.714 396.579 758.799 396.372L758.693 397.868C756.865 397.738 755.324 397.816 754.099 398.102L753.811 396.869L752.636 397.644C751.58 396.437 750.512 395.234 749.434 394.033L750.55 393.031C748.402 390.638 746.211 388.258 743.978 385.89L742.887 386.919C740.689 384.589 738.452 382.271 736.175 379.966L737.242 378.912C734.98 376.621 732.68 374.344 730.344 372.081L729.301 373.158C726.998 370.927 724.66 368.71 722.287 366.506L723.308 365.407C720.949 363.216 718.556 361.039 716.132 358.876L715.134 359.996C712.737 357.858 710.308 355.734 707.85 353.626L708.826 352.487C706.382 350.39 703.907 348.309 701.405 346.243L700.45 347.399C697.971 345.353 695.465 343.322 692.933 341.307L693.866 340.133C691.343 338.125 688.794 336.133 686.22 334.158L685.307 335.348C682.755 333.39 680.18 331.449 677.581 329.524L678.474 328.319C675.881 326.399 673.265 324.495 670.628 322.61L669.756 323.83C667.137 321.957 664.496 320.101 661.836 318.264L662.689 317.03C660.033 315.195 657.357 313.379 654.663 311.581L653.83 312.829C651.15 311.041 648.452 309.271 645.737 307.52L646.55 306.259C643.834 304.508 641.102 302.777 638.354 301.065L637.561 302.338C634.825 300.633 632.073 298.948 629.307 297.284L630.08 295.998C627.31 294.331 624.526 292.685 621.729 291.059L620.975 292.356C618.186 290.734 615.384 289.134 612.57 287.555L613.304 286.247C610.483 284.664 607.65 283.103 604.806 281.564L604.092 282.883C601.253 281.346 598.404 279.831 595.545 278.339L596.239 277.009C593.369 275.512 590.49 274.037 587.604 272.586L586.93 273.926C584.044 272.475 581.15 271.048 578.25 269.646L578.903 268.295ZM624.989 355.459L626.297 353.769L624.264 353.113C622.562 352.564 620.855 352.119 619.149 351.766L618.846 353.235C615.431 352.53 612.018 352.208 608.658 352.185L608.669 350.685C605.093 350.66 601.585 350.965 598.208 351.498L598.442 352.98C594.955 353.53 591.602 354.331 588.451 355.271L588.023 353.833C584.464 354.894 581.165 356.128 578.223 357.378L578.809 358.758C575.098 360.335 571.958 361.939 569.592 363.251L568.865 361.939C566.659 363.161 565.11 364.136 564.377 364.613L562.7 365.703L564.215 367.007C565.458 368.077 566.699 369.155 567.938 370.242L568.927 369.114C571.395 371.277 573.855 373.473 576.305 375.699L575.297 376.809C577.722 379.011 580.137 381.243 582.542 383.504L583.569 382.411C585.963 384.661 588.347 386.94 590.718 389.245L589.672 390.32C590.849 391.465 592.023 392.616 593.194 393.773L594.398 394.963L595.435 393.625L599.129 388.854L597.943 387.936L605.332 378.394L606.518 379.313L613.906 369.771L612.72 368.853L620.109 359.312L621.295 360.23L624.989 355.459ZM603.946 401.843L604.575 403.139L603.492 404.204C604.661 405.417 605.827 406.637 606.988 407.863L608.077 406.831C610.402 409.286 612.711 411.763 615.001 414.262L613.895 415.275C616.174 417.763 618.435 420.273 620.676 422.802L621.799 421.807C624.044 424.341 626.268 426.894 628.47 429.466L627.331 430.441C629.528 433.007 631.704 435.591 633.855 438.192L635.011 437.235C637.171 439.846 639.307 442.473 641.418 445.116L640.246 446.052C642.356 448.693 644.441 451.35 646.499 454.021L647.687 453.106C649.757 455.792 651.8 458.493 653.814 461.206L652.609 462.1C654.626 464.817 656.614 467.546 658.571 470.287L659.792 469.415C661.765 472.178 663.706 474.952 665.615 477.735L664.378 478.583C666.293 481.376 668.175 484.179 670.022 486.989L671.276 486.165C673.142 489.005 674.972 491.853 676.765 494.707L675.495 495.505C677.298 498.375 679.064 501.252 680.789 504.133L682.076 503.363C683.824 506.283 685.531 509.208 687.196 512.136L685.892 512.878C687.57 515.828 689.203 518.782 690.791 521.736L692.112 521.026C693.726 524.028 695.292 527.031 696.809 530.034L695.471 530.71C697.003 533.742 698.484 536.772 699.914 539.8L701.27 539.16C702.726 542.244 704.129 545.327 705.475 548.404L704.1 549.005C705.462 552.118 706.765 555.225 708.008 558.325L709.4 557.767C710.671 560.935 711.879 564.096 713.022 567.247L711.611 567.758C712.771 570.955 713.863 574.142 714.885 577.315L716.313 576.855C717.362 580.113 718.338 583.359 719.238 586.589L717.793 586.992C718.707 590.268 719.541 593.528 720.293 596.768L721.754 596.429C722.528 599.761 723.216 603.073 723.815 606.363L722.34 606.632C722.949 609.977 723.465 613.297 723.886 616.589L725.374 616.399C725.808 619.799 726.14 623.171 726.368 626.511L724.872 626.613C725.102 629.995 725.224 633.343 725.233 636.653L726.733 636.649C726.742 639.996 726.638 643.308 726.416 646.579L725.473 646.737L725.151 646.715C724.592 643.392 723.95 640.05 723.229 636.692L724.695 636.377C723.977 633.036 723.18 629.679 722.307 626.31L720.855 626.686C720.003 623.399 719.078 620.1 718.081 616.789L719.518 616.357C718.534 613.089 717.481 609.812 716.361 606.527L714.941 607.011C713.846 603.796 712.685 600.574 711.462 597.345L712.864 596.814C711.654 593.621 710.383 590.422 709.053 587.221L707.668 587.797C706.363 584.657 705 581.513 703.582 578.368L704.949 577.751C703.545 574.637 702.086 571.521 700.574 568.406L699.225 569.061C697.739 565.998 696.202 562.936 694.614 559.876L695.946 559.185C694.372 556.151 692.749 553.118 691.08 550.09L689.766 550.814C688.121 547.83 686.43 544.85 684.694 541.876L685.989 541.12C684.265 538.165 682.498 535.217 680.688 532.275L679.41 533.061C677.623 530.156 675.794 527.259 673.926 524.369L675.185 523.554C673.326 520.681 671.428 517.815 669.492 514.959L668.25 515.801C666.335 512.976 664.382 510.161 662.392 507.356L663.615 506.488C661.634 503.695 659.617 500.913 657.565 498.142L656.359 499.035C654.326 496.291 652.259 493.558 650.158 490.839L651.346 489.922C649.251 487.21 647.123 484.511 644.964 481.827L643.796 482.767C641.653 480.104 639.48 477.455 637.276 474.822L638.426 473.859C636.226 471.23 633.995 468.616 631.736 466.019L630.605 467.004C628.36 464.423 626.086 461.859 623.786 459.314L624.898 458.308C622.598 455.763 620.27 453.236 617.916 450.728L616.822 451.755C614.48 449.259 612.112 446.783 609.719 444.328L610.793 443.281C608.397 440.822 605.976 438.385 603.532 435.969L602.477 437.036C600.041 434.629 597.582 432.244 595.1 429.882L596.135 428.795C593.646 426.427 591.135 424.081 588.603 421.761L587.59 422.867C585.063 420.552 582.515 418.261 579.947 415.996L580.939 414.871C578.36 412.597 575.761 410.349 573.144 408.129L572.173 409.273C569.558 407.054 566.923 404.864 564.271 402.702L565.219 401.539C562.552 399.365 559.867 397.22 557.165 395.106L556.24 396.288C553.538 394.173 550.818 392.088 548.083 390.036L548.983 388.836C547.609 387.805 546.231 386.783 544.849 385.768L543.248 384.592L542.555 386.454C541.92 388.162 541.389 389.946 540.95 391.785L542.409 392.134C541.601 395.511 541.105 399.108 540.846 402.795L539.35 402.69C539.097 406.302 539.07 409.989 539.202 413.632L540.701 413.578C540.833 417.238 541.128 420.864 541.518 424.334L540.027 424.501C540.458 428.333 541.003 431.974 541.574 435.264L543.052 435.008C543.784 439.22 544.558 442.856 545.187 445.574L543.725 445.912C544.108 447.568 544.438 448.888 544.672 449.796C544.789 450.249 544.883 450.601 544.947 450.839C544.98 450.959 545.005 451.05 545.022 451.112L545.041 451.183L545.047 451.202L545.048 451.207L545.048 451.208L545.049 451.209L545.049 451.209C545.049 451.209 545.049 451.209 546.493 450.803L545.049 451.209L545.999 454.59L547.784 451.566L551.568 445.155L550.276 444.393L557.843 431.572L559.135 432.335L562.873 426.002C564.14 424.348 565.258 423.189 566.23 422.405L565.289 421.237C569.732 417.658 572.394 420.304 573.88 423.352L572.532 424.01C573.066 425.104 573.441 426.279 573.685 427.199C573.806 427.655 573.891 428.039 573.946 428.305C573.968 428.409 573.984 428.494 573.997 428.559L573.727 434.623L575.226 434.69L574.673 447.152L573.174 447.085L572.621 459.547L574.119 459.613L573.566 472.075L572.067 472.008L571.791 478.239L571.791 478.243C571.7 480.411 571.692 482.445 571.745 484.339L573.244 484.297C573.384 489.279 573.955 493.269 574.556 496.186L573.087 496.489C573.487 498.43 573.901 499.918 574.22 500.931C574.379 501.438 574.514 501.825 574.612 502.091C574.661 502.224 574.7 502.326 574.728 502.398L574.739 502.426C574.744 502.439 574.749 502.451 574.753 502.461C575.221 503.873 575.749 505.33 576.33 506.824L577.728 506.281C578.783 508.997 580.018 511.851 581.392 514.796L580.033 515.43C581.306 518.159 582.696 520.961 584.169 523.798L585.501 523.107C586.899 525.8 588.375 528.529 589.899 531.26L588.589 531.991C590.095 534.689 591.647 537.389 593.219 540.059L594.512 539.298C596.093 541.984 597.695 544.642 599.29 547.238L598.012 548.023C599.673 550.728 601.326 553.366 602.939 555.902L604.205 555.097C605.941 557.825 607.631 560.436 609.237 562.885L607.983 563.707C609.83 566.522 611.565 569.122 613.13 571.441L614.373 570.602C616.473 573.712 618.266 576.314 619.609 578.244L618.378 579.101C619.217 580.307 619.882 581.252 620.337 581.897C620.565 582.219 620.74 582.465 620.859 582.632L620.993 582.821L621.028 582.869L621.037 582.882L621.039 582.885L621.04 582.886L621.04 582.886L622.259 582.013L621.04 582.886L622.869 585.439L623.705 582.412C624.174 580.714 624.717 578.984 625.321 577.233L623.904 576.743C625.072 573.359 626.464 569.914 627.997 566.485L629.366 567.098C630.852 563.775 632.473 560.465 634.155 557.242L632.824 556.548C634.571 553.199 636.379 549.947 638.164 546.874L639.461 547.627C641.428 544.24 643.367 541.071 645.162 538.231L643.895 537.43C646.251 533.703 648.361 530.542 649.968 528.195L651.206 529.042C652.178 527.621 652.964 526.501 653.506 525.737C653.628 525.566 653.737 525.412 653.834 525.278C653.952 525.112 654.051 524.974 654.13 524.866C654.134 524.86 654.138 524.854 654.142 524.849L655.088 524.348L654.387 523.022L656.895 521.696L657.596 523.022L658.454 522.568C659.143 522.658 659.885 522.873 660.661 523.194L661.234 521.807C663.26 522.643 665.21 524.001 666.656 525.152L665.722 526.326C666.417 526.879 666.991 527.383 667.389 527.747C667.435 527.789 667.479 527.83 667.521 527.868L667.275 532.579L668.773 532.657L668.21 543.453L666.712 543.375L666.15 554.172L667.648 554.25L667.085 565.046L665.587 564.968L665.024 575.765L666.522 575.843L665.959 586.639L664.461 586.561L663.899 597.358L665.396 597.436L664.834 608.232L663.336 608.154L662.773 618.95L664.271 619.029L663.708 629.825L662.21 629.747L661.929 635.145L661.895 635.783L662.332 636.249L665.557 639.689L666.651 638.663L673.1 645.541L672.006 646.567L678.454 653.446L679.549 652.42L685.998 659.298L684.903 660.324L691.352 667.203L692.446 666.177L698.895 673.056L697.801 674.082L704.25 680.96L705.344 679.934L711.793 686.813L710.699 687.839L717.148 694.717L718.242 693.692L724.691 700.57L723.596 701.596L730.045 708.475L731.14 707.449L737.588 714.327L736.494 715.353L739.718 718.793L741.235 720.41L742.172 718.401C742.894 716.852 743.594 715.303 744.272 713.752L742.897 713.151C744.243 710.073 745.503 706.99 746.678 703.905L748.079 704.439C749.292 701.257 750.415 698.073 751.453 694.888L750.027 694.423C751.067 691.229 752.021 688.034 752.891 684.839L754.339 685.234C755.229 681.966 756.032 678.699 756.752 675.434L755.287 675.111C756.012 671.826 756.652 668.542 757.209 665.262L758.688 665.513C759.254 662.184 759.737 658.858 760.14 655.538L758.651 655.358C759.055 652.027 759.378 648.701 759.624 645.382L761.119 645.493C761.369 642.123 761.539 638.76 761.634 635.407L760.135 635.365C760.229 632.017 760.248 628.678 760.195 625.349L761.695 625.326C761.642 621.954 761.515 618.595 761.319 615.248L759.821 615.336C759.625 611.989 759.359 608.656 759.027 605.337L760.52 605.187C760.185 601.835 759.783 598.499 759.319 595.179L757.833 595.387C757.37 592.072 756.843 588.774 756.258 585.495L757.735 585.232C757.143 581.913 756.491 578.613 755.783 575.335L754.317 575.651C753.61 572.376 752.847 569.121 752.032 565.889L753.487 565.523C752.664 562.26 751.79 559.02 750.867 555.807L749.425 556.221C748.499 552.995 747.525 549.795 746.506 546.622L747.934 546.164C746.902 542.952 745.826 539.769 744.709 536.617L743.295 537.118C742.174 533.955 741.012 530.823 739.814 527.723L741.213 527.182C739.998 524.039 738.746 520.929 737.461 517.855L736.077 518.433C734.778 515.324 733.444 512.251 732.083 509.217L733.451 508.603C732.067 505.517 730.652 502.472 729.214 499.468L727.861 500.116C726.407 497.079 724.928 494.086 723.429 491.137L724.766 490.458C723.233 487.444 721.681 484.478 720.114 481.562L718.793 482.273C717.187 479.285 715.565 476.35 713.934 473.47L715.24 472.731C713.561 469.767 711.873 466.862 710.181 464.019L708.892 464.786C707.154 461.864 705.412 459.008 703.674 456.22L704.947 455.426C703.139 452.526 701.336 449.7 699.544 446.952L698.288 447.771C696.42 444.906 694.567 442.126 692.735 439.435L693.976 438.591C692.035 435.738 690.119 432.986 688.24 430.337L687.017 431.205C685.008 428.374 683.041 425.663 681.129 423.078L682.335 422.186C680.237 419.35 678.205 416.664 676.258 414.138L675.07 415.054C672.885 412.221 670.806 409.589 668.858 407.169L670.027 406.228C667.708 403.348 665.574 400.767 663.667 398.505L662.52 399.471C659.823 396.271 657.581 393.713 655.917 391.85L657.036 390.851C655.97 389.659 655.139 388.75 654.573 388.137C654.29 387.831 654.073 387.598 653.926 387.442C653.853 387.364 653.797 387.305 653.759 387.265L653.716 387.219L653.705 387.207L653.702 387.204L653.701 387.203L653.701 387.203C653.701 387.203 653.701 387.203 652.615 388.238L653.701 387.203L653.281 386.763L652.674 386.739C651.288 386.683 649.807 386.744 648.263 386.896L648.41 388.389C645.838 388.643 643.024 389.168 640.102 389.874L639.75 388.416C637.056 389.067 634.28 389.869 631.527 390.75L631.984 392.179C629.282 393.044 626.592 393.991 624.012 394.955L623.487 393.55C620.68 394.598 618.004 395.666 615.584 396.671L616.159 398.056C613.076 399.336 610.407 400.513 608.414 401.417L607.794 400.051C606.591 400.597 605.631 401.044 604.971 401.355C604.641 401.51 604.386 401.632 604.213 401.715C604.126 401.756 604.06 401.788 604.015 401.81L603.964 401.834L603.951 401.841L603.947 401.842L603.946 401.843L603.946 401.843L603.946 401.843Z" stroke="#174174" stroke-width="3" stroke-dasharray="10 10"/>
<path fill-rule="evenodd" clip-rule="evenodd" d="M223.496 89.282L223.652 88.6013C226.612 75.7575 229.992 61.0855 244.496 61.282C245.836 72.7679 248.409 78.5656 251.463 85.4437C251.801 86.2067 252.146 86.9831 252.496 87.782C254.186 89.5665 255.806 91.2099 257.359 92.7851C264.072 99.5951 269.529 105.13 273.996 115.282C335.032 98.9147 360.792 92.7387 384.92 88.075C384.874 81.7742 384.001 74.345 381.996 65.282C411.045 90.4868 442.285 135.766 432.678 166.193C434.459 172.597 436.231 179.594 437.996 187.282C440.043 200.385 444.103 207.788 448.801 216.355C449.84 218.249 450.909 220.2 451.996 222.282C473.996 256.782 522.916 344.782 538.996 379.782C541.481 385.192 540.589 387.714 539.496 390.782C524.496 423.282 488.996 474.586 442.496 502.282C397.416 529.132 357.496 544.282 307.496 549.782L296.496 485.282C296.023 485.981 295.553 486.675 295.086 487.364C277.223 513.758 263.937 533.39 246.232 542.884C240.871 545.659 235.003 547.657 228.481 548.656C219.088 549.972 208.294 549.105 195.322 545.765C164.435 537.126 141.257 514.159 144.996 474.282C145.679 466.99 150.125 464.322 154.305 461.813C156.714 460.368 159.034 458.975 160.496 456.782C164.283 437.846 169.089 419.588 173.43 403.097C176.539 391.286 179.409 380.381 181.496 370.782C182.109 367.573 182.991 364.368 183.87 361.173C186.445 351.815 188.992 342.556 184.676 333.602C180.486 324.927 178.65 316.899 176.683 308.301C175.927 304.995 175.152 301.605 174.216 298.062C171.728 285.458 173.189 276.852 174.007 272.032L174.008 272.03C174.084 271.581 174.154 271.165 174.216 270.782C185.524 235.336 206.711 197.764 228.39 167.412C234.88 156.844 231.489 146.98 228.201 137.416C227.61 135.696 227.022 133.985 226.496 132.282C222.926 120.692 221.186 101.382 223.496 89.282ZM420.133 171.961C418.77 174.82 417.208 177.469 415.67 180.076C411.083 187.855 406.712 195.267 408.496 206.782C411.646 197.472 416.416 186.992 423.996 180.282C426.296 192.382 431.386 204.292 437.306 214.982C452.975 243.298 471.011 276.874 489.043 310.445L489.046 310.451L489.049 310.456L489.053 310.462C503.074 336.565 517.093 362.663 529.996 386.282C478.496 492.282 374.915 529.607 315.996 540.282L301.996 476.282L359.996 389.782C371.977 389.782 388.496 388.782 398.996 383.782C434.496 368.782 450.496 293.782 419.496 232.782C432.496 298.782 435.496 396.782 345.496 378.282C351.996 385.782 350.496 386.282 350.496 386.282C348.714 389.063 346.935 391.841 345.156 394.616C318.473 436.235 291.995 477.102 263.746 517.032C263.214 517.876 262.609 518.693 261.938 519.483C257.238 525.013 249.306 529.235 240.976 532.262C238.445 533.178 235.863 533.988 233.247 534.679C214.934 539.515 194.952 538.501 179.246 527.032C178.214 526.126 177.217 525.2 176.252 524.24C169.496 517.516 164.309 509.095 159.996 493.782C159.837 493.22 159.906 492.47 160.148 491.62C161.845 485.673 172.058 474.845 172.496 489.281C172.621 488.531 172.719 487.629 172.781 486.632C173.218 479.647 171.884 467.993 165.496 471.282C165.222 471.465 164.963 471.641 164.717 471.812C161.032 474.374 160.367 475.724 158.88 478.744L158.874 478.757C158.802 478.902 158.729 479.051 158.653 479.204C158.108 480.307 157.442 481.627 156.496 483.282C156.246 482.688 156.043 482.104 155.883 481.531C153.498 472.934 161.027 466.782 168.996 466.782C168.979 466.758 168.963 466.734 168.947 466.71C168.929 466.684 168.912 466.659 168.894 466.635C168.387 465.92 167.88 465.54 167.451 465.219C167.142 464.987 166.873 464.786 166.673 464.511C166.072 463.688 166.09 462.206 167.496 457.282C168.628 452.484 169.877 447.171 171.211 441.491L171.294 441.141L171.294 441.139L171.294 441.138C172.378 436.524 173.518 431.672 174.698 426.661C182.959 391.583 193.192 348.717 199.996 325.282C206.088 325.602 211.472 322.52 214.336 317.28C215.859 314.495 216.669 311.1 216.496 307.282C214.191 309.257 212.188 311.103 210.417 312.736C208.169 314.808 206.294 316.536 204.65 317.748C199.716 321.383 196.856 320.372 192.226 310.052C192.057 309.676 191.891 309.309 191.726 308.95C189.256 303.566 187.228 300.025 185.75 297.444C185.639 297.251 185.532 297.063 185.427 296.88C184.119 294.591 183.303 293.088 183.067 291.646C183.02 291.357 182.996 291.071 182.996 290.782C181.996 241.282 233.496 176.782 271.996 130.282C265.226 152.472 258.156 176.592 261.996 200.782C266.673 196.299 271.484 191.475 276.446 186.498C291.501 171.399 307.954 154.898 326.341 142.28C326.732 142.011 327.124 141.745 327.517 141.48C333.804 137.241 340.317 133.466 347.076 130.362C354.058 127.156 361.998 127.592 370.062 130.295C365.718 138.985 361.988 149.7 361.496 166.782C361.716 173.182 362.496 178.782 368.996 185.782C368.919 183.25 368.778 180.589 368.634 177.843C367.836 162.728 366.903 145.032 375.695 132.155C375.718 132.121 375.742 132.086 375.766 132.052C387.952 114.346 393.456 103.361 393.495 86.4643C393.495 86.4036 393.496 86.3428 393.496 86.282C393.534 86.3358 393.572 86.3897 393.61 86.4435C428.924 136.498 427.231 157.073 420.133 171.961ZM241.579 149.894C250.671 138.458 259.509 128.653 267.385 121.186C259.609 114.453 251.509 106.073 245.996 97.782C244.138 94.7191 242.485 91.83 240.673 88.6638L240.672 88.6616L240.671 88.6608C239.538 86.6799 238.342 84.5905 236.996 82.282C232.74 104.342 235.66 128.837 241.579 149.894Z" fill="#174174"/>
<path d="M267.385 121.186C264.9 119.034 262.381 116.714 259.925 114.282C257.578 111.958 255.287 109.533 253.136 107.055C250.636 104.176 248.324 101.225 246.331 98.282C246.218 98.1153 246.106 97.9486 245.995 97.782C244.138 94.7183 242.484 91.8288 240.672 88.6616L240.671 88.6608C239.538 86.6799 238.342 84.5905 236.995 82.282C232.739 104.342 235.66 128.837 241.579 149.894C250.671 138.457 259.509 128.653 267.385 121.186Z" fill="white"/>
<path d="M423.996 180.282C416.416 186.992 411.645 197.472 408.495 206.782C406.711 195.267 411.083 187.855 415.67 180.076C417.208 177.469 418.77 174.82 420.133 171.961C427.239 157.057 428.927 136.453 393.495 86.282C393.495 103.282 387.995 114.282 375.766 132.052C366.898 144.937 367.834 162.688 368.633 177.843C368.778 180.589 368.919 183.25 368.995 185.782C362.495 178.782 361.715 173.182 361.495 166.782C361.988 149.7 365.718 138.985 370.062 130.295C361.997 127.591 354.058 127.156 347.076 130.362C320.04 142.777 296.946 165.938 276.446 186.498C271.484 191.475 266.673 196.299 261.995 200.782C258.155 176.592 265.225 152.472 271.995 130.282C233.495 176.782 181.995 241.282 182.995 290.782C182.995 292.635 183.976 294.348 185.75 297.444C187.326 300.197 189.529 304.043 192.226 310.052C198.4 323.812 201.425 321.023 210.417 312.736C212.188 311.103 214.191 309.257 216.495 307.282C216.995 318.282 209.326 325.772 199.996 325.282C192.22 352.064 179.966 404.226 171.294 441.138L171.294 441.139L171.293 441.141C169.928 446.952 168.652 452.385 167.495 457.282C165.621 463.848 166.215 464.293 167.45 465.218C167.908 465.562 168.454 465.971 168.995 466.782C160.495 466.782 152.495 473.782 156.495 483.282C157.576 481.39 158.292 479.937 158.88 478.744C160.466 475.522 161.117 474.201 165.495 471.282C172.796 467.523 173.495 483.282 172.495 489.282C171.995 472.782 158.728 489.282 159.995 493.782C164.925 511.282 170.996 519.782 179.246 527.032C197.196 540.139 220.73 539.591 240.976 532.262C250.496 528.802 259.495 523.782 263.745 517.032C293.878 474.44 321.995 430.782 350.495 386.282C350.495 386.282 351.995 385.782 345.495 378.282C435.495 396.782 432.495 298.782 419.495 232.782C450.495 293.782 434.495 368.782 398.995 383.782C388.495 388.782 371.977 389.782 359.995 389.782L301.995 476.282L315.995 540.282C374.915 529.607 478.495 492.282 529.995 386.282C517.091 362.66 503.069 336.557 489.046 310.45L489.043 310.445C471.011 276.874 452.975 243.298 437.305 214.982C431.385 204.292 426.295 192.382 423.996 180.282Z" fill="white"/>
<path d="M246.056 97.8728C251.568 106.134 259.637 114.477 267.385 121.186C262.648 125.677 257.563 131.013 252.285 137.041C252.187 137.123 252.091 137.203 251.995 137.282C250.062 133.417 246.729 104.337 246.056 97.8728Z" fill="#C4C3C3"/>
<path d="M398.995 109.282C415.635 130.182 419.835 165.192 400.995 186.282C400.855 184.015 401.275 181.171 401.721 178.157C402.669 171.746 403.731 164.566 399.745 160.532C395.986 156.741 391.455 160.603 387.336 164.115C385.023 166.086 382.84 167.948 380.995 168.282C378.455 146.192 385.275 125.742 398.995 109.282Z" fill="#C4C3C3"/>
<path fill-rule="evenodd" clip-rule="evenodd" d="M240.995 321.282C237.785 319.662 231.495 314.282 227.995 308.782C228.965 326.132 241.495 337.282 263.995 334.282C264.495 338.782 259.495 357.782 257.495 365.282C261.308 360.821 269.995 351.282 269.995 351.282C269.995 351.282 278.495 353.282 288.995 353.282C306.995 351.782 329.995 327.782 328.995 308.282C327.473 318.782 313.995 345.782 290.495 348.782C284.746 349.179 280.495 348.282 271.495 346.782C271.495 346.782 271.495 340.782 271.995 334.282C277.495 334.282 279.995 333.782 282.495 332.282C291.995 337.782 296.995 340.032 305.675 336.962C316.325 334.112 322.995 322.782 318.065 310.212C317.112 307.782 315.995 305.782 313.995 302.282C317.995 293.282 326.495 280.782 329.495 297.782C329.455 296.072 329.495 287.693 329.995 285.282C331.405 278.482 334.465 273.582 340.995 270.282C343.662 269.115 345.995 267.282 361.495 264.782C329.995 264.282 315.495 282.282 297.745 297.032C282.085 310.752 262.885 332.342 240.995 321.282Z" fill="#174174"/>
<path fill-rule="evenodd" clip-rule="evenodd" d="M329.485 296.863C329.472 294.087 329.557 287.394 329.995 285.282C331.392 278.544 334.41 273.672 340.817 270.373C340.876 270.342 340.936 270.312 340.995 270.282C332.255 277.112 332.495 293.282 332.995 304.282C334.995 316.282 336.155 328.752 327.745 337.032C319.335 345.322 312.765 349.712 302.915 354.202C293.075 358.702 284.395 363.432 278.225 372.512C261.995 400.782 250.995 436.782 240.495 471.282C240.851 471.608 241.206 471.929 241.556 472.247L241.558 472.249C247.114 477.284 251.728 481.466 247.495 492.282C245.495 483.782 239.415 474.892 229.995 477.282C234.443 457.305 241.649 428.983 247.595 405.615C252.525 386.239 256.589 370.268 257.495 365.282C257.495 365.282 257.496 365.282 257.496 365.281C261.303 360.826 269.97 351.31 269.995 351.282C269.995 351.282 269.995 351.282 269.995 351.282C270.061 351.297 278.536 353.282 288.995 353.282C306.995 351.782 329.995 327.782 328.995 308.282C329.495 303.282 329.495 302.282 329.495 297.782C329.495 297.782 329.495 297.782 329.495 297.782M329.485 296.863C329.491 297.17 329.495 297.475 329.495 297.781Z" fill="#C4C3C3"/>
<path d="M227.995 308.782C225.495 297.782 224.495 287.782 234.495 274.782C234.475 275.393 234.453 276.011 234.432 276.634C233.936 290.897 233.331 308.348 240.995 321.282C237.785 319.662 231.495 314.282 227.995 308.782Z" fill="#C4C3C3"/>
<circle cx="299.695" cy="328.282" r="6" fill="#D9383B"/>
<path d="M210.43 507.278C217.237 500.421 222.177 498.104 228.745 506.532C232.978 511.957 238.315 510.022 241.429 505.323C240.109 507.835 238.241 510.3 235.875 512.501C228.048 519.781 217.74 521.421 212.85 516.164C210.746 513.903 209.988 510.734 210.43 507.278Z" fill="#E7E7E9"/>
<path d="M243.725 497.284C243.642 499.839 242.855 502.609 241.43 505.323C238.315 510.022 232.979 511.957 228.746 506.532C222.181 498.109 217.244 500.418 210.442 507.265C214.174 502.223 214.931 501.52 218.501 498.21C218.81 497.923 219.14 497.617 219.496 497.286L243.725 497.284Z" fill="#B3B2B3"/>
<path d="M210.442 507.265C214.173 502.223 214.931 501.52 218.5 498.21C218.809 497.924 219.14 497.617 219.495 497.286L243.725 497.284C243.719 497.451 243.711 497.618 243.7 497.786C243.91 494.682 243.11 491.864 241.191 489.801C236.301 484.544 225.993 486.184 218.166 493.464C213.706 497.613 211.015 502.698 210.43 507.278" fill="#C4C3C3"/>
<path d="M172.345 487.185C172.421 487.815 172.472 488.513 172.495 489.282C172.497 489.275 172.498 489.269 172.499 489.263C172.511 489.96 172.484 490.676 172.417 491.404C171.829 497.728 168.355 502.576 164.657 502.233C163.828 502.156 163.058 501.824 162.369 501.285C161.548 498.98 160.758 496.489 159.995 493.782C158.886 489.844 168.909 476.715 171.764 484.557C172.024 485.37 172.221 486.252 172.345 487.185Z" fill="#E7E7E9"/>
<path fill-rule="evenodd" clip-rule="evenodd" d="M530.003 361.78C536.902 376.499 542.353 380.254 545.166 382.193C545.411 382.362 545.636 382.517 545.84 382.664C570.888 400.729 589.692 423.202 598.959 455.131C607.014 455.401 615.356 456.508 624.003 458.28C637.613 461.07 649.878 466.041 662.503 471.939C743.503 509.78 749.503 671.201 616.792 741.673C612.894 743.743 609.117 745.844 606.003 747.781C584.325 764.511 563.325 782.258 546.895 796.143L546.894 796.143C535.091 806.118 525.646 814.099 520.003 818.28C513.503 827.78 500.063 837.72 493.083 842.36C490.667 843.644 488.319 844.971 486.003 846.281C484.162 847.202 482.874 848.468 481.502 849.817C477.66 853.595 473.163 858.017 454.003 857.28C421.453 855.232 393.458 835.251 367.399 816.651L367.398 816.65L367.386 816.642C363.29 813.719 359.243 810.83 355.232 808.05C346.266 801.835 336.871 796.574 327.561 791.361L327.557 791.358C306.207 779.403 285.297 767.695 271.002 745.28C266.157 748.65 261.307 752.09 256.435 755.545C222.437 779.656 187.391 804.51 146.002 811.28C141.902 810.46 137.058 809.927 131.749 809.344C124.113 808.505 115.515 807.559 106.782 805.5C97.2425 803.26 88.4225 801.89 79.3225 805.6C51.5025 813.78 17.0523 811.164 6.68248 783.6C3.58248 775.36 1.04248 765.1 0.222484 756.06C-0.597516 747.02 0.652485 736.61 7.30249 729.59C12.1451 724.478 12.4303 723.993 13.3786 722.379C13.7345 721.773 14.1838 721.008 15.0025 719.78C8.50249 700.78 15.0825 642.36 26.0025 625.78C41.1019 602.854 68.9944 587.787 93.726 574.427C97.5818 572.345 101.361 570.303 105.002 568.28C104.502 550.78 114.002 534.78 123.252 521.53C129.797 512.155 136.855 502.104 145.5 494.259L146.503 493.28L150.003 508.28L149.56 508.699C133.675 524.273 113.159 549.18 121.002 569.28C113.565 572.343 103.065 578.085 97.2066 583.827C96.3697 584.647 95.6275 585.468 95.0025 586.28C114.65 589.188 132.85 597.618 150.002 607.28C157.352 581.313 171.902 558.707 185.186 542.284L185.503 541.78C188.263 542.917 191.078 543.907 194.003 544.78L193.503 545.23C191.45 548.651 188.944 552.663 186.192 557.014C174.522 575.464 158.433 600.902 153.76 621.69C153.092 624.659 152.658 627.534 152.502 630.28L152.534 630.238C171.942 604.158 208.021 574.659 242.003 576.28C265.28 578.482 289.349 596.12 305.246 608.9C307.517 610.726 309.621 612.453 311.533 614.021C317.508 618.924 321.598 622.28 323.003 622.28L325.08 621.381C329.46 619.485 334.321 617.38 339.501 615.152C368.964 602.479 408.737 585.809 428.834 580.779L428.864 580.772C432.698 579.814 435.813 579.28 438.003 579.28C453.367 579.28 461.897 583.061 471.143 587.16L471.144 587.161L471.15 587.163C472.734 587.866 474.339 588.577 476.003 589.28C480.008 533.649 510.5 476.868 563.394 460.088L563.403 460.086C563.683 459.997 563.964 459.909 564.246 459.823C570.521 457.892 577.109 456.521 584.003 455.78L583.985 455.668C580.441 432.691 561.467 405.257 539.503 390.78C535.709 388.28 532.503 384.78 530.003 361.78ZM605.839 732.682C593.66 725.375 571.479 712.066 544.111 699.052C553.139 695.248 559.106 689.191 562.529 685.716L562.532 685.714L562.534 685.711C563.324 684.91 563.978 684.246 564.503 683.78C554.101 675.512 542.845 667.386 532.102 659.63C522.705 652.846 513.701 646.345 506.003 640.28C519.922 645.78 521.503 646.78 535.003 656.78C539.926 660.427 574.503 673.28 585.503 654.78C571.336 641.417 554.503 628.28 536.003 614.28C524.76 608.659 504.943 600.405 487.083 593.629C489.264 566.62 493.977 540.117 503.922 524.2C512.627 508.094 523.079 493.153 538.703 482.98C561.82 466.865 594.05 461.731 624.003 468.387C753.503 502.78 718.003 675.78 605.839 732.682ZM595.297 738.96C589.1 744.38 582.659 749.888 576.106 755.494L576.104 755.495L576.099 755.5C557.327 771.556 537.621 788.41 520.003 806.28C504.721 821.78 491.833 834.29 472.922 843.2C454.023 852.12 426.283 841.6 408.313 831.98C400.886 827.389 394.206 821.87 387.513 816.34C378.605 808.981 369.673 801.601 358.923 796.36C349.091 790.645 340.276 785.254 331.434 779.846C322.36 774.297 313.259 768.731 303.003 762.78C286.796 753.376 283.075 744.556 276.364 728.645C275.152 725.773 273.898 722.922 272.643 720.071L272.642 720.069L272.635 720.053L272.634 720.051C271.967 718.535 271.3 717.019 270.639 715.5C262.058 695.767 254.862 680.126 243.003 660.28C232.738 639.75 193.475 642.148 168.687 643.663C163.29 643.992 158.579 644.28 155.003 644.28C165.857 631.618 177.23 622.526 189.552 612.674C192.159 610.59 194.807 608.473 197.503 606.28C212.933 593.72 238.003 582.28 258.073 592.21C266.643 594.995 286.069 610.185 309.511 628.514C337.162 650.136 370.402 676.127 398.003 691.28L421.222 690.28C455.503 705.78 495.003 736.28 515.503 769.78C516.937 749.22 480.421 709.457 468.48 703.395C479.987 705.796 502.991 710.448 518.503 701.78C521.8 702.32 524.903 702.529 527.819 702.471C554.698 713.792 577.079 725.176 595.297 738.96ZM475.003 622.78C490.503 621.28 507.353 626.94 519.922 635.36C523.058 637.46 525.837 639.581 528.487 641.603L528.489 641.605L528.491 641.606L528.493 641.608L528.495 641.609C538.732 649.422 547.044 655.766 566.503 653.78C564.494 652.074 562.566 650.433 560.71 648.854L560.695 648.841C538.083 629.597 526.286 619.557 511.503 614.28C507.844 612.832 503.733 611.162 499.356 609.385L499.354 609.384C475.018 599.502 442.478 586.289 434.003 589.28C422.024 593.137 410.378 598.121 398.187 603.338C391.66 606.131 384.976 608.99 378.003 611.78C367.003 617.78 356.955 622.876 347.003 626.28C344.006 627.369 340.834 628.19 337.686 629.005C333.984 629.963 330.315 630.913 327.003 632.28C328.119 633.072 329.344 633.945 330.662 634.884L330.676 634.894L330.679 634.896C347.676 647.001 380.181 670.152 395.303 674.92C396.367 674.512 397.438 674.028 398.552 673.525C404.451 670.862 411.533 667.665 424.933 672.35C430.692 674.364 436.514 677.53 442.654 680.869C452.58 686.267 463.337 692.118 476.003 694.28C477.267 694.465 478.59 694.716 479.941 694.973C484.655 695.87 489.728 696.834 494.003 695.28L492.624 694.245C478.857 683.903 448.846 661.359 430.003 649.28C439.003 644.28 462.908 648.78 470.753 654.53C477.184 658.493 483.463 663.721 489.761 668.966C507.702 683.905 525.798 698.973 548.003 685.28C526.003 663.28 499.823 647.72 473.003 634.28C473.147 633.415 473.291 632.301 473.447 631.094L473.448 631.089L473.448 631.084L473.449 631.08C473.834 628.101 474.292 624.557 475.003 622.78ZM141.631 630.008C139.732 639.512 137.577 650.301 134.003 653.28C106.582 659.36 80.5025 668.78 51.0025 689.28C41.0573 695.696 32.0025 702.28 23.0025 710.28C23.0025 707.464 22.9108 704.683 22.8195 701.912C22.6378 696.398 22.4573 690.923 23.0025 685.28C23.0025 671.02 27.0025 653.14 30.9825 640.26C34.9525 627.37 43.7525 616.96 54.7525 610.03C59.5301 607.017 63.4139 603.931 67.0585 601.035C71.7976 597.269 76.1324 593.824 81.5025 591.28C100.47 593.044 122.939 604.148 139.299 612.232L139.301 612.233L139.303 612.235L139.313 612.24C141.492 613.316 143.563 614.34 145.503 615.28C144.088 617.705 142.918 623.561 141.631 630.008ZM222.503 654.78C237.746 675.791 256.722 713.434 266.288 734.427C265.632 734.88 264.976 735.333 264.32 735.786C259.209 739.321 253.983 742.992 248.69 746.709L248.67 746.723C214.591 770.659 177.75 796.534 151.003 800.78C132.528 801.231 113.157 797.379 95.68 793.904C93.7635 793.522 91.8698 793.146 90.0025 792.78C85.0333 793.72 80.1362 794.841 75.3404 795.938L75.3385 795.938L75.337 795.939C62.2795 798.927 49.9725 801.743 39.0025 800.28C16.9965 792.225 8.0025 765.78 13.0025 743.28C17.5025 735.78 22.5249 728.472 28.9225 722.2C62.5025 689.28 102.003 662.28 175.003 661.28C179.781 660.893 184.093 660.705 188.161 660.529L188.163 660.528L188.165 660.528C199.846 660.021 209.524 659.601 222.503 654.78Z" fill="#174174"/>
<path d="M576.106 755.494C582.659 749.888 589.1 744.38 595.297 738.96C577.079 725.176 554.698 713.792 527.82 702.471C524.903 702.528 521.8 702.32 518.503 701.78C502.991 710.448 479.987 705.796 468.481 703.395C480.422 709.457 516.937 749.22 515.503 769.78C495.003 736.28 455.503 705.78 421.223 690.28L398.003 691.28C370.402 676.127 337.162 650.136 309.511 628.514C286.069 610.185 266.643 594.995 258.073 592.21C238.003 582.28 212.933 593.72 197.503 606.28C194.807 608.473 192.159 610.59 189.553 612.674C177.23 622.526 165.857 631.618 155.003 644.28C158.579 644.28 163.29 643.992 168.688 643.663C193.476 642.148 232.738 639.75 243.003 660.28C254.863 680.126 262.058 695.767 270.639 715.5C271.3 717.02 271.968 718.536 272.635 720.053L272.642 720.069L272.643 720.071C273.898 722.922 275.153 725.773 276.364 728.645C283.076 744.556 286.797 753.376 303.003 762.78C313.259 768.731 322.361 774.297 331.434 779.846C340.276 785.254 349.092 790.645 358.923 796.36C369.674 801.601 378.606 808.981 387.513 816.34C394.206 821.87 400.886 827.389 408.313 831.98C426.283 841.6 454.023 852.12 472.923 843.2C491.833 834.29 504.721 821.78 520.003 806.28C537.622 788.41 557.327 771.556 576.099 755.5L576.105 755.495L576.106 755.494Z" fill="white"/>
<path d="M519.923 635.36C507.353 626.94 490.503 621.28 475.003 622.78C474.292 624.557 473.834 628.101 473.449 631.08L473.448 631.084L473.448 631.089L473.447 631.094C473.291 632.301 473.147 633.415 473.003 634.28C499.823 647.72 526.003 663.28 548.003 685.28C525.798 698.973 507.702 683.905 489.762 668.966C483.463 663.721 477.184 658.493 470.753 654.53C462.908 648.78 439.003 644.28 430.003 649.28C448.846 661.359 478.857 683.903 492.625 694.245L494.003 695.28C489.728 696.834 484.656 695.87 479.941 694.973C478.59 694.716 477.268 694.465 476.003 694.28C463.337 692.118 452.58 686.267 442.654 680.869C436.514 677.53 430.692 674.364 424.933 672.35C411.533 667.665 404.451 670.862 398.552 673.525C397.438 674.028 396.367 674.512 395.303 674.92C380.182 670.152 347.676 647.001 330.679 634.896L330.676 634.894L330.663 634.884C329.344 633.945 328.119 633.072 327.003 632.28C330.315 630.913 333.984 629.963 337.686 629.005C340.834 628.19 344.006 627.369 347.003 626.28C356.955 622.876 367.003 617.78 378.003 611.78C384.977 608.99 391.66 606.131 398.187 603.338C410.378 598.121 422.025 593.137 434.003 589.28C442.478 586.289 475.018 599.502 499.355 609.384L499.356 609.385C503.733 611.162 507.845 612.832 511.503 614.28C526.287 619.557 538.083 629.597 560.695 648.841L560.71 648.854C562.566 650.433 564.494 652.074 566.503 653.78C547.045 655.766 538.732 649.422 528.495 641.609L528.494 641.608L528.491 641.606L528.489 641.605L528.488 641.603C525.837 639.581 523.058 637.46 519.923 635.36Z" fill="white"/>
<path d="M141.631 630.008C139.733 639.512 137.578 650.301 134.003 653.28C106.583 659.36 80.5027 668.78 51.0027 689.28C41.0575 695.696 32.0027 702.28 23.0027 710.28C23.0027 707.464 22.9111 704.683 22.8198 701.912C22.638 696.398 22.4576 690.923 23.0027 685.28C23.0027 671.02 27.0027 653.14 30.9827 640.26C34.9527 627.37 43.7527 616.96 54.7527 610.03C59.5304 607.017 63.4141 603.931 67.0587 601.035C71.7978 597.269 76.1326 593.824 81.5027 591.28C100.47 593.044 122.94 604.148 139.299 612.232L139.301 612.233L139.303 612.235L139.313 612.24C141.493 613.316 143.563 614.34 145.503 615.28C144.088 617.705 142.918 623.561 141.631 630.008Z" fill="white"/>
<path d="M266.288 734.427C256.722 713.434 237.746 675.791 222.503 654.78C209.524 659.601 199.846 660.021 188.165 660.528L188.164 660.528C184.095 660.705 179.782 660.893 175.003 661.28C102.003 662.28 62.5027 689.28 28.9227 722.2C22.5251 728.472 17.5027 735.78 13.0027 743.28C8.00274 765.78 16.9967 792.225 39.0027 800.28C49.9727 801.743 62.2798 798.927 75.3372 795.939L75.3387 795.938C80.1352 794.841 85.0329 793.72 90.0027 792.78C91.87 793.146 93.7637 793.522 95.6802 793.904C113.157 797.379 132.529 801.231 151.003 800.78C177.75 796.534 214.591 770.659 248.67 746.723L248.69 746.709C253.983 742.992 259.209 739.321 264.32 735.786C264.976 735.333 265.632 734.88 266.288 734.427Z" fill="white"/>
<path d="M22.8198 701.912C22.9111 704.683 23.0028 707.464 23.0028 710.28C24.9474 708.551 26.8946 706.889 28.8528 705.28C29.0028 692.78 35.0028 644.78 41.5028 636.78C47.0028 626.78 74.0028 602.28 87.0028 592.027C85.1432 591.7 83.3072 591.448 81.5028 591.28C76.1326 593.824 71.7978 597.269 67.0587 601.035C63.4141 603.931 59.5304 607.017 54.7528 610.03C43.7528 616.96 34.9528 627.37 30.9828 640.26C27.0028 653.14 23.0028 671.02 23.0028 685.28C22.4576 690.923 22.638 696.398 22.8198 701.912Z" fill="#D0D1D2"/>
<path d="M41.3494 695.78C44.4892 693.564 47.6968 691.413 51.0028 689.28C60.5028 666.28 91.0028 615.78 111.003 599.237C107.027 597.658 103.002 596.206 99.0028 594.977C93.5028 601.78 45.5028 675.28 41.3494 695.78Z" fill="#D0D1D2"/>
<path d="M308.383 637.335C285.684 621.405 264.173 606.308 248.503 594.78C253.603 599.189 259.839 604.883 267.162 611.571C285.719 628.516 311.258 651.838 343.003 676.78C350.003 682.28 393.503 708.28 414.503 714.78C392.751 696.547 348.693 665.626 308.383 637.335Z" fill="#E7E7E9"/>
<path d="M248.67 698.652C251.792 704.582 254.773 710.449 257.503 715.975C257.503 715.975 45.0027 812.78 19.2458 783.78C12.1088 772.19 9.95353 757.002 13.0027 743.28C17.5406 750.639 22.1748 757.548 41.5027 756.28C101.503 750.28 212.503 718.28 248.67 698.652Z" fill="#E7E7E9"/>
<path d="M134.003 653.28C137.578 650.301 139.733 639.512 141.631 630.008C142.919 623.561 144.088 617.705 145.503 615.28C143.563 614.34 141.493 613.316 139.313 612.24L139.303 612.235L139.301 612.233L139.299 612.232C131.018 608.14 121.169 603.273 111.003 599.237C91.003 615.78 60.503 666.28 51.0029 689.28C76.8154 671.343 100.009 661.888 123.774 655.732C127.169 654.852 130.575 654.04 134.003 653.28Z" fill="#9A9898"/>
<path d="M491.503 724.49C491.503 724.49 537.003 713.78 543.003 717.28C543.817 717.778 544.62 718.264 545.411 718.744L545.42 718.749L545.428 718.754C553.378 723.575 560.277 727.759 568.003 736.28C572.195 740.904 561.413 748.922 547.327 759.398C539.572 765.166 530.815 771.679 523.003 778.78C526.503 787.28 524.504 801.78 524.504 801.78C540.939 785.573 558.91 770.202 576.099 755.5L576.105 755.495C582.659 749.889 589.1 744.38 595.298 738.96C577.079 725.175 554.698 713.792 527.82 702.471C524.904 702.528 521.8 702.32 518.503 701.78C502.992 710.448 479.987 705.796 468.481 703.395C473.423 705.904 482.575 714.186 491.503 724.49Z" fill="#9A9898"/>
<path d="M519.923 635.36C507.353 626.94 490.503 621.28 475.003 622.78C474.832 623.207 474.676 623.737 474.532 624.336C453.176 626.996 465.077 641.81 475.313 645.97C498.003 656.78 515.757 670.409 531.003 686.28C528.823 687.152 519.801 686.883 514.211 686.469C505.797 682.318 497.763 675.629 489.761 668.966L489.76 668.965C483.462 663.721 477.184 658.492 470.753 654.53C462.908 648.78 439.003 644.28 430.003 649.28C430.432 649.555 430.866 649.835 431.306 650.121C429.713 650.766 428.253 651.634 427.003 652.78C427.003 655.765 467.606 688.757 477.362 694.498C476.903 694.419 476.449 694.345 476.003 694.28C463.337 692.118 452.58 686.267 442.654 680.869C436.514 677.53 430.692 674.364 424.933 672.35C411.533 667.665 404.451 670.862 398.552 673.525C397.438 674.028 396.367 674.512 395.303 674.92C380.182 670.152 347.677 647.001 330.68 634.896L330.677 634.894L330.669 634.888L330.668 634.887L330.646 634.872L330.644 634.87L330.628 634.859C329.323 633.929 328.109 633.065 327.003 632.28C330.315 630.913 333.984 629.963 337.686 629.005C340.54 628.266 343.414 627.523 346.159 626.579C350.115 628.596 354.231 630.896 358.501 633.282L358.503 633.282C372.828 641.288 388.891 650.264 406.503 652.78C434.969 642.86 448.925 628.847 459.925 617.803L459.927 617.801C461.678 616.043 463.355 614.359 465.003 612.78C467.063 613.123 469.46 613.499 472.097 613.912C488.664 616.507 514.741 620.591 526.693 627.59C540.935 638.031 548.198 644.959 554.224 650.707L554.228 650.71C555.463 651.889 556.647 653.018 557.828 654.117C544.287 653.661 537.066 648.15 528.495 641.609C525.843 639.585 523.061 637.462 519.923 635.36Z" fill="#C4C3C3"/>
<path d="M472.923 843.2C491.833 834.29 504.721 821.78 520.003 806.28C521.489 804.773 522.99 803.273 524.504 801.78C524.504 801.78 526.503 787.28 523.003 778.78C530.814 771.679 539.571 765.166 547.326 759.399L547.327 759.398C561.413 748.922 572.195 740.904 568.003 736.28C560.277 727.759 553.378 723.575 545.428 718.754C544.631 718.271 543.823 717.781 543.003 717.28C537.003 713.78 491.503 724.49 491.503 724.49C504.147 739.082 516.344 757.729 515.503 769.78C495.003 736.28 455.503 705.78 421.223 690.28L403.003 691.065C451.003 707.78 489.003 806.78 464.503 795.28C427.003 779.28 353.503 726.78 304.503 688.28C326.793 739.866 391.266 778.068 431.406 801.851C454.293 815.412 469.268 824.286 464.003 828.28C429.309 856.469 336.871 770.28 272.003 670.28C242.445 631.808 225.214 621.775 218.657 617.958C218.227 617.707 217.842 617.483 217.503 617.28C207.503 611.28 188.003 627.28 173.503 643.374C198.278 641.938 233.381 641.036 243.003 660.28C254.863 680.126 262.059 695.767 270.639 715.499C271.298 717.013 271.962 718.524 272.627 720.035L272.63 720.042L272.633 720.047L272.635 720.052L272.635 720.053L272.642 720.069L272.643 720.071C273.898 722.922 275.153 725.773 276.364 728.645C283.076 744.556 286.797 753.376 303.003 762.78C313.259 768.731 322.361 774.297 331.434 779.846C340.276 785.254 349.092 790.645 358.923 796.36C369.674 801.601 378.606 808.981 387.513 816.34C394.206 821.87 400.886 827.389 408.313 831.98C426.283 841.6 454.023 852.12 472.923 843.2Z" fill="#C4C3C3"/>
<path d="M266.288 734.427C265.632 734.88 264.976 735.333 264.32 735.786C259.21 739.321 253.985 742.991 248.692 746.708L248.69 746.709L248.67 746.723C214.591 770.659 177.75 796.534 151.003 800.78C132.529 801.231 113.157 797.379 95.6804 793.904L95.6716 793.902C94.7769 793.724 93.8873 793.547 93.0029 793.372L261.302 723.78C263.152 727.638 264.83 731.226 266.288 734.427Z" fill="#C4C3C3"/>
<path d="M471.144 587.16C472.73 587.863 474.337 588.576 476.003 589.28C480.503 526.78 518.433 462.83 584.003 455.78C580.503 432.78 561.503 405.28 539.503 390.78C524.503 423.28 489.003 474.584 442.503 502.28C397.423 529.13 357.503 544.28 307.503 549.78L296.503 485.28C296.03 485.979 295.56 486.673 295.094 487.362C263.5 534.043 246.224 559.528 193.503 545.24C191.45 548.661 188.944 552.663 186.192 557.014C172.856 578.1 153.746 608.313 152.503 630.28C171.904 604.189 208.003 574.658 242.003 576.28C268.606 578.797 296.243 601.474 311.533 614.021C317.508 618.924 321.598 622.28 323.003 622.28C323.683 621.986 324.375 621.686 325.081 621.381C359.14 606.635 422.328 579.28 438.003 579.28C453.367 579.28 461.898 583.061 471.144 587.16Z" fill="#ED1F23"/>
<path d="M544.111 699.052C571.48 712.066 593.66 725.375 605.84 732.682C718.003 675.78 753.503 502.78 624.003 468.387C594.051 461.731 561.821 466.865 538.703 482.98C523.08 493.153 512.628 508.094 503.923 524.2C493.977 540.117 489.265 566.62 487.084 593.629C504.943 600.405 524.761 608.659 536.003 614.28C554.503 628.28 571.337 641.417 585.503 654.78C574.503 673.28 539.927 660.427 535.003 656.78C521.503 646.78 519.923 645.78 506.003 640.28C513.701 646.345 522.706 652.846 532.102 659.63C542.845 667.386 554.101 675.512 564.503 683.78C563.978 684.247 563.324 684.91 562.534 685.712L562.532 685.714L562.53 685.716C559.107 689.191 553.139 695.248 544.111 699.052Z" fill="#ED1F23"/>
<path d="M149.56 508.699C133.675 524.273 113.159 549.18 121.003 569.28C112.503 572.78 100.003 579.78 95.0029 586.28C114.65 589.188 132.851 597.618 150.003 607.28C157.352 581.313 171.902 558.707 185.186 542.284C169.211 535.701 156.255 524.652 149.56 508.699Z" fill="#ED1F23"/>
<path d="M670.257 533.28C685.503 568.78 673.003 623.28 658.003 660.78C711.003 584.28 694.503 548.78 670.257 533.28Z" fill="#F19B9B"/>
<path d="M577.937 436.318C538.492 458.79 528.472 468.091 512.753 483.03C492.84 501.994 478.753 522.78 465.233 548.51C464.874 549.14 464.482 549.874 464.057 550.668C461.139 556.122 456.677 564.462 451.003 562.28C450.255 561.79 449.561 561.328 448.912 560.895C445.7 558.755 443.564 557.331 441.223 556.788C436.573 555.71 431.116 558.111 414.816 565.283C408.819 567.921 401.355 571.206 391.923 575.2C384.962 578.221 378.325 581.178 371.866 584.055L371.862 584.057C358.912 589.827 346.68 595.276 334.003 600.28C317.503 587.78 324.873 581.41 338.003 581.28C347.503 580.28 361.003 576.78 373.073 572.35C423.003 552.78 467.003 518.28 501.753 483.03C527.908 458.868 542.894 440.414 564.269 414.068C569.769 421.09 574.455 428.69 577.937 436.318Z" fill="#EB7070"/>
<path d="M605.84 732.682C605.967 732.618 606.094 732.553 606.22 732.489C606.335 732.43 606.45 732.371 606.564 732.312C624.617 701.062 640.888 658.381 648.944 637.248C650.157 634.066 651.184 631.372 652.003 629.28C660.219 608.28 665.003 548.28 652.003 516.28C637.644 489.469 597.16 465.479 565.694 470.172C565.438 470.248 565.183 470.325 564.928 470.403C561.658 475.815 557.834 481.626 553.777 487.792C536.1 514.653 514.003 548.232 514.003 584.78C513.503 587.78 524.003 601.28 534.503 613.28C534.681 613.409 534.859 613.539 535.037 613.669C535.222 613.804 535.406 613.939 535.591 614.075C535.73 614.143 535.867 614.212 536.003 614.28C553.411 627.454 569.344 639.863 582.967 652.416C583.314 652.706 583.659 652.994 584.003 653.28C584.317 653.577 584.587 653.788 584.818 653.969C585.515 654.515 585.86 654.786 586.003 656.28C586.513 661.64 578.703 668.18 573.773 670.05C568.843 671.92 556.903 674.59 551.003 673.28L551.055 673.461C555.621 676.864 560.137 680.31 564.503 683.78C563.978 684.247 563.323 684.911 562.533 685.713L562.531 685.715L562.53 685.716C560.992 687.277 558.942 689.358 556.331 691.522C558.279 698.101 560.249 704.625 561.248 707.554C580.69 717.592 596.32 726.97 605.84 732.682Z" fill="#EB7070"/>
<path d="M185.186 542.284C171.902 558.707 157.352 581.313 150.003 607.28C137.601 600.294 124.651 593.952 111.003 589.876C115.418 587.228 119.298 585.019 122.783 583.034C129.955 578.95 135.456 575.818 140.503 571.78L140.743 571.449C151.103 557.142 157.63 548.129 167.759 532.28C172.954 536.34 178.832 539.665 185.186 542.284Z" fill="#EB7070"/>
<path d="M275.93 514.718C258.638 537.526 242.69 550.512 215.998 549.143C199.714 561.328 180.503 575.78 177.003 599.28C206.503 579.78 243.103 563.01 274.503 583.28C271.663 576.4 263.413 552.6 274.923 556.36C283.298 561.59 287.913 566.581 292.475 571.513C293.948 573.106 295.416 574.693 297.003 576.28C296.003 558.78 284.003 525.78 275.93 514.718Z" fill="#EB7070"/>
<path d="M463.003 508.78C488.96 492.058 529.993 441.209 553.886 402.47C550.699 399.362 547.365 396.482 543.932 393.903C517.973 439.318 501.471 460.309 466.753 492.03C428.348 522.623 378.834 535.704 328.178 549.086L328.174 549.087C320.465 551.123 312.73 553.167 305.003 555.28C302.761 543.433 299.657 531.814 296.551 520.188C294.292 511.734 292.032 503.275 290.102 494.722C287.722 498.218 285.415 501.576 283.155 504.787L301.003 564.28C347.503 555.28 432.503 530.78 463.003 508.78Z" fill="white"/>
<path d="M104.104 578.335C108.022 575.679 112.448 573.229 116.496 571.292C129.968 571.75 148.369 579.667 158.335 584.889C156.658 588.531 155.092 592.272 153.666 596.102C146.427 590.446 126.249 579.601 104.104 578.335Z" fill="white"/>
<path d="M555.737 692.008C568.94 696.156 612.729 715.334 622.832 722.815C627.27 719.894 631.559 716.786 635.694 713.51C626.808 708.665 580.326 686.936 564.191 684.065C563.726 684.502 563.176 685.061 562.536 685.71L562.532 685.714L562.53 685.716L562.53 685.717C560.878 687.394 558.633 689.672 555.737 692.008Z" fill="white"/>
</g>
<defs>
<clipPath id="clip0_29_3798">
<rect width="898" height="858" fill="white"/>
</clipPath>
</defs>
</svg>
