<svg width="898" height="858" viewBox="0 0 898 858" fill="none" xmlns="http://www.w3.org/2000/svg">
<g clip-path="url(#clip0_29_3783)">
<path fill-rule="evenodd" clip-rule="evenodd" d="M291.45 162.051C332.241 143.937 370.537 129.999 406.423 119.572C415.13 131.059 424.265 141.133 433.837 149.934C445.974 150.236 458.396 150.956 471.019 152.1C454.959 142.143 439.86 129.658 426.075 114.145C577.649 74.5061 684.297 98.4154 752.848 131.846C692.453 87.3109 580.364 51.4875 413.977 83.5233C418.762 76.5112 438.548 47.969 453.399 33.2909L460.724 67.4412C460.724 67.4412 460.306 79.0565 474.185 67.3125L512.368 18.893C512.368 18.893 703.508 -15.3051 815.979 162.834C798.585 164.725 778.704 168.072 757.17 171.699C753.096 172.385 748.962 173.081 744.775 173.779C750.775 177.999 756.809 182.515 762.845 187.345C767.473 186.652 772.137 185.951 776.837 185.245L776.841 185.245C797.436 182.151 818.729 178.953 840.735 175.875C840.735 175.875 748.055 -23.7659 507.338 3.0724L472.689 47.3662L464.304 6.8476C464.304 6.8476 426.686 24.9512 393.225 87.8128C363.073 94.4669 331.227 103.31 297.672 114.668L291.45 162.051ZM512.045 193.739C511.98 193.43 511.917 193.121 511.857 192.813C510.593 192.719 509.329 192.628 508.066 192.541C509.386 192.953 510.713 193.352 512.045 193.739Z" fill="#174174"/>
<path fill-rule="evenodd" clip-rule="evenodd" d="M752.849 131.846C692.454 87.3108 580.364 51.4873 413.978 83.5232C418.763 76.5111 438.549 47.9688 453.399 33.2907L460.725 67.441C460.725 67.441 460.307 79.0563 474.185 67.3123L512.369 18.8929C512.369 18.8929 703.508 -15.3053 815.979 162.834C798.585 164.724 778.704 168.072 757.17 171.698C753.096 172.385 748.962 173.081 744.775 173.779C673.301 123.5 606.743 115.061 601.99 115.437L577.497 131.631L580.705 117.612C577.988 105.678 566.878 109.409 555.92 115.112C530.46 133.365 517.702 146.452 511.914 157.199C498.124 155.016 484.459 153.318 471.02 152.101C454.96 142.143 439.861 129.658 426.076 114.145C577.649 74.506 684.297 98.4152 752.849 131.846Z" fill="white"/>
<path d="M512.381 18.8908C514.12 18.584 692.581 -12.4686 805.478 147.122C782.277 120.712 653.497 -11.0674 461.772 75.95C446.371 77.8483 430.44 80.3537 413.978 83.5233C418.165 77.3877 433.837 54.7681 447.638 39.3759C449.609 37.1771 451.543 35.1257 453.399 33.291L460.725 67.4412C460.725 67.4412 460.698 68.1672 460.876 69.0726C461.365 71.5625 463.395 75.4098 471.747 69.2493C472.506 68.6892 473.318 68.0465 474.185 67.3125L512.361 18.9025L512.369 18.8936C512.369 18.8936 512.373 18.8927 512.381 18.8908Z" fill="#A6B1B8"/>
<mask id="path-4-inside-1_29_3783" fill="white">
<path fill-rule="evenodd" clip-rule="evenodd" d="M296.203 170.37C296.203 170.37 334.826 189.671 343.997 200.517C398.4 192.236 455.004 188.563 511.858 192.811C513.369 200.56 516.527 208.496 521.097 216.531C512.718 221 505.159 227.41 499.752 236.717C449.38 220.923 400.481 214.071 359.648 219.439C359.648 219.439 381.051 244.007 385.327 253.885C404.894 252.875 443.859 256.934 491.363 269.12L491.356 269.315C491.353 269.411 491.35 269.507 491.347 269.603C491.347 269.603 504.561 324.167 562.913 347.22C562.913 347.22 571.758 339.479 572.281 333.098L573.43 334.895C575.333 337.87 577.373 341.059 579.559 344.44C584.322 342.952 589.342 341.772 594.579 341.013C584.848 325.782 577.764 312.679 573.026 302.83C573.026 302.83 558.814 285.351 555.448 306.12L553.659 328.558C553.659 328.558 518.655 311.006 509.466 274.443L509.511 274.064C610.315 303.125 740.951 367.521 809.495 493.131C804.077 473.221 794.682 453.351 782.11 433.917L785.531 437.082L831.921 480.645L839.189 546.265C801.778 529.869 768.865 510.9 740.06 490.808C744.585 500.569 748.714 510.491 752.415 520.499C778.202 537.067 807.256 552.76 840 566.73C840 566.73 850.919 573.323 852.911 558.285C852.911 558.285 852.036 501.972 847.376 483.433C847.376 483.433 843.277 470.275 836.025 464.766C836.025 464.766 796.32 422.741 775.122 411.596C775.122 411.596 813.016 426.418 838.392 447.382C831.555 428.764 823.589 411.22 814.807 394.777C847.21 403.553 874.139 406.861 890.045 402.667C890.045 402.667 899.596 403.834 896.655 391.773C819.398 142.649 610.548 114.758 601.991 115.435L577.497 131.629L580.706 117.61C577.988 105.676 566.879 109.406 555.921 115.109C530.461 133.363 517.702 146.45 511.914 157.197C427.49 143.83 347.72 148.671 296.203 170.37ZM568.538 205.568C559.827 206.255 548.239 207.17 536.695 210.404C533.323 204.961 530.76 199.679 529.104 194.611L529.115 194.346C637.095 205.515 745.267 246.431 840.288 339.744C774.714 241.47 649.767 182.943 530.57 160.435L530.603 159.676C530.603 159.676 542.86 141.465 560.231 132.138L553.598 149.718C553.598 149.718 549.392 168.2 571.565 154.787L605.432 132.747C605.432 132.747 796.206 149.029 879.46 387.506C857.965 387.919 831.831 383.321 803.611 375.105C739.97 269.914 644.784 215.646 615.253 220.309C605.706 225.109 590.455 232.617 578.396 238.553L578.289 238.606C573.481 240.973 569.186 243.087 565.971 244.676C565.811 244.526 565.652 244.375 565.493 244.224L564.908 245.202C565.976 243.417 566.953 241.786 567.849 240.29C577.006 225.004 577.708 223.833 581.075 216.017C581.836 206.613 576.934 203.823 569.079 205.525L568.538 205.568ZM513.394 241.188L513.393 241.2C523.886 244.805 534.417 248.782 544.927 253.102C543.932 248.831 560.794 221.261 560.794 221.261C536.98 222.094 513.394 241.188 513.394 241.188ZM565.729 262.111C637.621 294.841 706.678 342.861 753.764 396.656L753.757 396.642C768.056 393.299 810.757 416.085 810.757 416.085C705.565 239.733 616.031 236.912 616.031 236.912L565.923 262.195L565.729 262.111Z"/>
<path fill-rule="evenodd" clip-rule="evenodd" d="M621.318 381.575C621.24 381.699 621.169 381.812 621.102 381.913C628.357 378.879 654.259 376.313 658.645 376.609C755.698 465.998 809.002 639.293 749.264 730.923C742.638 741.086 737.594 731.786 737.594 731.786C698.229 697 649.019 638.518 649.019 638.518L653.753 547.309C629.464 576.269 635.661 604.086 635.661 604.086C634.136 614.556 626.388 609.14 626.388 609.14C569.149 538.413 559.999 495.628 559.999 495.628C559.116 492.934 559.509 451.95 559.509 451.95L547.485 472.873C540.898 477.026 537.033 471.34 537.033 471.34C518.304 426.723 531.315 378.598 531.315 378.598C531.38 378.448 531.45 378.296 531.525 378.14C497.26 354.598 460.992 336.285 424.893 325.712L420.275 322.472L417.128 289.317C456.288 291.23 506.034 317.407 554.133 356.603C573.111 344.418 601.923 334.524 634.152 344.236C634.174 344.243 634.229 344.253 634.311 344.268C635.527 344.483 642.779 345.77 638.825 355.408C633.096 360.832 626.935 371.724 623.43 377.919C623.005 378.67 622.619 379.352 622.278 379.947C622.546 380.288 622.816 380.63 623.086 380.973C622.422 381.171 621.829 381.372 621.318 381.575ZM623.803 354.541C597.233 345.968 569.074 363.349 565.194 365.871C575.024 374.334 584.744 383.312 594.249 392.706L623.803 354.541ZM725.951 651.849C734.137 576.566 677.043 478.38 604.572 403.163L604.601 403.192C604.601 403.192 636.678 387.601 652.615 388.238C652.615 388.238 815.004 558.64 740.813 717.767L663.427 635.223L669.055 527.259C669.055 527.259 663.159 521.334 658.149 521.033L653.133 523.686C653.133 523.686 629.429 556.063 622.259 582.013C622.259 582.013 585.833 531.169 576.161 501.942C576.161 501.942 572.651 493.55 573.289 478.306L575.502 428.459C575.502 428.459 572.605 410.76 561.627 425.162L546.493 450.803C546.493 450.803 535.186 410.579 543.961 386.977C637.097 455.368 712.967 561.258 725.951 651.849Z"/>
</mask>
<path fill-rule="evenodd" clip-rule="evenodd" d="M296.203 170.37C296.203 170.37 334.826 189.671 343.997 200.517C398.4 192.236 455.004 188.563 511.858 192.811C513.369 200.56 516.527 208.496 521.097 216.531C512.718 221 505.159 227.41 499.752 236.717C449.38 220.923 400.481 214.071 359.648 219.439C359.648 219.439 381.051 244.007 385.327 253.885C404.894 252.875 443.859 256.934 491.363 269.12L491.356 269.315C491.353 269.411 491.35 269.507 491.347 269.603C491.347 269.603 504.561 324.167 562.913 347.22C562.913 347.22 571.758 339.479 572.281 333.098L573.43 334.895C575.333 337.87 577.373 341.059 579.559 344.44C584.322 342.952 589.342 341.772 594.579 341.013C584.848 325.782 577.764 312.679 573.026 302.83C573.026 302.83 558.814 285.351 555.448 306.12L553.659 328.558C553.659 328.558 518.655 311.006 509.466 274.443L509.511 274.064C610.315 303.125 740.951 367.521 809.495 493.131C804.077 473.221 794.682 453.351 782.11 433.917L785.531 437.082L831.921 480.645L839.189 546.265C801.778 529.869 768.865 510.9 740.06 490.808C744.585 500.569 748.714 510.491 752.415 520.499C778.202 537.067 807.256 552.76 840 566.73C840 566.73 850.919 573.323 852.911 558.285C852.911 558.285 852.036 501.972 847.376 483.433C847.376 483.433 843.277 470.275 836.025 464.766C836.025 464.766 796.32 422.741 775.122 411.596C775.122 411.596 813.016 426.418 838.392 447.382C831.555 428.764 823.589 411.22 814.807 394.777C847.21 403.553 874.139 406.861 890.045 402.667C890.045 402.667 899.596 403.834 896.655 391.773C819.398 142.649 610.548 114.758 601.991 115.435L577.497 131.629L580.706 117.61C577.988 105.676 566.879 109.406 555.921 115.109C530.461 133.363 517.702 146.45 511.914 157.197C427.49 143.83 347.72 148.671 296.203 170.37ZM568.538 205.568C559.827 206.255 548.239 207.17 536.695 210.404C533.323 204.961 530.76 199.679 529.104 194.611L529.115 194.346C637.095 205.515 745.267 246.431 840.288 339.744C774.714 241.47 649.767 182.943 530.57 160.435L530.603 159.676C530.603 159.676 542.86 141.465 560.231 132.138L553.598 149.718C553.598 149.718 549.392 168.2 571.565 154.787L605.432 132.747C605.432 132.747 796.206 149.029 879.46 387.506C857.965 387.919 831.831 383.321 803.611 375.105C739.97 269.914 644.784 215.646 615.253 220.309C605.706 225.109 590.455 232.617 578.396 238.553L578.289 238.606C573.481 240.973 569.186 243.087 565.971 244.676C565.811 244.526 565.652 244.375 565.493 244.224L564.908 245.202C565.976 243.417 566.953 241.786 567.849 240.29C577.006 225.004 577.708 223.833 581.075 216.017C581.836 206.613 576.934 203.823 569.079 205.525L568.538 205.568ZM513.394 241.188L513.393 241.2C523.886 244.805 534.417 248.782 544.927 253.102C543.932 248.831 560.794 221.261 560.794 221.261C536.98 222.094 513.394 241.188 513.394 241.188ZM565.729 262.111C637.621 294.841 706.678 342.861 753.764 396.656L753.757 396.642C768.056 393.299 810.757 416.085 810.757 416.085C705.565 239.733 616.031 236.912 616.031 236.912L565.923 262.195L565.729 262.111Z" stroke="#174174" stroke-width="6" stroke-dasharray="10 10" mask="url(#path-4-inside-1_29_3783)"/>
<path fill-rule="evenodd" clip-rule="evenodd" d="M621.318 381.575C621.24 381.699 621.169 381.812 621.102 381.913C628.357 378.879 654.259 376.313 658.645 376.609C755.698 465.998 809.002 639.293 749.264 730.923C742.638 741.086 737.594 731.786 737.594 731.786C698.229 697 649.019 638.518 649.019 638.518L653.753 547.309C629.464 576.269 635.661 604.086 635.661 604.086C634.136 614.556 626.388 609.14 626.388 609.14C569.149 538.413 559.999 495.628 559.999 495.628C559.116 492.934 559.509 451.95 559.509 451.95L547.485 472.873C540.898 477.026 537.033 471.34 537.033 471.34C518.304 426.723 531.315 378.598 531.315 378.598C531.38 378.448 531.45 378.296 531.525 378.14C497.26 354.598 460.992 336.285 424.893 325.712L420.275 322.472L417.128 289.317C456.288 291.23 506.034 317.407 554.133 356.603C573.111 344.418 601.923 334.524 634.152 344.236C634.174 344.243 634.229 344.253 634.311 344.268C635.527 344.483 642.779 345.77 638.825 355.408C633.096 360.832 626.935 371.724 623.43 377.919C623.005 378.67 622.619 379.352 622.278 379.947C622.546 380.288 622.816 380.63 623.086 380.973C622.422 381.171 621.829 381.372 621.318 381.575ZM623.803 354.541C597.233 345.968 569.074 363.349 565.194 365.871C575.024 374.334 584.744 383.312 594.249 392.706L623.803 354.541ZM725.951 651.849C734.137 576.566 677.043 478.38 604.572 403.163L604.601 403.192C604.601 403.192 636.678 387.601 652.615 388.238C652.615 388.238 815.004 558.64 740.813 717.767L663.427 635.223L669.055 527.259C669.055 527.259 663.159 521.334 658.149 521.033L653.133 523.686C653.133 523.686 629.429 556.063 622.259 582.013C622.259 582.013 585.833 531.169 576.161 501.942C576.161 501.942 572.651 493.55 573.289 478.306L575.502 428.459C575.502 428.459 572.605 410.76 561.627 425.162L546.493 450.803C546.493 450.803 535.186 410.579 543.961 386.977C637.097 455.368 712.967 561.258 725.951 651.849Z" stroke="#174174" stroke-width="6" stroke-dasharray="10 10" mask="url(#path-4-inside-1_29_3783)"/>
<path fill-rule="evenodd" clip-rule="evenodd" d="M223.496 89.282L223.652 88.6013C226.612 75.7575 229.992 61.0855 244.496 61.282C245.836 72.7679 248.409 78.5656 251.463 85.4437C251.801 86.2067 252.146 86.9831 252.496 87.782C254.186 89.5665 255.806 91.2099 257.359 92.7851C264.072 99.5951 269.529 105.13 273.996 115.282C335.032 98.9147 360.792 92.7387 384.92 88.075C384.874 81.7742 384.001 74.345 381.996 65.282C411.045 90.4868 442.285 135.766 432.678 166.193C434.459 172.597 436.231 179.594 437.996 187.282C440.043 200.385 444.103 207.788 448.801 216.355C449.84 218.249 450.909 220.2 451.996 222.282C473.996 256.782 522.916 344.782 538.996 379.782C541.481 385.192 540.589 387.714 539.496 390.782C524.496 423.282 488.996 474.586 442.496 502.282C397.416 529.132 357.496 544.282 307.496 549.782L296.496 485.282C296.023 485.981 295.553 486.675 295.086 487.364C277.223 513.758 263.937 533.39 246.232 542.884C240.871 545.659 235.003 547.657 228.481 548.656C219.088 549.972 208.294 549.105 195.322 545.765C164.435 537.126 141.257 514.159 144.996 474.282C145.679 466.99 150.125 464.322 154.305 461.813C156.714 460.368 159.034 458.975 160.496 456.782C164.283 437.846 169.089 419.588 173.43 403.097C176.539 391.286 179.409 380.381 181.496 370.782C182.109 367.573 182.991 364.368 183.87 361.173C186.445 351.815 188.992 342.556 184.676 333.602C180.486 324.927 178.65 316.899 176.683 308.301C175.927 304.995 175.152 301.605 174.216 298.062C171.728 285.458 173.189 276.852 174.007 272.032L174.008 272.03C174.084 271.581 174.154 271.165 174.216 270.782C185.524 235.336 206.711 197.764 228.39 167.412C234.88 156.844 231.489 146.98 228.201 137.416C227.61 135.696 227.022 133.985 226.496 132.282C222.926 120.692 221.186 101.382 223.496 89.282ZM420.133 171.961C418.77 174.82 417.208 177.469 415.67 180.076C411.083 187.855 406.712 195.267 408.496 206.782C411.646 197.472 416.416 186.992 423.996 180.282C426.296 192.382 431.386 204.292 437.306 214.982C452.975 243.298 471.011 276.874 489.043 310.445L489.046 310.451L489.049 310.456L489.053 310.462C503.074 336.565 517.093 362.663 529.996 386.282C478.496 492.282 374.915 529.607 315.996 540.282L301.996 476.282L359.996 389.782C371.977 389.782 388.496 388.782 398.996 383.782C434.496 368.782 450.496 293.782 419.496 232.782C432.496 298.782 435.496 396.782 345.496 378.282C351.996 385.782 350.496 386.282 350.496 386.282C348.714 389.063 346.935 391.841 345.156 394.616C318.473 436.235 291.995 477.102 263.746 517.032C263.214 517.876 262.609 518.693 261.938 519.483C257.238 525.013 249.306 529.235 240.976 532.262C238.445 533.178 235.863 533.988 233.247 534.679C214.934 539.515 194.952 538.501 179.246 527.032C178.214 526.126 177.217 525.2 176.252 524.24C169.496 517.516 164.309 509.095 159.996 493.782C159.837 493.22 159.906 492.47 160.148 491.62C161.845 485.673 172.058 474.845 172.496 489.281C172.621 488.531 172.719 487.629 172.781 486.632C173.218 479.647 171.884 467.993 165.496 471.282C165.222 471.465 164.963 471.641 164.717 471.812C161.032 474.374 160.367 475.724 158.88 478.744L158.874 478.757C158.802 478.902 158.729 479.051 158.653 479.204C158.108 480.307 157.442 481.627 156.496 483.282C156.246 482.688 156.043 482.104 155.883 481.531C153.498 472.934 161.027 466.782 168.996 466.782C168.979 466.758 168.963 466.734 168.947 466.71C168.929 466.684 168.912 466.659 168.894 466.635C168.387 465.92 167.88 465.54 167.451 465.219C167.142 464.987 166.873 464.786 166.673 464.511C166.072 463.688 166.09 462.206 167.496 457.282C168.628 452.484 169.877 447.171 171.211 441.491L171.294 441.141L171.294 441.139L171.294 441.138C172.378 436.524 173.518 431.672 174.698 426.661C182.959 391.583 193.192 348.717 199.996 325.282C206.088 325.602 211.472 322.52 214.336 317.28C215.859 314.495 216.669 311.1 216.496 307.282C214.191 309.257 212.188 311.103 210.417 312.736C208.169 314.808 206.294 316.536 204.65 317.748C199.716 321.383 196.856 320.372 192.226 310.052C192.057 309.676 191.891 309.309 191.726 308.95C189.256 303.566 187.228 300.025 185.75 297.444C185.639 297.251 185.532 297.063 185.427 296.88C184.119 294.591 183.303 293.088 183.067 291.646C183.02 291.357 182.996 291.071 182.996 290.782C181.996 241.282 233.496 176.782 271.996 130.282C265.226 152.472 258.156 176.592 261.996 200.782C266.673 196.299 271.484 191.475 276.446 186.498C291.501 171.399 307.954 154.898 326.341 142.28C326.732 142.011 327.124 141.745 327.517 141.48C333.804 137.241 340.317 133.466 347.076 130.362C354.058 127.156 361.998 127.592 370.062 130.295C365.718 138.985 361.988 149.7 361.496 166.782C361.716 173.182 362.496 178.782 368.996 185.782C368.919 183.25 368.778 180.589 368.634 177.843C367.836 162.728 366.903 145.032 375.695 132.155C375.718 132.121 375.742 132.086 375.766 132.052C387.952 114.346 393.456 103.361 393.495 86.4643C393.495 86.4036 393.496 86.3428 393.496 86.282C393.534 86.3358 393.572 86.3897 393.61 86.4435C428.924 136.498 427.231 157.073 420.133 171.961ZM241.579 149.894C250.671 138.458 259.509 128.653 267.385 121.186C259.609 114.453 251.509 106.073 245.996 97.782C244.138 94.7191 242.485 91.83 240.673 88.6638L240.672 88.6616L240.671 88.6608C239.538 86.6799 238.342 84.5905 236.996 82.282C232.74 104.342 235.66 128.837 241.579 149.894Z" fill="#174174"/>
<path d="M267.385 121.186C264.9 119.034 262.381 116.714 259.925 114.282C257.578 111.958 255.287 109.533 253.136 107.055C250.636 104.176 248.324 101.225 246.331 98.282C246.218 98.1153 246.106 97.9486 245.995 97.782C244.138 94.7183 242.484 91.8288 240.672 88.6616L240.671 88.6608C239.538 86.6799 238.342 84.5905 236.995 82.282C232.739 104.342 235.66 128.837 241.579 149.894C250.671 138.457 259.509 128.653 267.385 121.186Z" fill="white"/>
<path d="M423.996 180.282C416.416 186.992 411.645 197.472 408.495 206.782C406.711 195.267 411.083 187.855 415.67 180.076C417.208 177.469 418.77 174.82 420.133 171.961C427.239 157.057 428.927 136.453 393.495 86.282C393.495 103.282 387.995 114.282 375.766 132.052C366.898 144.937 367.834 162.688 368.633 177.843C368.778 180.589 368.919 183.25 368.995 185.782C362.495 178.782 361.715 173.182 361.495 166.782C361.988 149.7 365.718 138.985 370.062 130.295C361.997 127.591 354.058 127.156 347.076 130.362C320.04 142.777 296.946 165.938 276.446 186.498C271.484 191.475 266.673 196.299 261.995 200.782C258.155 176.592 265.225 152.472 271.995 130.282C233.495 176.782 181.995 241.282 182.995 290.782C182.995 292.635 183.976 294.348 185.75 297.444C187.326 300.197 189.529 304.043 192.226 310.052C198.4 323.812 201.425 321.023 210.417 312.736C212.188 311.103 214.191 309.257 216.495 307.282C216.995 318.282 209.326 325.772 199.996 325.282C192.22 352.064 179.966 404.226 171.294 441.138L171.294 441.139L171.293 441.141C169.928 446.952 168.652 452.385 167.495 457.282C165.621 463.848 166.215 464.293 167.45 465.218C167.908 465.562 168.454 465.971 168.995 466.782C160.495 466.782 152.495 473.782 156.495 483.282C157.576 481.39 158.292 479.937 158.88 478.744C160.466 475.522 161.117 474.201 165.495 471.282C172.796 467.523 173.495 483.282 172.495 489.282C171.995 472.782 158.728 489.282 159.995 493.782C164.925 511.282 170.996 519.782 179.246 527.032C197.196 540.139 220.73 539.591 240.976 532.262C250.496 528.802 259.495 523.782 263.745 517.032C293.878 474.44 321.995 430.782 350.495 386.282C350.495 386.282 351.995 385.782 345.495 378.282C435.495 396.782 432.495 298.782 419.495 232.782C450.495 293.782 434.495 368.782 398.995 383.782C388.495 388.782 371.977 389.782 359.995 389.782L301.995 476.282L315.995 540.282C374.915 529.607 478.495 492.282 529.995 386.282C517.091 362.66 503.069 336.557 489.046 310.45L489.043 310.445C471.011 276.874 452.975 243.298 437.305 214.982C431.385 204.292 426.295 192.382 423.996 180.282Z" fill="white"/>
<path d="M246.056 97.8728C251.568 106.134 259.637 114.477 267.385 121.186C262.648 125.677 257.563 131.013 252.285 137.041C252.187 137.123 252.091 137.203 251.995 137.282C250.062 133.417 246.729 104.337 246.056 97.8728Z" fill="#C4C3C3"/>
<path d="M398.995 109.282C415.635 130.182 419.835 165.192 400.995 186.282C400.855 184.015 401.275 181.171 401.721 178.157C402.669 171.746 403.731 164.566 399.745 160.532C395.986 156.741 391.455 160.603 387.336 164.115C385.023 166.086 382.84 167.948 380.995 168.282C378.455 146.192 385.275 125.742 398.995 109.282Z" fill="#C4C3C3"/>
<path fill-rule="evenodd" clip-rule="evenodd" d="M240.995 321.282C237.785 319.662 231.495 314.282 227.995 308.782C228.965 326.132 241.495 337.282 263.995 334.282C264.495 338.782 259.495 357.782 257.495 365.282C261.308 360.821 269.995 351.282 269.995 351.282C269.995 351.282 278.495 353.282 288.995 353.282C306.995 351.782 329.995 327.782 328.995 308.282C327.473 318.782 313.995 345.782 290.495 348.782C284.746 349.179 280.495 348.282 271.495 346.782C271.495 346.782 271.495 340.782 271.995 334.282C277.495 334.282 279.995 333.782 282.495 332.282C291.995 337.782 296.995 340.032 305.675 336.962C316.325 334.112 322.995 322.782 318.065 310.212C317.112 307.782 315.995 305.782 313.995 302.282C317.995 293.282 326.495 280.782 329.495 297.782C329.455 296.072 329.495 287.693 329.995 285.282C331.405 278.482 334.465 273.582 340.995 270.282C343.662 269.115 345.995 267.282 361.495 264.782C329.995 264.282 315.495 282.282 297.745 297.032C282.085 310.752 262.885 332.342 240.995 321.282Z" fill="#174174"/>
<path fill-rule="evenodd" clip-rule="evenodd" d="M329.485 296.863C329.472 294.087 329.557 287.394 329.995 285.282C331.392 278.544 334.41 273.672 340.817 270.373C340.876 270.342 340.936 270.312 340.995 270.282C332.255 277.112 332.495 293.282 332.995 304.282C334.995 316.282 336.155 328.752 327.745 337.032C319.335 345.322 312.765 349.712 302.915 354.202C293.075 358.702 284.395 363.432 278.225 372.512C261.995 400.782 250.995 436.782 240.495 471.282C240.851 471.608 241.206 471.929 241.556 472.247L241.558 472.249C247.114 477.284 251.728 481.466 247.495 492.282C245.495 483.782 239.415 474.892 229.995 477.282C234.443 457.305 241.649 428.983 247.595 405.615C252.525 386.239 256.589 370.268 257.495 365.282C257.495 365.282 257.496 365.282 257.496 365.281C261.303 360.826 269.97 351.31 269.995 351.282C269.995 351.282 269.995 351.282 269.995 351.282C270.061 351.297 278.536 353.282 288.995 353.282C306.995 351.782 329.995 327.782 328.995 308.282C329.495 303.282 329.495 302.282 329.495 297.782C329.495 297.782 329.495 297.782 329.495 297.782M329.485 296.863C329.491 297.17 329.495 297.475 329.495 297.781Z" fill="#C4C3C3"/>
<path d="M227.995 308.782C225.495 297.782 224.495 287.782 234.495 274.782C234.475 275.393 234.453 276.011 234.432 276.634C233.936 290.897 233.331 308.348 240.995 321.282C237.785 319.662 231.495 314.282 227.995 308.782Z" fill="#C4C3C3"/>
<circle cx="299.695" cy="328.282" r="6" fill="#D9383B"/>
<path d="M210.43 507.278C217.237 500.421 222.177 498.104 228.745 506.532C232.978 511.957 238.315 510.022 241.429 505.323C240.109 507.835 238.241 510.3 235.875 512.501C228.048 519.781 217.74 521.421 212.85 516.164C210.746 513.903 209.988 510.734 210.43 507.278Z" fill="#E7E7E9"/>
<path d="M243.725 497.284C243.642 499.839 242.855 502.609 241.43 505.323C238.315 510.022 232.979 511.957 228.746 506.532C222.181 498.109 217.244 500.418 210.442 507.265C214.174 502.223 214.931 501.52 218.501 498.21C218.81 497.923 219.14 497.617 219.496 497.286L243.725 497.284Z" fill="#B3B2B3"/>
<path d="M210.442 507.265C214.173 502.223 214.931 501.52 218.5 498.21C218.809 497.924 219.14 497.617 219.495 497.286L243.725 497.284C243.719 497.451 243.711 497.618 243.7 497.786C243.91 494.682 243.11 491.864 241.191 489.801C236.301 484.544 225.993 486.184 218.166 493.464C213.706 497.613 211.015 502.698 210.43 507.278" fill="#C4C3C3"/>
<path d="M172.345 487.185C172.421 487.815 172.472 488.513 172.495 489.282C172.497 489.275 172.498 489.269 172.499 489.263C172.511 489.96 172.484 490.676 172.417 491.404C171.829 497.728 168.355 502.576 164.657 502.233C163.828 502.156 163.058 501.824 162.369 501.285C161.548 498.98 160.758 496.489 159.995 493.782C158.886 489.844 168.909 476.715 171.764 484.557C172.024 485.37 172.221 486.252 172.345 487.185Z" fill="#E7E7E9"/>
<path fill-rule="evenodd" clip-rule="evenodd" d="M530.003 361.78C536.902 376.499 542.353 380.254 545.166 382.193C545.411 382.362 545.636 382.517 545.84 382.664C570.888 400.729 589.692 423.202 598.959 455.131C607.014 455.401 615.356 456.508 624.003 458.28C637.613 461.07 649.878 466.041 662.503 471.939C743.503 509.78 749.503 671.201 616.792 741.673C612.894 743.743 609.117 745.844 606.003 747.781C584.325 764.511 563.325 782.258 546.895 796.143L546.894 796.143C535.091 806.118 525.646 814.099 520.003 818.28C513.503 827.78 500.063 837.72 493.083 842.36C490.667 843.644 488.319 844.971 486.003 846.281C484.162 847.202 482.874 848.468 481.502 849.817C477.66 853.595 473.163 858.017 454.003 857.28C421.453 855.232 393.458 835.251 367.399 816.651L367.398 816.65L367.386 816.642C363.29 813.719 359.243 810.83 355.232 808.05C346.266 801.835 336.871 796.574 327.561 791.361L327.557 791.358C306.207 779.403 285.297 767.695 271.002 745.28C266.157 748.65 261.307 752.09 256.435 755.545C222.437 779.656 187.391 804.51 146.002 811.28C141.902 810.46 137.058 809.927 131.749 809.344C124.113 808.505 115.515 807.559 106.782 805.5C97.2425 803.26 88.4225 801.89 79.3225 805.6C51.5025 813.78 17.0523 811.164 6.68248 783.6C3.58248 775.36 1.04248 765.1 0.222484 756.06C-0.597516 747.02 0.652485 736.61 7.30249 729.59C12.1451 724.478 12.4303 723.993 13.3786 722.379C13.7345 721.773 14.1838 721.008 15.0025 719.78C8.50249 700.78 15.0825 642.36 26.0025 625.78C41.1019 602.854 68.9944 587.787 93.726 574.427C97.5818 572.345 101.361 570.303 105.002 568.28C104.502 550.78 114.002 534.78 123.252 521.53C129.797 512.155 136.855 502.104 145.5 494.259L146.503 493.28L150.003 508.28L149.56 508.699C133.675 524.273 113.159 549.18 121.002 569.28C113.565 572.343 103.065 578.085 97.2066 583.827C96.3697 584.647 95.6275 585.468 95.0025 586.28C114.65 589.188 132.85 597.618 150.002 607.28C157.352 581.313 171.902 558.707 185.186 542.284L185.503 541.78C188.263 542.917 191.078 543.907 194.003 544.78L193.503 545.23C191.45 548.651 188.944 552.663 186.192 557.014C174.522 575.464 158.433 600.902 153.76 621.69C153.092 624.659 152.658 627.534 152.502 630.28L152.534 630.238C171.942 604.158 208.021 574.659 242.003 576.28C265.28 578.482 289.349 596.12 305.246 608.9C307.517 610.726 309.621 612.453 311.533 614.021C317.508 618.924 321.598 622.28 323.003 622.28L325.08 621.381C329.46 619.485 334.321 617.38 339.501 615.152C368.964 602.479 408.737 585.809 428.834 580.779L428.864 580.772C432.698 579.814 435.813 579.28 438.003 579.28C453.367 579.28 461.897 583.061 471.143 587.16L471.144 587.161L471.15 587.163C472.734 587.866 474.339 588.577 476.003 589.28C480.008 533.649 510.5 476.868 563.394 460.088L563.403 460.086C563.683 459.997 563.964 459.909 564.246 459.823C570.521 457.892 577.109 456.521 584.003 455.78L583.985 455.668C580.441 432.691 561.467 405.257 539.503 390.78C535.709 388.28 532.503 384.78 530.003 361.78ZM605.839 732.682C593.66 725.375 571.479 712.066 544.111 699.052C553.139 695.248 559.106 689.191 562.529 685.716L562.532 685.714L562.534 685.711C563.324 684.91 563.978 684.246 564.503 683.78C554.101 675.512 542.845 667.386 532.102 659.63C522.705 652.846 513.701 646.345 506.003 640.28C519.922 645.78 521.503 646.78 535.003 656.78C539.926 660.427 574.503 673.28 585.503 654.78C571.336 641.417 554.503 628.28 536.003 614.28C524.76 608.659 504.943 600.405 487.083 593.629C489.264 566.62 493.977 540.117 503.922 524.2C512.627 508.094 523.079 493.153 538.703 482.98C561.82 466.865 594.05 461.731 624.003 468.387C753.503 502.78 718.003 675.78 605.839 732.682ZM595.297 738.96C589.1 744.38 582.659 749.888 576.106 755.494L576.104 755.495L576.099 755.5C557.327 771.556 537.621 788.41 520.003 806.28C504.721 821.78 491.833 834.29 472.922 843.2C454.023 852.12 426.283 841.6 408.313 831.98C400.886 827.389 394.206 821.87 387.513 816.34C378.605 808.981 369.673 801.601 358.923 796.36C349.091 790.645 340.276 785.254 331.434 779.846C322.36 774.297 313.259 768.731 303.003 762.78C286.796 753.376 283.075 744.556 276.364 728.645C275.152 725.773 273.898 722.922 272.643 720.071L272.642 720.069L272.635 720.053L272.634 720.051C271.967 718.535 271.3 717.019 270.639 715.5C262.058 695.767 254.862 680.126 243.003 660.28C232.738 639.75 193.475 642.148 168.687 643.663C163.29 643.992 158.579 644.28 155.003 644.28C165.857 631.618 177.23 622.526 189.552 612.674C192.159 610.59 194.807 608.473 197.503 606.28C212.933 593.72 238.003 582.28 258.073 592.21C266.643 594.995 286.069 610.185 309.511 628.514C337.162 650.136 370.402 676.127 398.003 691.28L421.222 690.28C455.503 705.78 495.003 736.28 515.503 769.78C516.937 749.22 480.421 709.457 468.48 703.395C479.987 705.796 502.991 710.448 518.503 701.78C521.8 702.32 524.903 702.529 527.819 702.471C554.698 713.792 577.079 725.176 595.297 738.96ZM475.003 622.78C490.503 621.28 507.353 626.94 519.922 635.36C523.058 637.46 525.837 639.581 528.487 641.603L528.489 641.605L528.491 641.606L528.493 641.608L528.495 641.609C538.732 649.422 547.044 655.766 566.503 653.78C564.494 652.074 562.566 650.433 560.71 648.854L560.695 648.841C538.083 629.597 526.286 619.557 511.503 614.28C507.844 612.832 503.733 611.162 499.356 609.385L499.354 609.384C475.018 599.502 442.478 586.289 434.003 589.28C422.024 593.137 410.378 598.121 398.187 603.338C391.66 606.131 384.976 608.99 378.003 611.78C367.003 617.78 356.955 622.876 347.003 626.28C344.006 627.369 340.834 628.19 337.686 629.005C333.984 629.963 330.315 630.913 327.003 632.28C328.119 633.072 329.344 633.945 330.662 634.884L330.676 634.894L330.679 634.896C347.676 647.001 380.181 670.152 395.303 674.92C396.367 674.512 397.438 674.028 398.552 673.525C404.451 670.862 411.533 667.665 424.933 672.35C430.692 674.364 436.514 677.53 442.654 680.869C452.58 686.267 463.337 692.118 476.003 694.28C477.267 694.465 478.59 694.716 479.941 694.973C484.655 695.87 489.728 696.834 494.003 695.28L492.624 694.245C478.857 683.903 448.846 661.359 430.003 649.28C439.003 644.28 462.908 648.78 470.753 654.53C477.184 658.493 483.463 663.721 489.761 668.966C507.702 683.905 525.798 698.973 548.003 685.28C526.003 663.28 499.823 647.72 473.003 634.28C473.147 633.415 473.291 632.301 473.447 631.094L473.448 631.089L473.448 631.084L473.449 631.08C473.834 628.101 474.292 624.557 475.003 622.78ZM141.631 630.008C139.732 639.512 137.577 650.301 134.003 653.28C106.582 659.36 80.5025 668.78 51.0025 689.28C41.0573 695.696 32.0025 702.28 23.0025 710.28C23.0025 707.464 22.9108 704.683 22.8195 701.912C22.6378 696.398 22.4573 690.923 23.0025 685.28C23.0025 671.02 27.0025 653.14 30.9825 640.26C34.9525 627.37 43.7525 616.96 54.7525 610.03C59.5301 607.017 63.4139 603.931 67.0585 601.035C71.7976 597.269 76.1324 593.824 81.5025 591.28C100.47 593.044 122.939 604.148 139.299 612.232L139.301 612.233L139.303 612.235L139.313 612.24C141.492 613.316 143.563 614.34 145.503 615.28C144.088 617.705 142.918 623.561 141.631 630.008ZM222.503 654.78C237.746 675.791 256.722 713.434 266.288 734.427C265.632 734.88 264.976 735.333 264.32 735.786C259.209 739.321 253.983 742.992 248.69 746.709L248.67 746.723C214.591 770.659 177.75 796.534 151.003 800.78C132.528 801.231 113.157 797.379 95.68 793.904C93.7635 793.522 91.8698 793.146 90.0025 792.78C85.0333 793.72 80.1362 794.841 75.3404 795.938L75.3385 795.938L75.337 795.939C62.2795 798.927 49.9725 801.743 39.0025 800.28C16.9965 792.225 8.0025 765.78 13.0025 743.28C17.5025 735.78 22.5249 728.472 28.9225 722.2C62.5025 689.28 102.003 662.28 175.003 661.28C179.781 660.893 184.093 660.705 188.161 660.529L188.163 660.528L188.165 660.528C199.846 660.021 209.524 659.601 222.503 654.78Z" fill="#174174"/>
<path d="M576.106 755.494C582.659 749.888 589.1 744.38 595.297 738.96C577.079 725.176 554.698 713.792 527.82 702.471C524.903 702.528 521.8 702.32 518.503 701.78C502.991 710.448 479.987 705.796 468.481 703.395C480.422 709.457 516.937 749.22 515.503 769.78C495.003 736.28 455.503 705.78 421.223 690.28L398.003 691.28C370.402 676.127 337.162 650.136 309.511 628.514C286.069 610.185 266.643 594.995 258.073 592.21C238.003 582.28 212.933 593.72 197.503 606.28C194.807 608.473 192.159 610.59 189.553 612.674C177.23 622.526 165.857 631.618 155.003 644.28C158.579 644.28 163.29 643.992 168.688 643.663C193.476 642.148 232.738 639.75 243.003 660.28C254.863 680.126 262.058 695.767 270.639 715.5C271.3 717.02 271.968 718.536 272.635 720.053L272.642 720.069L272.643 720.071C273.898 722.922 275.153 725.773 276.364 728.645C283.076 744.556 286.797 753.376 303.003 762.78C313.259 768.731 322.361 774.297 331.434 779.846C340.276 785.254 349.092 790.645 358.923 796.36C369.674 801.601 378.606 808.981 387.513 816.34C394.206 821.87 400.886 827.389 408.313 831.98C426.283 841.6 454.023 852.12 472.923 843.2C491.833 834.29 504.721 821.78 520.003 806.28C537.622 788.41 557.327 771.556 576.099 755.5L576.105 755.495L576.106 755.494Z" fill="white"/>
<path d="M519.923 635.36C507.353 626.94 490.503 621.28 475.003 622.78C474.292 624.557 473.834 628.101 473.449 631.08L473.448 631.084L473.448 631.089L473.447 631.094C473.291 632.301 473.147 633.415 473.003 634.28C499.823 647.72 526.003 663.28 548.003 685.28C525.798 698.973 507.702 683.905 489.762 668.966C483.463 663.721 477.184 658.493 470.753 654.53C462.908 648.78 439.003 644.28 430.003 649.28C448.846 661.359 478.857 683.903 492.625 694.245L494.003 695.28C489.728 696.834 484.656 695.87 479.941 694.973C478.59 694.716 477.268 694.465 476.003 694.28C463.337 692.118 452.58 686.267 442.654 680.869C436.514 677.53 430.692 674.364 424.933 672.35C411.533 667.665 404.451 670.862 398.552 673.525C397.438 674.028 396.367 674.512 395.303 674.92C380.182 670.152 347.676 647.001 330.679 634.896L330.676 634.894L330.663 634.884C329.344 633.945 328.119 633.072 327.003 632.28C330.315 630.913 333.984 629.963 337.686 629.005C340.834 628.19 344.006 627.369 347.003 626.28C356.955 622.876 367.003 617.78 378.003 611.78C384.977 608.99 391.66 606.131 398.187 603.338C410.378 598.121 422.025 593.137 434.003 589.28C442.478 586.289 475.018 599.502 499.355 609.384L499.356 609.385C503.733 611.162 507.845 612.832 511.503 614.28C526.287 619.557 538.083 629.597 560.695 648.841L560.71 648.854C562.566 650.433 564.494 652.074 566.503 653.78C547.045 655.766 538.732 649.422 528.495 641.609L528.494 641.608L528.491 641.606L528.489 641.605L528.488 641.603C525.837 639.581 523.058 637.46 519.923 635.36Z" fill="white"/>
<path d="M141.631 630.008C139.733 639.512 137.578 650.301 134.003 653.28C106.583 659.36 80.5027 668.78 51.0027 689.28C41.0575 695.696 32.0027 702.28 23.0027 710.28C23.0027 707.464 22.9111 704.683 22.8198 701.912C22.638 696.398 22.4576 690.923 23.0027 685.28C23.0027 671.02 27.0027 653.14 30.9827 640.26C34.9527 627.37 43.7527 616.96 54.7527 610.03C59.5304 607.017 63.4141 603.931 67.0587 601.035C71.7978 597.269 76.1326 593.824 81.5027 591.28C100.47 593.044 122.94 604.148 139.299 612.232L139.301 612.233L139.303 612.235L139.313 612.24C141.493 613.316 143.563 614.34 145.503 615.28C144.088 617.705 142.918 623.561 141.631 630.008Z" fill="white"/>
<path d="M266.288 734.427C256.722 713.434 237.746 675.791 222.503 654.78C209.524 659.601 199.846 660.021 188.165 660.528L188.164 660.528C184.095 660.705 179.782 660.893 175.003 661.28C102.003 662.28 62.5027 689.28 28.9227 722.2C22.5251 728.472 17.5027 735.78 13.0027 743.28C8.00274 765.78 16.9967 792.225 39.0027 800.28C49.9727 801.743 62.2798 798.927 75.3372 795.939L75.3387 795.938C80.1352 794.841 85.0329 793.72 90.0027 792.78C91.87 793.146 93.7637 793.522 95.6802 793.904C113.157 797.379 132.529 801.231 151.003 800.78C177.75 796.534 214.591 770.659 248.67 746.723L248.69 746.709C253.983 742.992 259.209 739.321 264.32 735.786C264.976 735.333 265.632 734.88 266.288 734.427Z" fill="white"/>
<path d="M22.8198 701.912C22.9111 704.683 23.0028 707.464 23.0028 710.28C24.9474 708.551 26.8946 706.889 28.8528 705.28C29.0028 692.78 35.0028 644.78 41.5028 636.78C47.0028 626.78 74.0028 602.28 87.0028 592.027C85.1432 591.7 83.3072 591.448 81.5028 591.28C76.1326 593.824 71.7978 597.269 67.0587 601.035C63.4141 603.931 59.5304 607.017 54.7528 610.03C43.7528 616.96 34.9528 627.37 30.9828 640.26C27.0028 653.14 23.0028 671.02 23.0028 685.28C22.4576 690.923 22.638 696.398 22.8198 701.912Z" fill="#D0D1D2"/>
<path d="M41.3494 695.78C44.4892 693.564 47.6968 691.413 51.0028 689.28C60.5028 666.28 91.0028 615.78 111.003 599.237C107.027 597.658 103.002 596.206 99.0028 594.977C93.5028 601.78 45.5028 675.28 41.3494 695.78Z" fill="#D0D1D2"/>
<path d="M308.383 637.335C285.684 621.405 264.173 606.308 248.503 594.78C253.603 599.189 259.839 604.883 267.162 611.571C285.719 628.516 311.258 651.838 343.003 676.78C350.003 682.28 393.503 708.28 414.503 714.78C392.751 696.547 348.693 665.626 308.383 637.335Z" fill="#E7E7E9"/>
<path d="M248.67 698.652C251.792 704.582 254.773 710.449 257.503 715.975C257.503 715.975 45.0027 812.78 19.2458 783.78C12.1088 772.19 9.95353 757.002 13.0027 743.28C17.5406 750.639 22.1748 757.548 41.5027 756.28C101.503 750.28 212.503 718.28 248.67 698.652Z" fill="#E7E7E9"/>
<path d="M134.003 653.28C137.578 650.301 139.733 639.512 141.631 630.008C142.919 623.561 144.088 617.705 145.503 615.28C143.563 614.34 141.493 613.316 139.313 612.24L139.303 612.235L139.301 612.233L139.299 612.232C131.018 608.14 121.169 603.273 111.003 599.237C91.003 615.78 60.503 666.28 51.0029 689.28C76.8154 671.343 100.009 661.888 123.774 655.732C127.169 654.852 130.575 654.04 134.003 653.28Z" fill="#9A9898"/>
<path d="M491.503 724.49C491.503 724.49 537.003 713.78 543.003 717.28C543.817 717.778 544.62 718.264 545.411 718.744L545.42 718.749L545.428 718.754C553.378 723.575 560.277 727.759 568.003 736.28C572.195 740.904 561.413 748.922 547.327 759.398C539.572 765.166 530.815 771.679 523.003 778.78C526.503 787.28 524.504 801.78 524.504 801.78C540.939 785.573 558.91 770.202 576.099 755.5L576.105 755.495C582.659 749.889 589.1 744.38 595.298 738.96C577.079 725.175 554.698 713.792 527.82 702.471C524.904 702.528 521.8 702.32 518.503 701.78C502.992 710.448 479.987 705.796 468.481 703.395C473.423 705.904 482.575 714.186 491.503 724.49Z" fill="#9A9898"/>
<path d="M519.923 635.36C507.353 626.94 490.503 621.28 475.003 622.78C474.832 623.207 474.676 623.737 474.532 624.336C453.176 626.996 465.077 641.81 475.313 645.97C498.003 656.78 515.757 670.409 531.003 686.28C528.823 687.152 519.801 686.883 514.211 686.469C505.797 682.318 497.763 675.629 489.761 668.966L489.76 668.965C483.462 663.721 477.184 658.492 470.753 654.53C462.908 648.78 439.003 644.28 430.003 649.28C430.432 649.555 430.866 649.835 431.306 650.121C429.713 650.766 428.253 651.634 427.003 652.78C427.003 655.765 467.606 688.757 477.362 694.498C476.903 694.419 476.449 694.345 476.003 694.28C463.337 692.118 452.58 686.267 442.654 680.869C436.514 677.53 430.692 674.364 424.933 672.35C411.533 667.665 404.451 670.862 398.552 673.525C397.438 674.028 396.367 674.512 395.303 674.92C380.182 670.152 347.677 647.001 330.68 634.896L330.677 634.894L330.669 634.888L330.668 634.887L330.646 634.872L330.644 634.87L330.628 634.859C329.323 633.929 328.109 633.065 327.003 632.28C330.315 630.913 333.984 629.963 337.686 629.005C340.54 628.266 343.414 627.523 346.159 626.579C350.115 628.596 354.231 630.896 358.501 633.282L358.503 633.282C372.828 641.288 388.891 650.264 406.503 652.78C434.969 642.86 448.925 628.847 459.925 617.803L459.927 617.801C461.678 616.043 463.355 614.359 465.003 612.78C467.063 613.123 469.46 613.499 472.097 613.912C488.664 616.507 514.741 620.591 526.693 627.59C540.935 638.031 548.198 644.959 554.224 650.707L554.228 650.71C555.463 651.889 556.647 653.018 557.828 654.117C544.287 653.661 537.066 648.15 528.495 641.609C525.843 639.585 523.061 637.462 519.923 635.36Z" fill="#C4C3C3"/>
<path d="M472.923 843.2C491.833 834.29 504.721 821.78 520.003 806.28C521.489 804.773 522.99 803.273 524.504 801.78C524.504 801.78 526.503 787.28 523.003 778.78C530.814 771.679 539.571 765.166 547.326 759.399L547.327 759.398C561.413 748.922 572.195 740.904 568.003 736.28C560.277 727.759 553.378 723.575 545.428 718.754C544.631 718.271 543.823 717.781 543.003 717.28C537.003 713.78 491.503 724.49 491.503 724.49C504.147 739.082 516.344 757.729 515.503 769.78C495.003 736.28 455.503 705.78 421.223 690.28L403.003 691.065C451.003 707.78 489.003 806.78 464.503 795.28C427.003 779.28 353.503 726.78 304.503 688.28C326.793 739.866 391.266 778.068 431.406 801.851C454.293 815.412 469.268 824.286 464.003 828.28C429.309 856.469 336.871 770.28 272.003 670.28C242.445 631.808 225.214 621.775 218.657 617.958C218.227 617.707 217.842 617.483 217.503 617.28C207.503 611.28 188.003 627.28 173.503 643.374C198.278 641.938 233.381 641.036 243.003 660.28C254.863 680.126 262.059 695.767 270.639 715.499C271.298 717.013 271.962 718.524 272.627 720.035L272.63 720.042L272.633 720.047L272.635 720.052L272.635 720.053L272.642 720.069L272.643 720.071C273.898 722.922 275.153 725.773 276.364 728.645C283.076 744.556 286.797 753.376 303.003 762.78C313.259 768.731 322.361 774.297 331.434 779.846C340.276 785.254 349.092 790.645 358.923 796.36C369.674 801.601 378.606 808.981 387.513 816.34C394.206 821.87 400.886 827.389 408.313 831.98C426.283 841.6 454.023 852.12 472.923 843.2Z" fill="#C4C3C3"/>
<path d="M266.288 734.427C265.632 734.88 264.976 735.333 264.32 735.786C259.21 739.321 253.985 742.991 248.692 746.708L248.69 746.709L248.67 746.723C214.591 770.659 177.75 796.534 151.003 800.78C132.529 801.231 113.157 797.379 95.6804 793.904L95.6716 793.902C94.7769 793.724 93.8873 793.547 93.0029 793.372L261.302 723.78C263.152 727.638 264.83 731.226 266.288 734.427Z" fill="#C4C3C3"/>
<path d="M471.144 587.16C472.73 587.863 474.337 588.576 476.003 589.28C480.503 526.78 518.433 462.83 584.003 455.78C580.503 432.78 561.503 405.28 539.503 390.78C524.503 423.28 489.003 474.584 442.503 502.28C397.423 529.13 357.503 544.28 307.503 549.78L296.503 485.28C296.03 485.979 295.56 486.673 295.094 487.362C263.5 534.043 246.224 559.528 193.503 545.24C191.45 548.661 188.944 552.663 186.192 557.014C172.856 578.1 153.746 608.313 152.503 630.28C171.904 604.189 208.003 574.658 242.003 576.28C268.606 578.797 296.243 601.474 311.533 614.021C317.508 618.924 321.598 622.28 323.003 622.28C323.683 621.986 324.375 621.686 325.081 621.381C359.14 606.635 422.328 579.28 438.003 579.28C453.367 579.28 461.898 583.061 471.144 587.16Z" fill="#ED1F23"/>
<path d="M544.111 699.052C571.48 712.066 593.66 725.375 605.84 732.682C718.003 675.78 753.503 502.78 624.003 468.387C594.051 461.731 561.821 466.865 538.703 482.98C523.08 493.153 512.628 508.094 503.923 524.2C493.977 540.117 489.265 566.62 487.084 593.629C504.943 600.405 524.761 608.659 536.003 614.28C554.503 628.28 571.337 641.417 585.503 654.78C574.503 673.28 539.927 660.427 535.003 656.78C521.503 646.78 519.923 645.78 506.003 640.28C513.701 646.345 522.706 652.846 532.102 659.63C542.845 667.386 554.101 675.512 564.503 683.78C563.978 684.247 563.324 684.91 562.534 685.712L562.532 685.714L562.53 685.716C559.107 689.191 553.139 695.248 544.111 699.052Z" fill="#ED1F23"/>
<path d="M149.56 508.699C133.675 524.273 113.159 549.18 121.003 569.28C112.503 572.78 100.003 579.78 95.0029 586.28C114.65 589.188 132.851 597.618 150.003 607.28C157.352 581.313 171.902 558.707 185.186 542.284C169.211 535.701 156.255 524.652 149.56 508.699Z" fill="#ED1F23"/>
<path d="M670.257 533.28C685.503 568.78 673.003 623.28 658.003 660.78C711.003 584.28 694.503 548.78 670.257 533.28Z" fill="#F19B9B"/>
<path d="M577.937 436.318C538.492 458.79 528.472 468.091 512.753 483.03C492.84 501.994 478.753 522.78 465.233 548.51C464.874 549.14 464.482 549.874 464.057 550.668C461.139 556.122 456.677 564.462 451.003 562.28C450.255 561.79 449.561 561.328 448.912 560.895C445.7 558.755 443.564 557.331 441.223 556.788C436.573 555.71 431.116 558.111 414.816 565.283C408.819 567.921 401.355 571.206 391.923 575.2C384.962 578.221 378.325 581.178 371.866 584.055L371.862 584.057C358.912 589.827 346.68 595.276 334.003 600.28C317.503 587.78 324.873 581.41 338.003 581.28C347.503 580.28 361.003 576.78 373.073 572.35C423.003 552.78 467.003 518.28 501.753 483.03C527.908 458.868 542.894 440.414 564.269 414.068C569.769 421.09 574.455 428.69 577.937 436.318Z" fill="#EB7070"/>
<path d="M605.84 732.682C605.967 732.618 606.094 732.553 606.22 732.489C606.335 732.43 606.45 732.371 606.564 732.312C624.617 701.062 640.888 658.381 648.944 637.248C650.157 634.066 651.184 631.372 652.003 629.28C660.219 608.28 665.003 548.28 652.003 516.28C637.644 489.469 597.16 465.479 565.694 470.172C565.438 470.248 565.183 470.325 564.928 470.403C561.658 475.815 557.834 481.626 553.777 487.792C536.1 514.653 514.003 548.232 514.003 584.78C513.503 587.78 524.003 601.28 534.503 613.28C534.681 613.409 534.859 613.539 535.037 613.669C535.222 613.804 535.406 613.939 535.591 614.075C535.73 614.143 535.867 614.212 536.003 614.28C553.411 627.454 569.344 639.863 582.967 652.416C583.314 652.706 583.659 652.994 584.003 653.28C584.317 653.577 584.587 653.788 584.818 653.969C585.515 654.515 585.86 654.786 586.003 656.28C586.513 661.64 578.703 668.18 573.773 670.05C568.843 671.92 556.903 674.59 551.003 673.28L551.055 673.461C555.621 676.864 560.137 680.31 564.503 683.78C563.978 684.247 563.323 684.911 562.533 685.713L562.531 685.715L562.53 685.716C560.992 687.277 558.942 689.358 556.331 691.522C558.279 698.101 560.249 704.625 561.248 707.554C580.69 717.592 596.32 726.97 605.84 732.682Z" fill="#EB7070"/>
<path d="M185.186 542.284C171.902 558.707 157.352 581.313 150.003 607.28C137.601 600.294 124.651 593.952 111.003 589.876C115.418 587.228 119.298 585.019 122.783 583.034C129.955 578.95 135.456 575.818 140.503 571.78L140.743 571.449C151.103 557.142 157.63 548.129 167.759 532.28C172.954 536.34 178.832 539.665 185.186 542.284Z" fill="#EB7070"/>
<path d="M275.93 514.718C258.638 537.526 242.69 550.512 215.998 549.143C199.714 561.328 180.503 575.78 177.003 599.28C206.503 579.78 243.103 563.01 274.503 583.28C271.663 576.4 263.413 552.6 274.923 556.36C283.298 561.59 287.913 566.581 292.475 571.513C293.948 573.106 295.416 574.693 297.003 576.28C296.003 558.78 284.003 525.78 275.93 514.718Z" fill="#EB7070"/>
<path d="M463.003 508.78C488.96 492.058 529.993 441.209 553.886 402.47C550.699 399.362 547.365 396.482 543.932 393.903C517.973 439.318 501.471 460.309 466.753 492.03C428.348 522.623 378.834 535.704 328.178 549.086L328.174 549.087C320.465 551.123 312.73 553.167 305.003 555.28C302.761 543.433 299.657 531.814 296.551 520.188C294.292 511.734 292.032 503.275 290.102 494.722C287.722 498.218 285.415 501.576 283.155 504.787L301.003 564.28C347.503 555.28 432.503 530.78 463.003 508.78Z" fill="white"/>
<path d="M104.104 578.335C108.022 575.679 112.448 573.229 116.496 571.292C129.968 571.75 148.369 579.667 158.335 584.889C156.658 588.531 155.092 592.272 153.666 596.102C146.427 590.446 126.249 579.601 104.104 578.335Z" fill="white"/>
<path d="M555.737 692.008C568.94 696.156 612.729 715.334 622.832 722.815C627.27 719.894 631.559 716.786 635.694 713.51C626.808 708.665 580.326 686.936 564.191 684.065C563.726 684.502 563.176 685.061 562.536 685.71L562.532 685.714L562.53 685.716L562.53 685.717C560.878 687.394 558.633 689.672 555.737 692.008Z" fill="white"/>
</g>
<defs>
<clipPath id="clip0_29_3783">
<rect width="898" height="857" fill="white" transform="translate(0 0.5)"/>
</clipPath>
</defs>
</svg>
