<svg width="898" height="858" viewBox="0 0 898 858" fill="none" xmlns="http://www.w3.org/2000/svg">
<g clip-path="url(#clip0_29_3777)">
<mask id="path-1-inside-1_29_3777" fill="white">
<path fill-rule="evenodd" clip-rule="evenodd" d="M406.786 119.66C370.9 130.087 332.604 144.025 291.813 162.139L298.035 114.756C331.59 103.398 363.436 94.555 393.588 87.901C427.049 25.0393 464.667 6.93574 464.667 6.93574L473.052 47.4543L507.702 3.16053C748.418 -23.6778 841.098 175.963 841.098 175.963C819.094 179.041 797.802 182.239 777.209 185.332L777.201 185.333L777.12 185.346C772.447 186.048 767.81 186.744 763.208 187.433C814.707 228.643 866.278 292.742 897.017 391.863C899.958 403.924 890.407 402.757 890.407 402.757C874.502 406.952 847.573 403.643 815.169 394.867C811.567 388.124 807.828 381.566 803.974 375.195C832.193 383.411 858.328 388.009 879.822 387.596C796.568 149.12 605.794 132.837 605.794 132.837L571.928 154.877C549.754 168.291 553.96 149.809 553.96 149.809L560.594 132.229C543.222 141.555 530.965 159.766 530.965 159.766L530.932 160.525C650.13 183.034 775.077 241.561 840.651 339.834C745.629 246.521 637.458 205.606 529.477 194.437L529.466 194.701C531.123 199.77 533.686 205.052 537.057 210.494C548.601 207.26 560.189 206.346 568.9 205.658L569.441 205.616C577.296 203.913 582.198 206.703 581.436 216.107C578.069 223.923 577.368 225.094 568.211 240.38C567.315 241.876 566.337 243.507 565.269 245.292L565.27 245.292L565.855 244.315C566.014 244.465 566.173 244.616 566.333 244.766C569.548 243.177 573.843 241.063 578.651 238.696L578.758 238.643C590.817 232.707 606.068 225.199 615.615 220.399C651.296 214.765 782.827 295.165 838.753 447.472C813.378 426.508 775.484 411.686 775.484 411.686C796.682 422.831 836.386 464.856 836.386 464.856C843.639 470.365 847.738 483.523 847.738 483.523C852.398 502.062 853.273 558.375 853.273 558.375C851.281 573.413 840.362 566.82 840.362 566.82C807.618 552.851 778.564 537.157 752.777 520.589C749.075 510.581 744.947 500.659 740.422 490.898C769.226 510.99 802.14 529.959 839.551 546.355L832.283 480.735L785.893 437.172L782.472 434.007C795.043 453.441 804.439 473.312 809.857 493.221C741.313 367.611 610.676 303.215 509.873 274.154L509.828 274.533C519.016 311.096 554.021 328.648 554.021 328.648L555.81 306.21C559.175 285.441 573.388 302.92 573.388 302.92C578.125 312.769 585.21 325.872 594.941 341.103C589.704 341.862 584.683 343.042 579.921 344.53C577.74 341.158 575.705 337.976 573.806 335.007L573.793 334.986L573.792 334.985L572.643 333.189C572.12 339.569 563.275 347.31 563.275 347.31C504.923 324.257 491.709 269.693 491.709 269.693C491.714 269.531 491.719 269.371 491.724 269.21C444.221 257.025 405.255 252.966 385.688 253.976C381.413 244.097 360.01 219.529 360.01 219.529C400.843 214.161 449.742 221.013 500.114 236.807C505.521 227.5 513.08 221.089 521.459 216.621C516.889 208.586 513.732 200.65 512.22 192.901C512.28 193.21 512.343 193.518 512.408 193.827C511.076 193.44 509.749 193.041 508.429 192.63C452.85 188.819 397.553 192.51 344.359 200.608C335.188 189.761 296.565 170.46 296.565 170.46C331.763 155.635 380.151 148.678 434.2 150.023C424.629 141.221 415.494 131.148 406.786 119.66ZM471.382 152.188C484.821 153.406 498.487 155.104 512.276 157.287C518.065 146.54 530.823 133.453 556.283 115.2C567.241 109.497 578.351 105.766 581.068 117.7L577.86 131.719L602.353 115.525C607.106 115.149 673.664 123.588 745.138 173.867C749.314 173.171 753.436 172.477 757.499 171.792L757.525 171.788L757.533 171.787C779.067 168.16 798.948 164.813 816.342 162.923C703.871 -15.217 512.731 18.9811 512.731 18.9811L474.548 67.4006C460.67 79.1446 461.087 67.5293 461.087 67.5293L453.762 33.379C438.911 48.0571 419.126 76.5994 414.34 83.6115C580.727 51.5756 692.816 87.399 753.211 131.934C684.66 98.5035 578.012 74.5943 426.439 114.233C440.224 129.746 455.323 142.231 471.382 152.188ZM513.756 241.279L513.755 241.29C524.248 244.895 534.779 248.872 545.289 253.192C544.294 248.921 561.156 221.351 561.156 221.351C537.342 222.184 513.756 241.279 513.756 241.279ZM566.285 262.285L566.091 262.201C637.983 294.931 707.04 342.951 754.126 396.746L754.119 396.732C768.417 393.389 811.119 416.175 811.119 416.175C705.927 239.823 616.393 237.002 616.393 237.002L566.285 262.285Z"/>
<path fill-rule="evenodd" clip-rule="evenodd" d="M621.68 381.665C621.603 381.789 621.531 381.902 621.465 382.003C628.719 378.969 654.622 376.403 659.008 376.699C756.06 466.088 809.365 639.383 749.626 731.013C743 741.176 737.957 731.876 737.957 731.876C698.591 697.09 649.382 638.609 649.382 638.609L654.116 547.399C629.826 576.359 636.023 604.176 636.023 604.176C634.498 614.646 626.75 609.23 626.75 609.23C569.511 538.503 560.361 495.718 560.361 495.718C559.479 493.024 559.872 452.04 559.872 452.04L547.847 472.963C541.26 477.116 537.395 471.43 537.395 471.43C518.667 426.813 531.677 378.688 531.677 378.688C531.698 378.639 531.72 378.59 531.742 378.541C531.788 378.439 531.836 378.335 531.887 378.23C497.622 354.688 461.355 336.375 425.255 325.802L420.637 322.562L417.49 289.407C456.65 291.32 506.396 317.497 554.496 356.693C573.473 344.508 602.285 334.614 634.515 344.327C634.524 344.33 634.54 344.333 634.562 344.338C634.59 344.343 634.627 344.35 634.673 344.358C635.889 344.574 643.141 345.86 639.188 355.498C633.459 360.922 627.297 371.814 623.792 378.009C623.367 378.76 622.982 379.442 622.64 380.037C622.908 380.379 623.178 380.721 623.448 381.063C622.784 381.261 622.191 381.462 621.68 381.665ZM624.165 354.631C597.595 346.058 569.437 363.439 565.556 365.961C575.386 374.424 585.107 383.402 594.611 392.797L624.165 354.631ZM726.313 651.939C734.499 576.656 677.405 478.47 604.934 403.253L604.964 403.282C604.964 403.282 637.04 387.691 652.977 388.328C652.977 388.328 815.366 558.73 741.175 717.857L663.789 635.313L669.417 527.349C669.417 527.349 663.521 521.424 658.511 521.123L653.495 523.776C653.495 523.776 629.791 556.153 622.622 582.103C622.622 582.103 586.196 531.259 576.524 502.032C576.524 502.032 573.013 493.64 573.652 478.396L575.865 428.549C575.865 428.549 572.968 410.85 561.989 425.252L546.855 450.893C546.855 450.893 535.548 410.669 544.324 387.067C637.46 455.458 713.329 561.348 726.313 651.939Z"/>
</mask>
<path fill-rule="evenodd" clip-rule="evenodd" d="M406.786 119.66C370.9 130.087 332.604 144.025 291.813 162.139L298.035 114.756C331.59 103.398 363.436 94.555 393.588 87.901C427.049 25.0393 464.667 6.93574 464.667 6.93574L473.052 47.4543L507.702 3.16053C748.418 -23.6778 841.098 175.963 841.098 175.963C819.094 179.041 797.802 182.239 777.209 185.332L777.201 185.333L777.12 185.346C772.447 186.048 767.81 186.744 763.208 187.433C814.707 228.643 866.278 292.742 897.017 391.863C899.958 403.924 890.407 402.757 890.407 402.757C874.502 406.952 847.573 403.643 815.169 394.867C811.567 388.124 807.828 381.566 803.974 375.195C832.193 383.411 858.328 388.009 879.822 387.596C796.568 149.12 605.794 132.837 605.794 132.837L571.928 154.877C549.754 168.291 553.96 149.809 553.96 149.809L560.594 132.229C543.222 141.555 530.965 159.766 530.965 159.766L530.932 160.525C650.13 183.034 775.077 241.561 840.651 339.834C745.629 246.521 637.458 205.606 529.477 194.437L529.466 194.701C531.123 199.77 533.686 205.052 537.057 210.494C548.601 207.26 560.189 206.346 568.9 205.658L569.441 205.616C577.296 203.913 582.198 206.703 581.436 216.107C578.069 223.923 577.368 225.094 568.211 240.38C567.315 241.876 566.337 243.507 565.269 245.292L565.27 245.292L565.855 244.315C566.014 244.465 566.173 244.616 566.333 244.766C569.548 243.177 573.843 241.063 578.651 238.696L578.758 238.643C590.817 232.707 606.068 225.199 615.615 220.399C651.296 214.765 782.827 295.165 838.753 447.472C813.378 426.508 775.484 411.686 775.484 411.686C796.682 422.831 836.386 464.856 836.386 464.856C843.639 470.365 847.738 483.523 847.738 483.523C852.398 502.062 853.273 558.375 853.273 558.375C851.281 573.413 840.362 566.82 840.362 566.82C807.618 552.851 778.564 537.157 752.777 520.589C749.075 510.581 744.947 500.659 740.422 490.898C769.226 510.99 802.14 529.959 839.551 546.355L832.283 480.735L785.893 437.172L782.472 434.007C795.043 453.441 804.439 473.312 809.857 493.221C741.313 367.611 610.676 303.215 509.873 274.154L509.828 274.533C519.016 311.096 554.021 328.648 554.021 328.648L555.81 306.21C559.175 285.441 573.388 302.92 573.388 302.92C578.125 312.769 585.21 325.872 594.941 341.103C589.704 341.862 584.683 343.042 579.921 344.53C577.74 341.158 575.705 337.976 573.806 335.007L573.793 334.986L573.792 334.985L572.643 333.189C572.12 339.569 563.275 347.31 563.275 347.31C504.923 324.257 491.709 269.693 491.709 269.693C491.714 269.531 491.719 269.371 491.724 269.21C444.221 257.025 405.255 252.966 385.688 253.976C381.413 244.097 360.01 219.529 360.01 219.529C400.843 214.161 449.742 221.013 500.114 236.807C505.521 227.5 513.08 221.089 521.459 216.621C516.889 208.586 513.732 200.65 512.22 192.901C512.28 193.21 512.343 193.518 512.408 193.827C511.076 193.44 509.749 193.041 508.429 192.63C452.85 188.819 397.553 192.51 344.359 200.608C335.188 189.761 296.565 170.46 296.565 170.46C331.763 155.635 380.151 148.678 434.2 150.023C424.629 141.221 415.494 131.148 406.786 119.66ZM471.382 152.188C484.821 153.406 498.487 155.104 512.276 157.287C518.065 146.54 530.823 133.453 556.283 115.2C567.241 109.497 578.351 105.766 581.068 117.7L577.86 131.719L602.353 115.525C607.106 115.149 673.664 123.588 745.138 173.867C749.314 173.171 753.436 172.477 757.499 171.792L757.525 171.788L757.533 171.787C779.067 168.16 798.948 164.813 816.342 162.923C703.871 -15.217 512.731 18.9811 512.731 18.9811L474.548 67.4006C460.67 79.1446 461.087 67.5293 461.087 67.5293L453.762 33.379C438.911 48.0571 419.126 76.5994 414.34 83.6115C580.727 51.5756 692.816 87.399 753.211 131.934C684.66 98.5035 578.012 74.5943 426.439 114.233C440.224 129.746 455.323 142.231 471.382 152.188ZM513.756 241.279L513.755 241.29C524.248 244.895 534.779 248.872 545.289 253.192C544.294 248.921 561.156 221.351 561.156 221.351C537.342 222.184 513.756 241.279 513.756 241.279ZM566.285 262.285L566.091 262.201C637.983 294.931 707.04 342.951 754.126 396.746L754.119 396.732C768.417 393.389 811.119 416.175 811.119 416.175C705.927 239.823 616.393 237.002 616.393 237.002L566.285 262.285Z" stroke="#174174" stroke-width="6" stroke-dasharray="10 10" mask="url(#path-1-inside-1_29_3777)"/>
<path fill-rule="evenodd" clip-rule="evenodd" d="M621.68 381.665C621.603 381.789 621.531 381.902 621.465 382.003C628.719 378.969 654.622 376.403 659.008 376.699C756.06 466.088 809.365 639.383 749.626 731.013C743 741.176 737.957 731.876 737.957 731.876C698.591 697.09 649.382 638.609 649.382 638.609L654.116 547.399C629.826 576.359 636.023 604.176 636.023 604.176C634.498 614.646 626.75 609.23 626.75 609.23C569.511 538.503 560.361 495.718 560.361 495.718C559.479 493.024 559.872 452.04 559.872 452.04L547.847 472.963C541.26 477.116 537.395 471.43 537.395 471.43C518.667 426.813 531.677 378.688 531.677 378.688C531.698 378.639 531.72 378.59 531.742 378.541C531.788 378.439 531.836 378.335 531.887 378.23C497.622 354.688 461.355 336.375 425.255 325.802L420.637 322.562L417.49 289.407C456.65 291.32 506.396 317.497 554.496 356.693C573.473 344.508 602.285 334.614 634.515 344.327C634.524 344.33 634.54 344.333 634.562 344.338C634.59 344.343 634.627 344.35 634.673 344.358C635.889 344.574 643.141 345.86 639.188 355.498C633.459 360.922 627.297 371.814 623.792 378.009C623.367 378.76 622.982 379.442 622.64 380.037C622.908 380.379 623.178 380.721 623.448 381.063C622.784 381.261 622.191 381.462 621.68 381.665ZM624.165 354.631C597.595 346.058 569.437 363.439 565.556 365.961C575.386 374.424 585.107 383.402 594.611 392.797L624.165 354.631ZM726.313 651.939C734.499 576.656 677.405 478.47 604.934 403.253L604.964 403.282C604.964 403.282 637.04 387.691 652.977 388.328C652.977 388.328 815.366 558.73 741.175 717.857L663.789 635.313L669.417 527.349C669.417 527.349 663.521 521.424 658.511 521.123L653.495 523.776C653.495 523.776 629.791 556.153 622.622 582.103C622.622 582.103 586.196 531.259 576.524 502.032C576.524 502.032 573.013 493.64 573.652 478.396L575.865 428.549C575.865 428.549 572.968 410.85 561.989 425.252L546.855 450.893C546.855 450.893 535.548 410.669 544.324 387.067C637.46 455.458 713.329 561.348 726.313 651.939Z" stroke="#174174" stroke-width="6" stroke-dasharray="10 10" mask="url(#path-1-inside-1_29_3777)"/>
<path fill-rule="evenodd" clip-rule="evenodd" d="M223.496 89.282L223.653 88.6013C226.612 75.7575 229.993 61.0855 244.496 61.282C245.836 72.7679 248.41 78.5656 251.463 85.4437C251.802 86.2067 252.147 86.9831 252.496 87.782C254.187 89.5665 255.807 91.2099 257.359 92.7851C264.073 99.5951 269.529 105.13 273.996 115.282C335.032 98.9147 360.793 92.7387 384.92 88.075C384.874 81.7742 384.001 74.345 381.996 65.282C411.046 90.4868 442.285 135.766 432.679 166.193C434.459 172.597 436.232 179.594 437.996 187.282C440.044 200.385 444.103 207.788 448.802 216.355C449.84 218.249 450.91 220.2 451.996 222.282C473.996 256.782 522.916 344.782 538.996 379.782C541.482 385.192 540.59 387.714 539.496 390.782C524.496 423.282 488.996 474.586 442.496 502.282C397.416 529.132 357.496 544.282 307.496 549.782L296.496 485.282C296.023 485.981 295.553 486.675 295.087 487.364C277.223 513.758 263.937 533.39 246.233 542.884C240.872 545.659 235.004 547.657 228.482 548.656C219.089 549.972 208.295 549.105 195.323 545.765C164.436 537.126 141.258 514.159 144.996 474.282C145.68 466.99 150.126 464.322 154.306 461.813C156.714 460.368 159.034 458.975 160.496 456.782C164.284 437.846 169.089 419.588 173.43 403.097C176.539 391.286 179.41 380.381 181.496 370.782C182.109 367.573 182.991 364.368 183.87 361.173C186.445 351.815 188.993 342.556 184.676 333.602C180.487 324.927 178.65 316.899 176.684 308.301C175.927 304.995 175.152 301.605 174.216 298.062C171.728 285.458 173.189 276.852 174.008 272.032L174.008 272.03C174.084 271.581 174.155 271.165 174.216 270.782C185.525 235.336 206.711 197.764 228.39 167.412C234.88 156.844 231.489 146.98 228.202 137.416C227.611 135.696 227.023 133.985 226.496 132.282C222.926 120.692 221.186 101.382 223.496 89.282ZM420.134 171.961C418.771 174.82 417.209 177.469 415.671 180.076C411.083 187.855 406.712 195.267 408.496 206.782C411.646 197.472 416.416 186.992 423.996 180.282C426.296 192.382 431.386 204.292 437.306 214.982C452.975 243.298 471.011 276.874 489.044 310.445L489.047 310.451L489.05 310.456L489.053 310.462C503.074 336.565 517.093 362.663 529.996 386.282C478.496 492.282 374.916 529.607 315.996 540.282L301.996 476.282L359.996 389.782C371.978 389.782 388.496 388.782 398.996 383.782C434.496 368.782 450.496 293.782 419.496 232.782C432.496 298.782 435.496 396.782 345.496 378.282C351.996 385.782 350.496 386.282 350.496 386.282C348.715 389.063 346.935 391.841 345.156 394.616C318.474 436.235 291.995 477.102 263.746 517.032C263.215 517.876 262.609 518.693 261.938 519.483C257.238 525.013 249.306 529.235 240.976 532.262C238.445 533.178 235.863 533.988 233.247 534.679C214.934 539.515 194.953 538.501 179.246 527.032C178.215 526.126 177.218 525.2 176.253 524.24C169.497 517.516 164.31 509.095 159.996 493.782C159.838 493.22 159.906 492.47 160.149 491.62C161.846 485.673 172.058 474.845 172.496 489.281C172.621 488.531 172.72 487.629 172.782 486.632C173.218 479.647 171.885 467.993 165.496 471.282C165.222 471.465 164.963 471.641 164.718 471.812C161.033 474.374 160.368 475.724 158.881 478.744L158.874 478.757C158.803 478.902 158.729 479.051 158.654 479.204C158.108 480.307 157.442 481.627 156.496 483.282C156.246 482.688 156.043 482.104 155.884 481.531C153.498 472.934 161.027 466.782 168.996 466.782C168.98 466.758 168.964 466.734 168.947 466.71C168.93 466.684 168.912 466.659 168.895 466.635C168.387 465.92 167.88 465.54 167.451 465.219C167.142 464.987 166.873 464.786 166.673 464.511C166.073 463.688 166.09 462.206 167.496 457.282C168.629 452.484 169.877 447.171 171.212 441.491L171.294 441.141L171.294 441.139L171.295 441.138C172.378 436.524 173.519 431.672 174.699 426.661C182.96 391.583 193.193 348.717 199.996 325.282C206.088 325.602 211.472 322.52 214.336 317.28C215.859 314.495 216.67 311.1 216.496 307.282C214.192 309.257 212.189 311.103 210.417 312.736C208.17 314.808 206.294 316.536 204.65 317.748C199.717 321.383 196.857 320.372 192.226 310.052C192.058 309.676 191.891 309.309 191.726 308.95C189.257 303.566 187.229 300.025 185.751 297.444C185.64 297.251 185.532 297.063 185.428 296.88C184.12 294.591 183.303 293.088 183.067 291.646C183.02 291.357 182.996 291.071 182.996 290.782C181.996 241.282 233.496 176.782 271.996 130.282C265.226 152.472 258.156 176.592 261.996 200.782C266.674 196.299 271.484 191.475 276.447 186.498C291.501 171.399 307.955 154.898 326.341 142.28C326.732 142.011 327.124 141.745 327.517 141.48C333.805 137.241 340.317 133.466 347.076 130.362C354.059 127.156 361.998 127.592 370.063 130.295C365.719 138.985 361.989 149.7 361.496 166.782C361.716 173.182 362.496 178.782 368.996 185.782C368.919 183.25 368.779 180.589 368.634 177.843C367.837 162.728 366.903 145.032 375.695 132.155C375.719 132.121 375.742 132.086 375.766 132.052C387.952 114.346 393.457 103.361 393.496 86.4643C393.496 86.4036 393.496 86.3428 393.496 86.282C393.534 86.3358 393.572 86.3897 393.61 86.4435C428.924 136.498 427.232 157.073 420.134 171.961ZM241.58 149.894C250.671 138.458 259.51 128.653 267.386 121.186C259.609 114.453 251.51 106.073 245.996 97.782C244.139 94.7191 242.485 91.83 240.674 88.6638L240.672 88.6616L240.672 88.6608C239.538 86.6799 238.343 84.5905 236.996 82.282C232.74 104.342 235.661 128.837 241.58 149.894Z" fill="#174174"/>
<path d="M267.385 121.186C264.9 119.034 262.382 116.714 259.925 114.282C257.578 111.958 255.288 109.533 253.136 107.055C250.637 104.176 248.325 101.225 246.332 98.282C246.219 98.1153 246.107 97.9486 245.996 97.782C244.138 94.7183 242.485 91.8288 240.672 88.6616L240.672 88.6608C239.538 86.6799 238.343 84.5905 236.996 82.282C232.74 104.342 235.661 128.837 241.579 149.894C250.671 138.457 259.51 128.653 267.385 121.186Z" fill="white"/>
<path d="M423.996 180.282C416.416 186.992 411.646 197.472 408.496 206.782C406.712 195.267 411.083 187.855 415.671 180.076C417.209 177.469 418.771 174.82 420.133 171.961C427.24 157.057 428.928 136.453 393.496 86.282C393.496 103.282 387.996 114.282 375.766 132.052C366.898 144.937 367.834 162.688 368.634 177.843C368.779 180.589 368.919 183.25 368.996 185.782C362.496 178.782 361.716 173.182 361.496 166.782C361.989 149.7 365.719 138.985 370.063 130.295C361.998 127.591 354.058 127.156 347.076 130.362C320.041 142.777 296.946 165.938 276.447 186.498C271.484 191.475 266.674 196.299 261.996 200.782C258.156 176.592 265.226 152.472 271.996 130.282C233.496 176.782 181.996 241.282 182.996 290.782C182.996 292.635 183.977 294.348 185.751 297.444C187.327 300.197 189.53 304.043 192.226 310.052C198.4 323.812 201.426 321.023 210.417 312.736C212.189 311.103 214.192 309.257 216.496 307.282C216.996 318.282 209.326 325.772 199.996 325.282C192.22 352.064 179.966 404.226 171.295 441.138L171.294 441.139L171.294 441.141C169.929 446.952 168.652 452.385 167.496 457.282C165.621 463.848 166.216 464.293 167.451 465.218C167.909 465.562 168.455 465.971 168.996 466.782C160.496 466.782 152.496 473.782 156.496 483.282C157.577 481.39 158.293 479.937 158.88 478.744C160.467 475.522 161.117 474.201 165.496 471.282C172.797 467.523 173.496 483.282 172.496 489.282C171.996 472.782 158.728 489.282 159.996 493.782C164.926 511.282 170.996 519.782 179.246 527.032C197.196 540.139 220.73 539.591 240.976 532.262C250.496 528.802 259.496 523.782 263.746 517.032C293.878 474.44 321.996 430.782 350.496 386.282C350.496 386.282 351.996 385.782 345.496 378.282C435.496 396.782 432.496 298.782 419.496 232.782C450.496 293.782 434.496 368.782 398.996 383.782C388.496 388.782 371.977 389.782 359.996 389.782L301.996 476.282L315.996 540.282C374.916 529.607 478.496 492.282 529.996 386.282C517.091 362.66 503.07 336.557 489.046 310.45L489.044 310.445C471.011 276.874 452.975 243.298 437.306 214.982C431.386 204.292 426.296 192.382 423.996 180.282Z" fill="white"/>
<path d="M246.057 97.8728C251.569 106.134 259.638 114.477 267.386 121.186C262.649 125.677 257.564 131.013 252.286 137.041C252.188 137.123 252.092 137.203 251.996 137.282C250.063 133.417 246.73 104.337 246.057 97.8728Z" fill="#C4C3C3"/>
<path d="M398.996 109.282C415.636 130.182 419.836 165.192 400.996 186.282C400.855 184.015 401.276 181.171 401.722 178.157C402.67 171.746 403.732 164.566 399.746 160.532C395.987 156.741 391.456 160.603 387.337 164.115C385.024 166.086 382.841 167.948 380.996 168.282C378.456 146.192 385.276 125.742 398.996 109.282Z" fill="#C4C3C3"/>
<path fill-rule="evenodd" clip-rule="evenodd" d="M240.996 321.282C237.786 319.662 231.496 314.282 227.996 308.782C228.966 326.132 241.496 337.282 263.996 334.282C264.496 338.782 259.496 357.782 257.496 365.282C261.309 360.821 269.996 351.282 269.996 351.282C269.996 351.282 278.496 353.282 288.996 353.282C306.996 351.782 329.996 327.782 328.996 308.282C327.474 318.782 313.996 345.782 290.496 348.782C284.747 349.179 280.496 348.282 271.496 346.782C271.496 346.782 271.496 340.782 271.996 334.282C277.496 334.282 279.996 333.782 282.496 332.282C291.996 337.782 296.996 340.032 305.676 336.962C316.326 334.112 322.996 322.782 318.066 310.212C317.113 307.782 315.996 305.782 313.996 302.282C317.996 293.282 326.496 280.782 329.496 297.782C329.456 296.072 329.496 287.693 329.996 285.282C331.406 278.482 334.466 273.582 340.996 270.282C343.663 269.115 345.996 267.282 361.496 264.782C329.996 264.282 315.496 282.282 297.746 297.032C282.086 310.752 262.886 332.342 240.996 321.282Z" fill="#174174"/>
<path fill-rule="evenodd" clip-rule="evenodd" d="M329.485 296.863C329.473 294.087 329.558 287.394 329.996 285.282C331.393 278.544 334.41 273.672 340.818 270.373C340.877 270.342 340.936 270.312 340.996 270.282C332.256 277.112 332.496 293.282 332.996 304.282C334.996 316.282 336.156 328.752 327.746 337.032C319.336 345.322 312.766 349.712 302.916 354.202C293.076 358.702 284.396 363.432 278.226 372.512C261.996 400.782 250.996 436.782 240.496 471.282C240.852 471.608 241.206 471.929 241.557 472.247L241.559 472.249C247.114 477.284 251.728 481.466 247.496 492.282C245.496 483.782 239.416 474.892 229.996 477.282C234.443 457.305 241.65 428.983 247.596 405.615C252.526 386.239 256.589 370.268 257.496 365.282C257.496 365.282 257.496 365.282 257.496 365.281C261.304 360.826 269.97 351.31 269.996 351.282C269.996 351.282 269.996 351.282 269.996 351.282C270.062 351.297 278.537 353.282 288.996 353.282C306.996 351.782 329.996 327.782 328.996 308.282C329.496 303.282 329.496 302.282 329.496 297.782C329.496 297.782 329.496 297.782 329.496 297.782M329.485 296.863C329.492 297.17 329.496 297.475 329.496 297.781Z" fill="#C4C3C3"/>
<path d="M227.996 308.782C225.496 297.782 224.496 287.782 234.496 274.782C234.475 275.393 234.454 276.011 234.432 276.634C233.937 290.897 233.331 308.348 240.996 321.282C237.786 319.662 231.496 314.282 227.996 308.782Z" fill="#C4C3C3"/>
<circle cx="299.696" cy="328.282" r="6" fill="#D9383B"/>
<path d="M210.43 507.278C217.238 500.421 222.177 498.104 228.746 506.532C232.979 511.957 238.315 510.022 241.43 505.323C240.11 507.835 238.241 510.3 235.875 512.501C228.049 519.781 217.74 521.421 212.85 516.164C210.747 513.903 209.989 510.734 210.43 507.278Z" fill="#E7E7E9"/>
<path d="M243.725 497.284C243.642 499.839 242.855 502.609 241.43 505.323C238.315 510.022 232.979 511.957 228.746 506.532C222.181 498.109 217.244 500.418 210.442 507.265C214.174 502.223 214.931 501.52 218.501 498.21C218.81 497.923 219.14 497.617 219.496 497.286L243.725 497.284Z" fill="#B3B2B3"/>
<path d="M210.443 507.265C214.174 502.223 214.931 501.52 218.501 498.21C218.81 497.924 219.141 497.617 219.496 497.286L243.725 497.284C243.72 497.451 243.712 497.618 243.7 497.786C243.91 494.682 243.111 491.864 241.192 489.801C236.302 484.544 225.993 486.184 218.167 493.464C213.707 497.613 211.015 502.698 210.43 507.278" fill="#C4C3C3"/>
<path d="M172.346 487.185C172.422 487.815 172.473 488.513 172.496 489.282C172.497 489.275 172.498 489.269 172.499 489.263C172.511 489.96 172.485 490.676 172.417 491.404C171.83 497.728 168.356 502.576 164.657 502.233C163.828 502.156 163.058 501.824 162.369 501.285C161.548 498.98 160.759 496.489 159.996 493.782C158.887 489.844 168.909 476.715 171.765 484.557C172.025 485.37 172.221 486.252 172.346 487.185Z" fill="#E7E7E9"/>
<path fill-rule="evenodd" clip-rule="evenodd" d="M530.003 361.78C536.902 376.499 542.353 380.254 545.166 382.193C545.411 382.362 545.636 382.517 545.84 382.664C570.888 400.729 589.692 423.202 598.959 455.131C607.014 455.401 615.356 456.508 624.003 458.28C637.613 461.07 649.878 466.041 662.503 471.939C743.503 509.78 749.503 671.201 616.792 741.673C612.894 743.743 609.117 745.844 606.003 747.781C584.325 764.511 563.325 782.258 546.895 796.143L546.894 796.143C535.091 806.118 525.646 814.099 520.003 818.28C513.503 827.78 500.063 837.72 493.083 842.36C490.667 843.644 488.319 844.971 486.003 846.281C484.162 847.202 482.874 848.468 481.502 849.817C477.66 853.595 473.163 858.017 454.003 857.28C421.453 855.232 393.458 835.251 367.399 816.651L367.398 816.65L367.386 816.642C363.29 813.719 359.243 810.83 355.232 808.05C346.266 801.835 336.871 796.574 327.561 791.361L327.557 791.358C306.207 779.403 285.297 767.695 271.002 745.28C266.157 748.65 261.307 752.09 256.435 755.545C222.437 779.656 187.391 804.51 146.002 811.28C141.902 810.46 137.058 809.927 131.749 809.344C124.113 808.505 115.515 807.559 106.782 805.5C97.2425 803.26 88.4225 801.89 79.3225 805.6C51.5025 813.78 17.0523 811.164 6.68248 783.6C3.58248 775.36 1.04248 765.1 0.222484 756.06C-0.597516 747.02 0.652485 736.61 7.30249 729.59C12.1451 724.478 12.4303 723.993 13.3786 722.379C13.7345 721.773 14.1838 721.008 15.0025 719.78C8.50249 700.78 15.0825 642.36 26.0025 625.78C41.1019 602.854 68.9944 587.787 93.726 574.427C97.5818 572.345 101.361 570.303 105.002 568.28C104.502 550.78 114.002 534.78 123.252 521.53C129.797 512.155 136.855 502.104 145.5 494.259L146.503 493.28L150.003 508.28L149.56 508.699C133.675 524.273 113.159 549.18 121.002 569.28C113.565 572.343 103.065 578.085 97.2066 583.827C96.3697 584.647 95.6275 585.468 95.0025 586.28C114.65 589.188 132.85 597.618 150.002 607.28C157.352 581.313 171.902 558.707 185.186 542.284L185.503 541.78C188.263 542.917 191.078 543.907 194.003 544.78L193.503 545.23C191.45 548.651 188.944 552.663 186.192 557.014C174.522 575.464 158.433 600.902 153.76 621.69C153.092 624.659 152.658 627.534 152.502 630.28L152.534 630.238C171.942 604.158 208.021 574.659 242.003 576.28C265.28 578.482 289.349 596.12 305.246 608.9C307.517 610.726 309.621 612.453 311.533 614.021C317.508 618.924 321.598 622.28 323.003 622.28L325.08 621.381C329.46 619.485 334.321 617.38 339.501 615.152C368.964 602.479 408.737 585.809 428.834 580.779L428.864 580.772C432.698 579.814 435.813 579.28 438.003 579.28C453.367 579.28 461.897 583.061 471.143 587.16L471.144 587.161L471.15 587.163C472.734 587.866 474.339 588.577 476.003 589.28C480.008 533.649 510.5 476.868 563.394 460.088L563.403 460.086C563.683 459.997 563.964 459.909 564.246 459.823C570.521 457.892 577.109 456.521 584.003 455.78L583.985 455.668C580.441 432.691 561.467 405.257 539.503 390.78C535.709 388.28 532.503 384.78 530.003 361.78ZM605.839 732.682C593.66 725.375 571.479 712.066 544.111 699.052C553.139 695.248 559.106 689.191 562.529 685.716L562.532 685.714L562.534 685.711C563.324 684.91 563.978 684.246 564.503 683.78C554.101 675.512 542.845 667.386 532.102 659.63C522.705 652.846 513.701 646.345 506.003 640.28C519.922 645.78 521.503 646.78 535.003 656.78C539.926 660.427 574.503 673.28 585.503 654.78C571.336 641.417 554.503 628.28 536.003 614.28C524.76 608.659 504.943 600.405 487.083 593.629C489.264 566.62 493.977 540.117 503.922 524.2C512.627 508.094 523.079 493.153 538.703 482.98C561.82 466.865 594.05 461.731 624.003 468.387C753.503 502.78 718.003 675.78 605.839 732.682ZM595.297 738.96C589.1 744.38 582.659 749.888 576.106 755.494L576.104 755.495L576.099 755.5C557.327 771.556 537.621 788.41 520.003 806.28C504.721 821.78 491.833 834.29 472.922 843.2C454.023 852.12 426.283 841.6 408.313 831.98C400.886 827.389 394.206 821.87 387.513 816.34C378.605 808.981 369.673 801.601 358.923 796.36C349.091 790.645 340.276 785.254 331.434 779.846C322.36 774.297 313.259 768.731 303.003 762.78C286.796 753.376 283.075 744.556 276.364 728.645C275.152 725.773 273.898 722.922 272.643 720.071L272.642 720.069L272.635 720.053L272.634 720.051C271.967 718.535 271.3 717.019 270.639 715.5C262.058 695.767 254.862 680.126 243.003 660.28C232.738 639.75 193.475 642.148 168.687 643.663C163.29 643.992 158.579 644.28 155.003 644.28C165.857 631.618 177.23 622.526 189.552 612.674C192.159 610.59 194.807 608.473 197.503 606.28C212.933 593.72 238.003 582.28 258.073 592.21C266.643 594.995 286.069 610.185 309.511 628.514C337.162 650.136 370.402 676.127 398.003 691.28L421.222 690.28C455.503 705.78 495.003 736.28 515.503 769.78C516.937 749.22 480.421 709.457 468.48 703.395C479.987 705.796 502.991 710.448 518.503 701.78C521.8 702.32 524.903 702.529 527.819 702.471C554.698 713.792 577.079 725.176 595.297 738.96ZM475.003 622.78C490.503 621.28 507.353 626.94 519.922 635.36C523.058 637.46 525.837 639.581 528.487 641.603L528.489 641.605L528.491 641.606L528.493 641.608L528.495 641.609C538.732 649.422 547.044 655.766 566.503 653.78C564.494 652.074 562.566 650.433 560.71 648.854L560.695 648.841C538.083 629.597 526.286 619.557 511.503 614.28C507.844 612.832 503.733 611.162 499.356 609.385L499.354 609.384C475.018 599.502 442.478 586.289 434.003 589.28C422.024 593.137 410.378 598.121 398.187 603.338C391.66 606.131 384.976 608.99 378.003 611.78C367.003 617.78 356.955 622.876 347.003 626.28C344.006 627.369 340.834 628.19 337.686 629.005C333.984 629.963 330.315 630.913 327.003 632.28C328.119 633.072 329.344 633.945 330.662 634.884L330.676 634.894L330.679 634.896C347.676 647.001 380.181 670.152 395.303 674.92C396.367 674.512 397.438 674.028 398.552 673.525C404.451 670.862 411.533 667.665 424.933 672.35C430.692 674.364 436.514 677.53 442.654 680.869C452.58 686.267 463.337 692.118 476.003 694.28C477.267 694.465 478.59 694.716 479.941 694.973C484.655 695.87 489.728 696.834 494.003 695.28L492.624 694.245C478.857 683.903 448.846 661.359 430.003 649.28C439.003 644.28 462.908 648.78 470.753 654.53C477.184 658.493 483.463 663.721 489.761 668.966C507.702 683.905 525.798 698.973 548.003 685.28C526.003 663.28 499.823 647.72 473.003 634.28C473.147 633.415 473.291 632.301 473.447 631.094L473.448 631.089L473.448 631.084L473.449 631.08C473.834 628.101 474.292 624.557 475.003 622.78ZM141.631 630.008C139.732 639.512 137.577 650.301 134.003 653.28C106.582 659.36 80.5025 668.78 51.0025 689.28C41.0573 695.696 32.0025 702.28 23.0025 710.28C23.0025 707.464 22.9108 704.683 22.8195 701.912C22.6378 696.398 22.4573 690.923 23.0025 685.28C23.0025 671.02 27.0025 653.14 30.9825 640.26C34.9525 627.37 43.7525 616.96 54.7525 610.03C59.5301 607.017 63.4139 603.931 67.0585 601.035C71.7976 597.269 76.1324 593.824 81.5025 591.28C100.47 593.044 122.939 604.148 139.299 612.232L139.301 612.233L139.303 612.235L139.313 612.24C141.492 613.316 143.563 614.34 145.503 615.28C144.088 617.705 142.918 623.561 141.631 630.008ZM222.503 654.78C237.746 675.791 256.722 713.434 266.288 734.427C265.632 734.88 264.976 735.333 264.32 735.786C259.209 739.321 253.983 742.992 248.69 746.709L248.67 746.723C214.591 770.659 177.75 796.534 151.003 800.78C132.528 801.231 113.157 797.379 95.68 793.904C93.7635 793.522 91.8698 793.146 90.0025 792.78C85.0333 793.72 80.1362 794.841 75.3404 795.938L75.3385 795.938L75.337 795.939C62.2795 798.927 49.9725 801.743 39.0025 800.28C16.9965 792.225 8.0025 765.78 13.0025 743.28C17.5025 735.78 22.5249 728.472 28.9225 722.2C62.5025 689.28 102.003 662.28 175.003 661.28C179.781 660.893 184.093 660.705 188.161 660.529L188.163 660.528L188.165 660.528C199.846 660.021 209.524 659.601 222.503 654.78Z" fill="#174174"/>
<path d="M576.106 755.494C582.659 749.888 589.1 744.38 595.297 738.96C577.079 725.176 554.698 713.792 527.82 702.471C524.903 702.528 521.8 702.32 518.503 701.78C502.991 710.448 479.987 705.796 468.481 703.395C480.422 709.457 516.937 749.22 515.503 769.78C495.003 736.28 455.503 705.78 421.223 690.28L398.003 691.28C370.402 676.127 337.162 650.136 309.511 628.514C286.069 610.185 266.643 594.995 258.073 592.21C238.003 582.28 212.933 593.72 197.503 606.28C194.807 608.473 192.159 610.59 189.553 612.674C177.23 622.526 165.857 631.618 155.003 644.28C158.579 644.28 163.29 643.992 168.688 643.663C193.476 642.148 232.738 639.75 243.003 660.28C254.863 680.126 262.058 695.767 270.639 715.5C271.3 717.02 271.968 718.536 272.635 720.053L272.642 720.069L272.643 720.071C273.898 722.922 275.153 725.773 276.364 728.645C283.076 744.556 286.797 753.376 303.003 762.78C313.259 768.731 322.361 774.297 331.434 779.846C340.276 785.254 349.092 790.645 358.923 796.36C369.674 801.601 378.606 808.981 387.513 816.34C394.206 821.87 400.886 827.389 408.313 831.98C426.283 841.6 454.023 852.12 472.923 843.2C491.833 834.29 504.721 821.78 520.003 806.28C537.622 788.41 557.327 771.556 576.099 755.5L576.105 755.495L576.106 755.494Z" fill="white"/>
<path d="M519.923 635.36C507.353 626.94 490.503 621.28 475.003 622.78C474.292 624.557 473.834 628.101 473.449 631.08L473.448 631.084L473.448 631.089L473.447 631.094C473.291 632.301 473.147 633.415 473.003 634.28C499.823 647.72 526.003 663.28 548.003 685.28C525.798 698.973 507.702 683.905 489.762 668.966C483.463 663.721 477.184 658.493 470.753 654.53C462.908 648.78 439.003 644.28 430.003 649.28C448.846 661.359 478.857 683.903 492.625 694.245L494.003 695.28C489.728 696.834 484.656 695.87 479.941 694.973C478.59 694.716 477.268 694.465 476.003 694.28C463.337 692.118 452.58 686.267 442.654 680.869C436.514 677.53 430.692 674.364 424.933 672.35C411.533 667.665 404.451 670.862 398.552 673.525C397.438 674.028 396.367 674.512 395.303 674.92C380.182 670.152 347.676 647.001 330.679 634.896L330.676 634.894L330.663 634.884C329.344 633.945 328.119 633.072 327.003 632.28C330.315 630.913 333.984 629.963 337.686 629.005C340.834 628.19 344.006 627.369 347.003 626.28C356.955 622.876 367.003 617.78 378.003 611.78C384.977 608.99 391.66 606.131 398.187 603.338C410.378 598.121 422.025 593.137 434.003 589.28C442.478 586.289 475.018 599.502 499.355 609.384L499.356 609.385C503.733 611.162 507.845 612.832 511.503 614.28C526.287 619.557 538.083 629.597 560.695 648.841L560.71 648.854C562.566 650.433 564.494 652.074 566.503 653.78C547.045 655.766 538.732 649.422 528.495 641.609L528.494 641.608L528.491 641.606L528.489 641.605L528.488 641.603C525.837 639.581 523.058 637.46 519.923 635.36Z" fill="white"/>
<path d="M141.631 630.008C139.733 639.512 137.578 650.301 134.003 653.28C106.583 659.36 80.5027 668.78 51.0027 689.28C41.0575 695.696 32.0027 702.28 23.0027 710.28C23.0027 707.464 22.9111 704.683 22.8198 701.912C22.638 696.398 22.4576 690.923 23.0027 685.28C23.0027 671.02 27.0027 653.14 30.9827 640.26C34.9527 627.37 43.7527 616.96 54.7527 610.03C59.5304 607.017 63.4141 603.931 67.0587 601.035C71.7978 597.269 76.1326 593.824 81.5027 591.28C100.47 593.044 122.94 604.148 139.299 612.232L139.301 612.233L139.303 612.235L139.313 612.24C141.493 613.316 143.563 614.34 145.503 615.28C144.088 617.705 142.918 623.561 141.631 630.008Z" fill="white"/>
<path d="M266.288 734.427C256.722 713.434 237.746 675.791 222.503 654.78C209.524 659.601 199.846 660.021 188.165 660.528L188.164 660.528C184.095 660.705 179.782 660.893 175.003 661.28C102.003 662.28 62.5027 689.28 28.9227 722.2C22.5251 728.472 17.5027 735.78 13.0027 743.28C8.00274 765.78 16.9967 792.225 39.0027 800.28C49.9727 801.743 62.2798 798.927 75.3372 795.939L75.3387 795.938C80.1352 794.841 85.0329 793.72 90.0027 792.78C91.87 793.146 93.7637 793.522 95.6802 793.904C113.157 797.379 132.529 801.231 151.003 800.78C177.75 796.534 214.591 770.659 248.67 746.723L248.69 746.709C253.983 742.992 259.209 739.321 264.32 735.786C264.976 735.333 265.632 734.88 266.288 734.427Z" fill="white"/>
<path d="M22.8193 701.912C22.9106 704.683 23.0023 707.464 23.0023 710.28C24.9469 708.551 26.8942 706.889 28.8524 705.28C29.0023 692.78 35.0023 644.78 41.5023 636.78C47.0023 626.78 74.0023 602.28 87.0023 592.027C85.1428 591.7 83.3067 591.448 81.5023 591.28C76.1322 593.824 71.7973 597.269 67.0583 601.035C63.4136 603.931 59.5299 607.017 54.7523 610.03C43.7523 616.96 34.9523 627.37 30.9823 640.26C27.0023 653.14 23.0023 671.02 23.0023 685.28C22.4571 690.923 22.6376 696.398 22.8193 701.912Z" fill="#D0D1D2"/>
<path d="M41.3489 695.78C44.4888 693.564 47.6963 691.413 51.0023 689.28C60.5023 666.28 91.0023 615.78 111.002 599.237C107.026 597.658 103.001 596.206 99.0023 594.977C93.5023 601.78 45.5023 675.28 41.3489 695.78Z" fill="#D0D1D2"/>
<path d="M308.382 637.335C285.683 621.405 264.173 606.308 248.502 594.78C253.603 599.189 259.838 604.883 267.162 611.571C285.718 628.516 311.257 651.838 343.002 676.78C350.002 682.28 393.502 708.28 414.502 714.78C392.751 696.547 348.693 665.626 308.382 637.335Z" fill="#E7E7E9"/>
<path d="M248.669 698.652C251.792 704.582 254.772 710.449 257.502 715.975C257.502 715.975 45.0023 812.78 19.2453 783.78C12.1083 772.19 9.95304 757.002 13.0022 743.28C17.5401 750.639 22.1743 757.548 41.5023 756.28C101.502 750.28 212.502 718.28 248.669 698.652Z" fill="#E7E7E9"/>
<path d="M134.002 653.28C137.577 650.301 139.732 639.512 141.63 630.008C142.918 623.561 144.088 617.705 145.502 615.28C143.563 614.34 141.492 613.316 139.313 612.24L139.303 612.235L139.301 612.233L139.299 612.232C131.017 608.14 121.169 603.273 111.002 599.237C91.0025 615.78 60.5025 666.28 51.0024 689.28C76.8149 671.343 100.009 661.888 123.773 655.732C127.168 654.852 130.575 654.04 134.002 653.28Z" fill="#9A9898"/>
<path d="M491.502 724.49C491.502 724.49 537.002 713.78 543.002 717.28C543.817 717.778 544.619 718.264 545.411 718.744L545.419 718.749L545.427 718.754C553.378 723.575 560.277 727.759 568.002 736.28C572.194 740.904 561.413 748.922 547.327 759.398C539.571 765.166 530.814 771.679 523.002 778.78C526.502 787.28 524.503 801.78 524.503 801.78C540.938 785.573 558.909 770.202 576.098 755.5L576.104 755.495C582.658 749.889 589.099 744.38 595.297 738.96C577.079 725.175 554.698 713.792 527.819 702.471C524.903 702.528 521.8 702.32 518.502 701.78C502.991 710.448 479.987 705.796 468.48 703.395C473.422 705.904 482.574 714.186 491.502 724.49Z" fill="#9A9898"/>
<path d="M519.922 635.36C507.352 626.94 490.502 621.28 475.002 622.78C474.832 623.207 474.675 623.737 474.531 624.336C453.176 626.996 465.077 641.81 475.312 645.97C498.002 656.78 515.756 670.409 531.002 686.28C528.823 687.152 519.801 686.883 514.211 686.469C505.796 682.318 497.763 675.629 489.761 668.966L489.76 668.965C483.462 663.721 477.183 658.492 470.752 654.53C462.908 648.78 439.002 644.28 430.002 649.28C430.431 649.555 430.866 649.835 431.306 650.121C429.713 650.766 428.253 651.634 427.002 652.78C427.002 655.765 467.605 688.757 477.362 694.498C476.902 694.419 476.449 694.345 476.002 694.28C463.337 692.118 452.58 686.267 442.653 680.869C436.514 677.53 430.692 674.364 424.932 672.35C411.532 667.665 404.451 670.862 398.551 673.525C397.438 674.028 396.366 674.512 395.302 674.92C380.181 670.152 347.676 647.001 330.679 634.896L330.676 634.894L330.669 634.888L330.667 634.887L330.646 634.872L330.643 634.87L330.628 634.859C329.322 633.929 328.109 633.065 327.002 632.28C330.315 630.913 333.984 629.963 337.686 629.005C340.54 628.266 343.413 627.523 346.158 626.579C350.115 628.596 354.231 630.896 358.501 633.282L358.502 633.282C372.828 641.288 388.89 650.264 406.502 652.78C434.969 642.86 448.925 628.847 459.925 617.803L459.926 617.801C461.678 616.043 463.354 614.359 465.002 612.78C467.063 613.123 469.459 613.499 472.097 613.912C488.664 616.507 514.741 620.591 526.692 627.59C540.935 638.031 548.198 644.959 554.224 650.707L554.227 650.71C555.463 651.889 556.646 653.018 557.827 654.117C544.286 653.661 537.065 648.15 528.495 641.609C525.842 639.585 523.061 637.462 519.922 635.36Z" fill="#C4C3C3"/>
<path d="M472.922 843.2C491.832 834.29 504.721 821.78 520.003 806.28C521.488 804.773 522.989 803.273 524.503 801.78C524.503 801.78 526.502 787.28 523.002 778.78C530.814 771.679 539.57 765.166 547.326 759.399L547.327 759.398C561.413 748.922 572.194 740.904 568.002 736.28C560.277 727.759 553.378 723.575 545.427 718.754C544.63 718.271 543.823 717.781 543.002 717.28C537.002 713.78 491.502 724.49 491.502 724.49C504.147 739.082 516.343 757.729 515.502 769.78C495.002 736.28 455.502 705.78 421.222 690.28L403.002 691.065C451.002 707.78 489.002 806.78 464.502 795.28C427.002 779.28 353.502 726.78 304.502 688.28C326.793 739.866 391.266 778.068 431.405 801.851C454.292 815.412 469.268 824.286 464.002 828.28C429.309 856.469 336.87 770.28 272.002 670.28C242.444 631.808 225.213 621.775 218.657 617.958C218.226 617.707 217.841 617.483 217.502 617.28C207.502 611.28 188.002 627.28 173.502 643.374C198.278 641.938 233.38 641.036 243.002 660.28C254.862 680.126 262.058 695.767 270.639 715.499C271.297 717.013 271.962 718.524 272.627 720.035L272.63 720.042L272.632 720.047L272.634 720.052L272.635 720.053L272.642 720.069L272.643 720.071C273.898 722.922 275.152 725.773 276.364 728.645C283.075 744.556 286.796 753.376 303.002 762.78C313.258 768.731 322.36 774.297 331.434 779.846C340.276 785.254 349.091 790.645 358.922 796.36C369.673 801.601 378.605 808.981 387.512 816.34C394.206 821.87 400.886 827.389 408.312 831.98C426.282 841.6 454.022 852.12 472.922 843.2Z" fill="#C4C3C3"/>
<path d="M266.288 734.427C265.632 734.88 264.975 735.333 264.32 735.786C259.209 739.321 253.984 742.991 248.692 746.708L248.69 746.709L248.67 746.723C214.591 770.659 177.75 796.534 151.002 800.78C132.528 801.231 113.157 797.379 95.6799 793.904L95.6711 793.902C94.7764 793.724 93.8868 793.547 93.0024 793.372L261.302 723.78C263.152 727.638 264.829 731.226 266.288 734.427Z" fill="#C4C3C3"/>
<path d="M471.143 587.16C472.729 587.863 474.336 588.576 476.002 589.28C480.502 526.78 518.432 462.83 584.002 455.78C580.502 432.78 561.502 405.28 539.502 390.78C524.502 423.28 489.002 474.584 442.502 502.28C397.422 529.13 357.502 544.28 307.502 549.78L296.502 485.28C296.029 485.979 295.56 486.673 295.093 487.362C263.5 534.043 246.224 559.528 193.502 545.24C191.45 548.661 188.944 552.663 186.192 557.014C172.855 578.1 153.746 608.313 152.502 630.28C171.903 604.189 208.002 574.658 242.002 576.28C268.605 578.797 296.242 601.474 311.532 614.021C317.508 618.924 321.597 622.28 323.002 622.28C323.682 621.986 324.375 621.686 325.08 621.381C359.14 606.635 422.327 579.28 438.002 579.28C453.367 579.28 461.897 583.061 471.143 587.16Z" fill="#ED1F23"/>
<path d="M544.11 699.052C571.479 712.066 593.66 725.375 605.839 732.682C718.002 675.78 753.502 502.78 624.002 468.387C594.05 461.731 561.82 466.865 538.702 482.98C523.079 493.153 512.627 508.094 503.922 524.2C493.977 540.117 489.264 566.62 487.083 593.629C504.943 600.405 524.76 608.659 536.002 614.28C554.502 628.28 571.336 641.417 585.502 654.78C574.502 673.28 539.926 660.427 535.002 656.78C521.502 646.78 519.922 645.78 506.002 640.28C513.701 646.345 522.705 652.846 532.102 659.63C542.845 667.386 554.101 675.512 564.502 683.78C563.978 684.247 563.324 684.91 562.534 685.712L562.532 685.714L562.529 685.716C559.106 689.191 553.138 695.248 544.11 699.052Z" fill="#ED1F23"/>
<path d="M149.56 508.699C133.674 524.273 113.159 549.18 121.002 569.28C112.502 572.78 100.002 579.78 95.0024 586.28C114.649 589.188 132.85 597.618 150.002 607.28C157.352 581.313 171.902 558.707 185.186 542.284C169.211 535.701 156.254 524.652 149.56 508.699Z" fill="#ED1F23"/>
<path d="M670.257 533.28C685.502 568.78 673.002 623.28 658.002 660.78C711.002 584.28 694.502 548.78 670.257 533.28Z" fill="#F19B9B"/>
<path d="M577.936 436.318C538.491 458.79 528.472 468.091 512.752 483.03C492.84 501.994 478.752 522.78 465.232 548.51C464.874 549.14 464.482 549.874 464.057 550.668C461.138 556.122 456.676 564.462 451.002 562.28C450.254 561.79 449.561 561.328 448.911 560.895C445.7 558.755 443.563 557.331 441.223 556.788C436.572 555.71 431.115 558.111 414.815 565.283C408.819 567.921 401.354 571.206 391.922 575.2C384.962 578.221 378.324 581.178 371.866 584.055L371.862 584.057C358.911 589.827 346.679 595.276 334.002 600.28C317.502 587.78 324.872 581.41 338.002 581.28C347.502 580.28 361.002 576.78 373.072 572.35C423.002 552.78 467.002 518.28 501.752 483.03C527.907 458.868 542.894 440.414 564.269 414.068C569.768 421.09 574.455 428.69 577.936 436.318Z" fill="#EB7070"/>
<path d="M605.839 732.682C605.966 732.618 606.093 732.553 606.22 732.489C606.335 732.43 606.449 732.371 606.564 732.312C624.617 701.062 640.888 658.381 648.944 637.248C650.157 634.066 651.184 631.372 652.002 629.28C660.218 608.28 665.002 548.28 652.002 516.28C637.644 489.469 597.159 465.479 565.693 470.172C565.438 470.248 565.183 470.325 564.928 470.403C561.657 475.815 557.833 481.626 553.776 487.792C536.1 514.653 514.002 548.232 514.002 584.78C513.502 587.78 524.002 601.28 534.502 613.28C534.68 613.409 534.858 613.539 535.037 613.669C535.221 613.804 535.406 613.939 535.591 614.075C535.729 614.143 535.866 614.212 536.002 614.28C553.411 627.454 569.343 639.863 582.966 652.416C583.313 652.706 583.659 652.994 584.002 653.28C584.316 653.577 584.586 653.788 584.817 653.969C585.514 654.515 585.86 654.786 586.002 656.28C586.512 661.64 578.702 668.18 573.772 670.05C568.842 671.92 556.902 674.59 551.002 673.28L551.055 673.461C555.62 676.864 560.137 680.31 564.502 683.78C563.977 684.247 563.323 684.911 562.532 685.713L562.531 685.715L562.529 685.716C560.992 687.277 558.941 689.358 556.331 691.522C558.279 698.101 560.249 704.625 561.248 707.554C580.689 717.592 596.319 726.97 605.839 732.682Z" fill="#EB7070"/>
<path d="M185.186 542.284C171.902 558.707 157.352 581.313 150.002 607.28C137.601 600.294 124.651 593.952 111.002 589.876C115.417 587.228 119.297 585.019 122.783 583.034C129.955 578.95 135.455 575.818 140.502 571.78L140.742 571.449C151.103 557.142 157.629 548.129 167.758 532.28C172.954 536.34 178.831 539.665 185.186 542.284Z" fill="#EB7070"/>
<path d="M275.93 514.718C258.637 537.526 242.69 550.512 215.998 549.143C199.714 561.328 180.502 575.78 177.002 599.28C206.502 579.78 243.102 563.01 274.502 583.28C271.662 576.4 263.412 552.6 274.922 556.36C283.297 561.59 287.913 566.581 292.474 571.513C293.948 573.106 295.415 574.693 297.002 576.28C296.002 558.78 284.002 525.78 275.93 514.718Z" fill="#EB7070"/>
<path d="M463.002 508.78C488.96 492.058 529.992 441.209 553.885 402.47C550.699 399.362 547.364 396.482 543.932 393.903C517.972 439.318 501.471 460.309 466.752 492.03C428.348 522.623 378.833 535.704 328.178 549.086L328.174 549.087C320.465 551.123 312.729 553.167 305.002 555.28C302.76 543.433 299.656 531.814 296.55 520.188C294.292 511.734 292.032 503.275 290.102 494.722C287.722 498.218 285.414 501.576 283.154 504.787L301.002 564.28C347.502 555.28 432.502 530.78 463.002 508.78Z" fill="white"/>
<path d="M104.103 578.335C108.022 575.679 112.448 573.229 116.495 571.292C129.968 571.75 148.369 579.667 158.334 584.889C156.658 588.531 155.092 592.272 153.666 596.102C146.427 590.446 126.249 579.601 104.103 578.335Z" fill="white"/>
<path d="M555.737 692.008C568.94 696.156 612.728 715.334 622.832 722.815C627.27 719.894 631.559 716.786 635.693 713.51C626.808 708.665 580.326 686.936 564.191 684.065C563.726 684.502 563.175 685.061 562.536 685.71L562.531 685.714L562.53 685.716L562.529 685.717C560.877 687.394 558.632 689.672 555.737 692.008Z" fill="white"/>
</g>
<defs>
<clipPath id="clip0_29_3777">
<rect width="898" height="857" fill="white" transform="translate(0 0.5)"/>
</clipPath>
</defs>
</svg>
