<svg width="899" height="859" viewBox="0 0 899 859" fill="none" xmlns="http://www.w3.org/2000/svg">
<g clip-path="url(#clip0_27_2658)">
<path fill-rule="evenodd" clip-rule="evenodd" d="M291.824 163.039C332.614 144.925 370.911 130.987 406.796 120.56C415.504 132.047 424.639 142.121 434.211 150.923C446.348 151.224 458.77 151.945 471.393 153.088C455.333 143.131 440.234 130.646 426.449 115.133C578.022 75.4942 684.67 99.4034 753.222 132.834C692.827 88.2989 580.737 52.4755 414.351 84.5114C419.136 77.4993 438.922 48.957 453.772 34.2789L461.097 68.4292C461.097 68.4292 460.68 80.0445 474.558 68.3005L512.742 19.881C512.742 19.881 703.881 -14.3171 816.352 163.822C798.958 165.713 779.078 169.06 757.543 172.687C753.469 173.373 749.335 174.069 745.148 174.767C751.148 178.987 757.183 183.503 763.218 188.333C767.846 187.64 772.51 186.939 777.211 186.233L777.215 186.233C797.809 183.139 819.102 179.941 841.109 176.863C841.109 176.863 748.428 -22.7779 507.712 4.06043L473.062 48.3543L464.677 7.83564C464.677 7.83564 427.059 25.9392 393.598 88.8009C363.447 95.4549 331.6 104.298 298.045 115.656L291.824 163.039ZM512.418 194.727C512.353 194.418 512.29 194.11 512.23 193.801C510.966 193.707 509.703 193.616 508.44 193.53C509.76 193.941 511.086 194.34 512.418 194.727Z" fill="#174174"/>
<path fill-rule="evenodd" clip-rule="evenodd" d="M753.222 132.834C692.827 88.299 580.737 52.4756 414.351 84.5115C419.136 77.4994 438.922 48.9571 453.772 34.279L461.098 68.4293C461.098 68.4293 460.68 80.0446 474.558 68.3006L512.742 19.8812C512.742 19.8812 703.881 -14.317 816.352 163.823C798.958 165.713 779.078 169.06 757.543 172.687C753.469 173.373 749.335 174.069 745.148 174.767C673.674 124.489 607.116 116.05 602.363 116.426L577.87 132.619L581.078 118.6C578.36 106.666 567.251 110.397 556.293 116.1C530.833 134.353 518.075 147.441 512.286 158.187C498.497 156.004 484.831 154.306 471.393 153.089C455.333 143.131 440.234 130.646 426.449 115.133C578.022 75.4943 684.67 99.4035 753.222 132.834Z" fill="white"/>
<path d="M512.755 19.8789C514.494 19.5721 692.955 -11.4805 805.851 148.11C782.651 121.7 653.871 -10.0793 462.146 76.938C446.744 78.8364 430.813 81.3417 414.351 84.5114C418.538 78.3758 434.21 55.7562 448.011 40.364C449.983 38.1651 451.916 36.1138 453.773 34.279L461.098 68.4292C461.098 68.4292 461.072 69.1552 461.25 70.0606C461.738 72.5506 463.768 76.3978 472.121 70.2373C472.88 69.6773 473.691 69.0345 474.559 68.3005L512.735 19.8906L512.742 19.8817C512.742 19.8817 512.747 19.8807 512.755 19.8789Z" fill="#A6B1B8"/>
<path fill-rule="evenodd" clip-rule="evenodd" d="M296.575 171.36C296.575 171.36 335.198 190.661 344.369 201.507C398.772 193.226 455.376 189.553 512.23 193.801C513.742 201.55 516.899 209.486 521.469 217.521C526.47 214.854 531.764 212.879 537.067 211.394C533.695 205.951 531.133 200.669 529.476 195.601L529.487 195.336C637.467 206.505 745.639 247.421 840.66 340.734C775.086 242.46 650.139 183.933 530.942 161.425L530.975 160.666C530.975 160.666 543.232 142.455 560.603 133.128L553.97 150.708C553.97 150.708 549.764 169.19 571.938 155.777L605.804 133.737C605.804 133.737 796.578 150.019 879.832 388.496C858.337 388.909 832.203 384.311 803.983 376.095C807.838 382.466 811.577 389.024 815.179 395.767C847.583 404.543 874.511 407.851 890.417 403.657C890.417 403.657 899.968 404.824 897.027 392.763C819.77 143.639 610.92 115.748 602.363 116.425L577.869 132.619L581.078 118.6C578.36 106.666 567.251 110.396 556.293 116.099C530.833 134.353 518.074 147.44 512.286 158.187C427.862 144.82 348.092 149.661 296.575 171.36ZM566.343 245.666C566.183 245.515 566.024 245.365 565.865 245.214C565.673 245.535 565.478 245.861 565.28 246.192C565.619 246.024 565.974 245.849 566.343 245.666Z" fill="#174174"/>
<path fill-rule="evenodd" clip-rule="evenodd" d="M840.661 340.733C775.087 242.46 650.14 183.933 530.943 161.424L530.975 160.666C530.975 160.666 543.233 142.454 560.604 133.128L553.971 150.708C553.971 150.708 549.764 169.19 571.938 155.776L605.804 133.737C605.804 133.737 796.579 150.019 879.833 388.496C858.338 388.909 832.203 384.31 803.984 376.095C740.342 270.904 645.156 216.636 615.626 221.298C606.08 226.098 590.831 233.605 578.772 239.541L578.769 239.542L578.714 239.57L578.666 239.593C573.856 241.961 569.559 244.076 566.343 245.666C566.184 245.515 566.024 245.365 565.865 245.214C566.706 243.81 567.487 242.506 568.215 241.291L568.222 241.28C577.379 225.994 578.08 224.823 581.447 217.007C582.209 207.602 577.307 204.812 569.452 206.515L568.911 206.558C560.2 207.245 548.612 208.159 537.067 211.393C533.696 205.951 531.133 200.669 529.476 195.601L529.487 195.336C637.468 206.505 745.64 247.421 840.661 340.733Z" fill="white"/>
<path d="M611.526 182.129C584.868 173.376 557.76 166.489 530.942 161.425L530.975 160.666C530.975 160.666 543.232 142.455 560.603 133.128L553.97 150.708L553.97 150.71C553.925 150.91 550.543 166.19 566.93 158.493C568.421 157.848 570.083 156.958 571.936 155.778L571.938 155.777L605.769 133.76C605.783 133.76 605.797 133.76 605.811 133.76C605.905 133.762 606.003 133.763 606.105 133.766C613.609 134.513 759.906 151.132 849.412 318.634C825.316 284.117 750.427 193.909 620.741 184.849C620.741 184.849 617.245 183.797 611.526 182.129Z" fill="#A6B1B8"/>
<path fill-rule="evenodd" clip-rule="evenodd" d="M360.021 220.429C360.021 220.429 381.424 244.997 385.699 254.875C405.266 253.865 444.232 257.924 491.735 270.11C491.73 270.271 491.724 270.431 491.72 270.593C491.72 270.593 504.934 325.157 563.285 348.21C563.285 348.21 572.131 340.469 572.654 334.088L573.803 335.884C575.706 338.86 577.745 342.049 579.932 345.43C584.694 343.942 589.715 342.762 594.952 342.003C585.22 326.772 578.136 313.669 573.399 303.82C573.399 303.82 559.186 286.341 555.82 307.11L554.032 329.548C554.032 329.548 519.027 311.996 509.839 275.433L509.884 275.054C610.687 304.115 741.324 368.511 809.867 494.121C804.45 474.212 795.054 454.341 782.483 434.907L785.904 438.072L832.293 481.635L839.562 547.255C802.151 530.859 769.237 511.89 740.433 491.798C744.957 501.559 749.086 511.481 752.788 521.489C778.574 538.057 807.629 553.75 840.373 567.72C840.373 567.72 851.291 574.313 853.283 559.275C853.283 559.275 852.409 502.962 847.749 484.423C847.749 484.423 843.65 471.265 836.397 465.756C836.397 465.756 796.693 423.731 775.495 412.585C775.495 412.585 813.389 427.408 838.764 448.372C782.838 296.065 651.306 215.665 615.625 221.299C606.078 226.099 590.828 233.607 578.769 239.543L578.714 239.57L578.662 239.596C573.302 242.234 568.579 244.559 565.28 246.192C566.348 244.407 567.325 242.776 568.221 241.28C577.379 225.994 578.08 224.823 581.447 217.007C582.209 207.603 577.307 204.813 569.452 206.515L568.911 206.558C549.496 208.09 515.788 210.75 500.124 237.707C449.753 221.913 400.854 215.061 360.021 220.429ZM623.459 381.963C623.16 381.585 622.863 381.208 622.567 380.831C622.117 381.615 621.748 382.237 621.475 382.652C622.032 382.419 622.699 382.189 623.459 381.963ZM513.767 242.178L513.766 242.19C524.259 245.795 534.79 249.772 545.3 254.092C544.304 249.821 561.167 222.251 561.167 222.251C537.353 223.084 513.767 242.178 513.767 242.178ZM566.296 263.185L566.102 263.101C637.994 295.831 707.05 343.851 754.137 397.646L754.13 397.632C768.428 394.289 811.129 417.075 811.129 417.075C705.937 240.723 616.404 237.902 616.404 237.902L566.296 263.185Z" fill="#174174"/>
<path fill-rule="evenodd" clip-rule="evenodd" d="M513.767 242.178L513.766 242.19C524.259 245.795 534.79 249.772 545.3 254.092C544.305 249.821 561.167 222.251 561.167 222.251C537.353 223.084 513.767 242.178 513.767 242.178ZM566.296 263.185L566.102 263.101C637.994 295.831 707.05 343.851 754.137 397.646L754.13 397.632C768.428 394.289 811.13 417.075 811.13 417.075C705.937 240.723 616.404 237.902 616.404 237.902L566.296 263.185ZM809.867 494.121C804.45 474.212 795.054 454.341 782.483 434.907L785.904 438.072L832.293 481.635L839.562 547.255C802.151 530.859 769.237 511.89 740.433 491.798C720.25 448.254 692.189 407.9 659.018 377.348C654.969 377.075 632.582 379.241 623.459 381.963C623.16 381.585 622.863 381.208 622.567 380.831C622.929 380.203 623.343 379.471 623.803 378.658L623.803 378.658C627.307 372.463 633.469 361.571 639.198 356.147C643.151 346.509 635.9 345.223 634.683 345.007C634.601 344.992 634.547 344.983 634.525 344.976C620.512 340.753 607.145 340.236 594.952 342.003C585.22 326.772 578.136 313.669 573.399 303.82C573.399 303.82 559.186 286.341 555.821 307.11L554.032 329.548C554.032 329.548 519.027 311.996 509.839 275.433L509.884 275.054C610.687 304.115 741.324 368.511 809.867 494.121Z" fill="white"/>
<path d="M545.299 254.092C534.789 249.772 524.259 245.795 513.766 242.19C513.766 242.19 513.766 242.19 513.766 242.19L513.767 242.178C513.767 242.178 537.352 223.084 561.166 222.251C561.109 222.345 544.305 249.828 545.299 254.092Z" fill="#A6B1B8"/>
<path d="M776.034 363.496C751.145 343.106 649.3 263.721 573.201 264.47C573.201 264.47 571.32 264.606 569.326 264.58C568.252 264.084 567.177 263.591 566.101 263.101L566.296 263.185L616.404 237.902C616.404 237.902 686.771 240.119 776.034 363.496Z" fill="#A6B1B8"/>
<path fill-rule="evenodd" clip-rule="evenodd" d="M417.501 290.056L420.648 323.211L425.266 326.451C461.365 337.024 497.633 355.337 531.898 378.879C531.823 379.035 531.753 379.187 531.688 379.337C531.688 379.337 518.678 427.462 537.406 472.079C537.406 472.079 541.271 477.765 547.858 473.612L559.882 452.69C559.882 452.69 559.489 493.673 560.372 496.367C560.372 496.367 569.522 539.152 626.761 609.879C626.761 609.879 634.509 615.295 636.034 604.825C636.034 604.825 629.837 577.008 654.126 548.048L649.392 639.258C649.392 639.258 698.602 697.739 737.967 732.525C737.967 732.525 743.011 741.825 749.637 731.662C809.375 640.032 756.071 466.737 659.018 377.348C654.632 377.052 628.73 379.618 621.475 382.652C621.967 381.903 622.77 380.485 623.803 378.658L623.803 378.658C627.308 372.463 633.469 361.571 639.198 356.147C643.152 346.509 635.9 345.223 634.684 345.007C634.602 344.992 634.547 344.983 634.525 344.976C602.296 335.263 573.484 345.157 554.506 357.342C506.407 318.146 456.661 291.969 417.501 290.056ZM624.176 355.28C597.606 346.707 569.447 364.088 565.567 366.61C575.397 375.073 585.117 384.051 594.622 393.446L624.176 355.28ZM726.324 652.588C734.51 577.305 677.416 479.119 604.945 403.902L604.974 403.931C604.974 403.931 637.051 388.34 652.988 388.977C652.988 388.977 815.377 559.379 741.186 718.506L663.8 635.962L669.428 527.998C669.428 527.998 663.532 522.074 658.522 521.772L653.506 524.425C653.506 524.425 629.802 556.802 622.632 582.752C622.632 582.752 586.206 531.908 576.534 502.681C576.534 502.681 573.024 494.289 573.662 479.045L575.875 429.198C575.875 429.198 572.978 411.499 562 425.901L546.866 451.542C546.866 451.542 535.559 411.318 544.334 387.716C637.47 456.107 713.34 561.997 726.324 652.588Z" fill="#174174"/>
<path fill-rule="evenodd" clip-rule="evenodd" d="M624.176 355.28C597.606 346.707 569.447 364.088 565.567 366.61C575.397 375.073 585.117 384.051 594.622 393.446L624.176 355.28ZM726.324 652.589C734.51 577.306 677.416 479.119 604.945 403.902L604.974 403.931C604.974 403.931 637.051 388.34 652.988 388.977C652.988 388.977 815.377 559.379 741.186 718.506L663.8 635.962L669.428 527.998C669.428 527.998 663.532 522.074 658.522 521.772L653.506 524.425C653.506 524.425 629.802 556.802 622.632 582.752C622.632 582.752 586.206 531.909 576.534 502.681C576.534 502.681 573.024 494.289 573.662 479.045L575.875 429.198C575.875 429.198 572.978 411.499 562 425.901L546.866 451.542C546.866 451.542 535.559 411.319 544.334 387.716C637.47 456.107 713.34 561.997 726.324 652.589Z" fill="white"/>
<path d="M565.567 366.61C569.45 364.087 597.607 346.708 624.176 355.28L596.784 390.653L588.388 387.373C580.882 380.168 573.258 373.232 565.567 366.61Z" fill="#A6B1B8"/>
<path d="M615.513 399.221C615.297 399.404 615.19 399.503 615.19 399.503C748.343 470.203 752.164 684.572 752.232 689.236C796.128 539.18 652.988 388.977 652.988 388.977C642.887 388.573 626.304 394.688 615.513 399.221Z" fill="#A6B1B8"/>
<path fill-rule="evenodd" clip-rule="evenodd" d="M223.496 89.6812L223.653 89.0005C226.612 76.1567 229.993 61.4846 244.496 61.6812C245.836 73.1671 248.41 78.9648 251.463 85.8429C251.802 86.6059 252.147 87.3823 252.496 88.1811C254.187 89.9657 255.807 91.6091 257.359 93.1842C264.073 99.9943 269.529 105.529 273.996 115.681C335.032 99.3139 360.793 93.1379 384.92 88.4742C384.874 82.1733 384.001 74.7442 381.996 65.6812C411.046 90.8859 442.285 136.166 432.679 166.593C434.459 172.996 436.232 179.993 437.996 187.681C440.044 200.785 444.103 208.187 448.802 216.755C449.84 218.648 450.91 220.599 451.996 222.681C473.996 257.181 522.916 345.181 538.996 380.181C541.482 385.591 540.59 388.114 539.496 391.181C524.496 423.681 488.996 474.986 442.496 502.681C397.416 529.531 357.496 544.681 307.496 550.181L296.496 485.681C296.023 486.38 295.553 487.074 295.087 487.763C277.223 514.158 263.937 533.789 246.233 543.284C240.872 546.058 235.004 548.056 228.482 549.056C219.089 550.371 208.295 549.504 195.323 546.164C164.436 537.526 141.258 514.558 144.996 474.681C145.68 467.389 150.126 464.721 154.306 462.212C156.714 460.767 159.034 459.374 160.496 457.181C164.284 438.245 169.089 419.987 173.43 403.496C176.539 391.685 179.41 380.78 181.496 371.181C182.109 367.972 182.991 364.767 183.87 361.573C186.445 352.215 188.993 342.955 184.676 334.001C180.487 325.326 178.65 317.298 176.684 308.7C175.927 305.394 175.152 302.005 174.216 298.461C171.728 285.857 173.189 277.251 174.008 272.431L174.008 272.429C174.084 271.98 174.155 271.564 174.216 271.181C185.525 235.735 206.711 198.164 228.39 167.811C234.88 157.243 231.489 147.379 228.202 137.815C227.611 136.095 227.023 134.384 226.496 132.681C222.926 121.091 221.186 101.781 223.496 89.6812ZM420.134 172.361C418.771 175.219 417.209 177.868 415.671 180.475C411.083 188.254 406.712 195.666 408.496 207.181C411.646 197.871 416.416 187.391 423.996 180.681C426.296 192.781 431.386 204.691 437.306 215.381C452.975 243.697 471.011 277.274 489.044 310.844L489.047 310.85L489.05 310.855L489.053 310.861C503.074 336.964 517.093 363.062 529.996 386.681C478.496 492.681 374.916 530.006 315.996 540.681L301.996 476.681L359.996 390.181C371.978 390.181 388.496 389.181 398.996 384.181C434.496 369.181 450.496 294.181 419.496 233.181C432.496 299.181 435.496 397.181 345.496 378.681C351.996 386.181 350.496 386.681 350.496 386.681C348.715 389.463 346.935 392.24 345.156 395.015C318.474 436.634 291.995 477.501 263.746 517.431C263.215 518.275 262.609 519.092 261.938 519.882C257.238 525.412 249.306 529.634 240.976 532.661C238.445 533.577 235.863 534.388 233.247 535.078C214.934 539.914 194.953 538.9 179.246 527.431C178.215 526.525 177.218 525.599 176.253 524.639C169.497 517.916 164.31 509.494 159.996 494.181C159.838 493.619 159.906 492.869 160.149 492.019C161.846 486.072 172.058 475.244 172.496 489.681C172.621 488.931 172.72 488.029 172.782 487.031C173.218 480.047 171.885 468.393 165.496 471.681C165.222 471.864 164.963 472.04 164.718 472.211C161.033 474.773 160.368 476.123 158.881 479.143L158.874 479.156C158.803 479.301 158.729 479.45 158.654 479.603C158.108 480.706 157.442 482.026 156.496 483.681C156.246 483.088 156.043 482.504 155.884 481.93C153.498 473.334 161.027 467.181 168.996 467.181C168.98 467.157 168.964 467.133 168.947 467.109C168.93 467.084 168.912 467.058 168.895 467.034C168.387 466.319 167.88 465.939 167.451 465.618C167.142 465.386 166.873 465.185 166.673 464.911C166.073 464.087 166.09 462.606 167.496 457.681C168.629 452.883 169.877 447.57 171.212 441.89L171.294 441.54L171.294 441.539L171.295 441.537C172.378 436.923 173.519 432.071 174.699 427.06C182.96 391.982 193.193 349.116 199.996 325.681C206.088 326.001 211.472 322.919 214.336 317.679C215.859 314.894 216.67 311.499 216.496 307.681C214.192 309.656 212.189 311.503 210.417 313.135C208.17 315.207 206.294 316.935 204.65 318.147C199.717 321.783 196.857 320.771 192.226 310.451C192.058 310.076 191.891 309.708 191.726 309.35C189.257 303.965 187.229 300.424 185.751 297.844C185.64 297.65 185.532 297.462 185.428 297.279C184.12 294.99 183.303 293.488 183.067 292.045C183.02 291.757 182.996 291.471 182.996 291.181C181.996 241.681 233.496 177.181 271.996 130.681C265.226 152.871 258.156 176.991 261.996 201.181C266.674 196.698 271.484 191.874 276.447 186.897C291.501 171.799 307.955 155.297 326.341 142.679C326.732 142.41 327.124 142.144 327.517 141.879C333.805 137.64 340.317 133.865 347.076 130.761C354.059 127.555 361.998 127.991 370.063 130.694C365.719 139.385 361.989 150.1 361.496 167.181C361.716 173.581 362.496 179.181 368.996 186.181C368.919 183.65 368.779 180.988 368.634 178.242C367.837 163.128 366.903 145.431 375.695 132.554C375.719 132.52 375.742 132.486 375.766 132.451C387.952 114.745 393.457 103.76 393.496 86.8635C393.496 86.8028 393.496 86.742 393.496 86.6812C393.534 86.735 393.572 86.7888 393.61 86.8426C428.924 136.897 427.232 157.472 420.134 172.361ZM241.58 150.293C250.671 138.857 259.51 129.052 267.386 121.586C259.609 114.852 251.51 106.472 245.996 98.1812C244.139 95.1183 242.485 92.2292 240.674 89.063L240.672 89.0608L240.672 89.0599C239.538 87.0791 238.343 84.9897 236.996 82.6812C232.74 104.741 235.661 129.236 241.58 150.293Z" fill="#174174"/>
<path d="M267.385 121.586C264.9 119.433 262.382 117.113 259.925 114.681C257.578 112.358 255.288 109.932 253.136 107.454C250.637 104.575 248.325 101.625 246.332 98.6812C246.219 98.5145 246.107 98.3478 245.996 98.1811C244.138 95.1175 242.485 92.2279 240.672 89.0608L240.672 89.0599C239.538 87.0791 238.343 84.9897 236.996 82.6812C232.74 104.741 235.661 129.236 241.579 150.293C250.671 138.857 259.51 129.052 267.385 121.586Z" fill="white"/>
<path d="M423.996 180.681C416.416 187.391 411.646 197.871 408.496 207.181C406.712 195.666 411.083 188.254 415.671 180.475C417.209 177.868 418.771 175.219 420.133 172.361C427.24 157.456 428.928 136.852 393.496 86.6812C393.496 103.681 387.996 114.681 375.766 132.451C366.898 145.336 367.834 163.087 368.634 178.242C368.779 180.988 368.919 183.65 368.996 186.181C362.496 179.181 361.716 173.581 361.496 167.181C361.989 150.1 365.719 139.385 370.063 130.694C361.998 127.991 354.058 127.555 347.076 130.761C320.041 143.176 296.946 166.338 276.447 186.897C271.484 191.874 266.674 196.699 261.996 201.181C258.156 176.991 265.226 152.871 271.996 130.681C233.496 177.181 181.996 241.681 182.996 291.181C182.996 293.034 183.977 294.747 185.751 297.844C187.327 300.596 189.53 304.442 192.226 310.451C198.4 324.211 201.426 321.423 210.417 313.135C212.189 311.503 214.192 309.656 216.496 307.681C216.996 318.681 209.326 326.171 199.996 325.681C192.22 352.463 179.966 404.625 171.295 441.537L171.294 441.539L171.294 441.54C169.929 447.351 168.652 452.784 167.496 457.681C165.621 464.247 166.216 464.692 167.451 465.618C167.909 465.961 168.455 466.37 168.996 467.181C160.496 467.181 152.496 474.181 156.496 483.681C157.577 481.789 158.293 480.336 158.88 479.143C160.467 475.922 161.117 474.6 165.496 471.681C172.797 467.923 173.496 483.681 172.496 489.681C171.996 473.181 158.728 489.681 159.996 494.181C164.926 511.681 170.996 520.181 179.246 527.431C197.196 540.538 220.73 539.991 240.976 532.661C250.496 529.201 259.496 524.181 263.746 517.431C293.878 474.839 321.996 431.181 350.496 386.681C350.496 386.681 351.996 386.181 345.496 378.681C435.496 397.181 432.496 299.181 419.496 233.181C450.496 294.181 434.496 369.181 398.996 384.181C388.496 389.181 371.977 390.181 359.996 390.181L301.996 476.681L315.996 540.681C374.916 530.006 478.496 492.681 529.996 386.681C517.091 363.059 503.07 336.956 489.046 310.849L489.044 310.844C471.011 277.274 452.975 243.697 437.306 215.381C431.386 204.691 426.296 192.781 423.996 180.681Z" fill="white"/>
<path d="M246.057 98.272C251.569 106.533 259.638 114.876 267.386 121.586C262.649 126.076 257.564 131.412 252.286 137.44C252.188 137.522 252.092 137.603 251.996 137.681C250.063 133.816 246.73 104.736 246.057 98.272Z" fill="#C4C3C3"/>
<path d="M398.996 109.681C415.636 130.581 419.836 165.591 400.996 186.681C400.855 184.414 401.276 181.57 401.722 178.556C402.67 172.145 403.732 164.965 399.746 160.931C395.987 157.14 391.456 161.002 387.337 164.514C385.024 166.486 382.841 168.347 380.996 168.681C378.456 146.591 385.276 126.141 398.996 109.681Z" fill="#C4C3C3"/>
<path fill-rule="evenodd" clip-rule="evenodd" d="M240.996 321.681C237.786 320.061 231.496 314.681 227.996 309.181C228.966 326.531 241.496 337.681 263.996 334.681C264.496 339.181 259.496 358.181 257.496 365.681C261.309 361.22 269.996 351.681 269.996 351.681C269.996 351.681 278.496 353.681 288.996 353.681C306.996 352.181 329.996 328.181 328.996 308.681C327.474 319.181 313.996 346.181 290.496 349.181C284.747 349.578 280.496 348.681 271.496 347.181C271.496 347.181 271.496 341.181 271.996 334.681C277.496 334.681 279.996 334.181 282.496 332.681C291.996 338.181 296.996 340.431 305.676 337.361C316.326 334.511 322.996 323.181 318.066 310.611C317.113 308.181 315.996 306.181 313.996 302.681C317.996 293.681 326.496 281.181 329.496 298.181C329.456 296.471 329.496 288.092 329.996 285.681C331.406 278.881 334.466 273.981 340.996 270.681C343.663 269.514 345.996 267.681 361.496 265.181C329.996 264.681 315.496 282.681 297.746 297.431C282.086 311.151 262.886 332.741 240.996 321.681Z" fill="#174174"/>
<path fill-rule="evenodd" clip-rule="evenodd" d="M329.485 297.262C329.473 294.486 329.558 287.794 329.996 285.681C331.393 278.943 334.41 274.071 340.818 270.772C340.877 270.742 340.936 270.711 340.996 270.681C332.256 277.511 332.496 293.681 332.996 304.681C334.996 316.681 336.156 329.151 327.746 337.431C319.336 345.721 312.766 350.111 302.916 354.601C293.076 359.101 284.396 363.831 278.226 372.911C261.996 401.181 250.996 437.181 240.496 471.681C240.852 472.007 241.206 472.329 241.557 472.646L241.559 472.648C247.114 477.683 251.728 481.865 247.496 492.681C245.496 484.181 239.416 475.291 229.996 477.681C234.443 457.704 241.65 429.383 247.596 406.014C252.526 386.638 256.589 370.667 257.496 365.681C257.496 365.681 257.496 365.681 257.496 365.68C261.304 361.226 269.97 351.709 269.996 351.681C269.996 351.681 269.996 351.681 269.996 351.681C270.062 351.697 278.537 353.681 288.996 353.681C306.996 352.181 329.996 328.181 328.996 308.681C329.496 303.681 329.496 302.681 329.496 298.181C329.496 298.181 329.496 298.181 329.496 298.181M329.485 297.262C329.492 297.569 329.496 297.874 329.496 298.18Z" fill="#C4C3C3"/>
<path d="M227.996 309.181C225.496 298.181 224.496 288.181 234.496 275.181C234.475 275.792 234.454 276.41 234.432 277.034C233.937 291.296 233.331 308.747 240.996 321.681C237.786 320.061 231.496 314.681 227.996 309.181Z" fill="#C4C3C3"/>
<circle cx="299.696" cy="328.681" r="6" fill="#D9383B"/>
<path d="M210.43 507.677C217.238 500.82 222.177 498.503 228.746 506.931C232.979 512.356 238.315 510.421 241.43 505.722C240.11 508.234 238.241 510.699 235.875 512.9C228.049 520.18 217.74 521.82 212.85 516.563C210.747 514.302 209.989 511.133 210.43 507.677Z" fill="#E7E7E9"/>
<path d="M243.725 497.684C243.642 500.239 242.855 503.008 241.43 505.722C238.315 510.421 232.979 512.356 228.746 506.931C222.181 498.508 217.244 500.817 210.442 507.664C214.174 502.622 214.931 501.919 218.501 498.609C218.81 498.323 219.14 498.016 219.496 497.686L243.725 497.684Z" fill="#B3B2B3"/>
<path d="M210.443 507.664C214.174 502.622 214.931 501.919 218.501 498.609C218.81 498.323 219.141 498.016 219.496 497.686L243.725 497.684C243.72 497.85 243.712 498.017 243.7 498.185C243.91 495.081 243.111 492.263 241.192 490.2C236.302 484.943 225.993 486.583 218.167 493.863C213.707 498.012 211.015 503.097 210.43 507.677" fill="#C4C3C3"/>
<path d="M172.346 487.585C172.422 488.215 172.473 488.912 172.496 489.681C172.497 489.675 172.498 489.668 172.499 489.662C172.511 490.359 172.485 491.075 172.417 491.803C171.83 498.127 168.356 502.975 164.657 502.632C163.828 502.555 163.058 502.224 162.369 501.685C161.548 499.38 160.759 496.888 159.996 494.181C158.887 490.243 168.909 477.115 171.765 484.956C172.025 485.769 172.221 486.651 172.346 487.585Z" fill="#E7E7E9"/>
<path fill-rule="evenodd" clip-rule="evenodd" d="M530.003 362.179C536.902 376.898 542.353 380.654 545.166 382.592C545.411 382.761 545.636 382.916 545.84 383.063C570.888 401.128 589.692 423.601 598.959 455.53C607.014 455.801 615.356 456.907 624.003 458.68C637.613 461.47 649.878 466.44 662.503 472.338C743.503 510.179 749.503 671.6 616.792 742.072C612.894 744.142 609.117 746.243 606.003 748.18C584.325 764.91 563.325 782.657 546.895 796.542L546.894 796.542C535.091 806.517 525.646 814.499 520.003 818.679C513.503 828.179 500.063 838.119 493.083 842.759C490.667 844.043 488.319 845.37 486.003 846.68C484.162 847.601 482.874 848.867 481.502 850.216C477.66 853.994 473.163 858.416 454.003 857.679C421.453 855.631 393.458 835.65 367.399 817.05L367.398 817.049L367.386 817.041C363.29 814.118 359.243 811.229 355.232 808.449C346.266 802.234 336.871 796.973 327.561 791.76L327.557 791.758C306.207 779.802 285.297 768.094 271.002 745.68C266.157 749.049 261.307 752.489 256.435 755.944C222.437 780.055 187.391 804.909 146.002 811.679C141.902 810.859 137.058 810.327 131.749 809.743C124.113 808.904 115.515 807.959 106.782 805.899C97.2425 803.659 88.4225 802.289 79.3225 805.999C51.5025 814.179 17.0523 811.563 6.68248 783.999C3.58248 775.759 1.04248 765.499 0.222484 756.459C-0.597516 747.419 0.652485 737.009 7.30249 729.989C12.1451 724.878 12.4303 724.392 13.3786 722.778C13.7345 722.172 14.1838 721.407 15.0025 720.179C8.50249 701.179 15.0825 642.759 26.0025 626.179C41.1019 603.253 68.9944 588.186 93.726 574.827C97.5818 572.744 101.361 570.702 105.002 568.679C104.502 551.179 114.002 535.179 123.252 521.929C129.797 512.554 136.855 502.503 145.5 494.658L146.503 493.679L150.003 508.679L149.56 509.098C133.675 524.673 113.159 549.579 121.002 569.679C113.565 572.742 103.065 578.484 97.2066 584.226C96.3697 585.046 95.6275 585.867 95.0025 586.679C114.65 589.587 132.85 598.017 150.002 607.679C157.352 581.712 171.902 559.106 185.186 542.683L185.503 542.179C188.263 543.317 191.078 544.306 194.003 545.179L193.503 545.629C191.45 549.05 188.944 553.063 186.192 557.414C174.522 575.863 158.433 601.301 153.76 622.089C153.092 625.059 152.658 627.933 152.502 630.679L152.534 630.637C171.942 604.557 208.021 575.058 242.003 576.679C265.28 578.881 289.349 596.519 305.246 609.299C307.517 611.125 309.621 612.852 311.533 614.42C317.508 619.323 321.598 622.679 323.003 622.679L325.08 621.78C329.46 619.884 334.321 617.779 339.501 615.551C368.964 602.878 408.737 586.208 428.834 581.178L428.864 581.171C432.698 580.213 435.813 579.679 438.003 579.679C453.367 579.679 461.897 583.461 471.143 587.559L471.144 587.56L471.15 587.563C472.734 588.265 474.339 588.976 476.003 589.679C480.008 534.048 510.5 477.267 563.394 460.488L563.403 460.485C563.683 460.396 563.964 460.309 564.246 460.222C570.521 458.291 577.109 456.92 584.003 456.179L583.985 456.067C580.441 433.09 561.467 405.656 539.503 391.179C535.709 388.679 532.503 385.179 530.003 362.179ZM605.839 733.082C593.66 725.774 571.479 712.465 544.111 699.451C553.139 695.648 559.106 689.59 562.529 686.116L562.532 686.113L562.534 686.111C563.324 685.309 563.978 684.646 564.503 684.179C554.101 675.911 542.845 667.785 532.102 660.029C522.705 653.245 513.701 646.745 506.003 640.679C519.922 646.179 521.503 647.179 535.003 657.179C539.926 660.826 574.503 673.679 585.503 655.179C571.336 641.816 554.503 628.679 536.003 614.679C524.76 609.058 504.943 600.804 487.083 594.028C489.264 567.02 493.977 540.516 503.922 524.599C512.627 508.494 523.079 493.552 538.703 483.38C561.82 467.264 594.05 462.13 624.003 468.786C753.503 503.179 718.003 676.18 605.839 733.082ZM595.297 739.359C589.1 744.779 582.659 750.288 576.106 755.893L576.104 755.894L576.099 755.899C557.327 771.955 537.621 788.809 520.003 806.679C504.721 822.179 491.833 834.689 472.922 843.599C454.023 852.519 426.283 841.999 408.313 832.379C400.886 827.788 394.206 822.27 387.513 816.739C378.605 809.38 369.673 802 358.923 796.759C349.091 791.044 340.276 785.653 331.434 780.246C322.36 774.696 313.259 769.13 303.003 763.179C286.796 753.776 283.075 744.955 276.364 729.044C275.152 726.172 273.898 723.321 272.643 720.47L272.642 720.468L272.635 720.452L272.634 720.45C271.967 718.934 271.3 717.418 270.639 715.899C262.058 696.166 254.862 680.525 243.003 660.679C232.738 640.15 193.475 642.548 168.687 644.062C163.29 644.391 158.579 644.679 155.003 644.679C165.857 632.017 177.23 622.925 189.552 613.073C192.159 610.989 194.807 608.872 197.503 606.679C212.933 594.119 238.003 582.679 258.073 592.609C266.643 595.394 286.069 610.584 309.511 628.913C337.162 650.535 370.402 676.526 398.003 691.679L421.222 690.679C455.503 706.179 495.003 736.679 515.503 770.179C516.937 749.619 480.421 709.856 468.48 703.794C479.987 706.195 502.991 710.847 518.503 702.179C521.8 702.719 524.903 702.928 527.819 702.871C554.698 714.191 577.079 725.575 595.297 739.359ZM475.003 623.179C490.503 621.679 507.353 627.339 519.922 635.759C523.058 637.859 525.837 639.98 528.487 642.003L528.489 642.004L528.491 642.005L528.493 642.007L528.495 642.009C538.732 649.821 547.044 656.165 566.503 654.179C564.494 652.474 562.566 650.833 560.71 649.253L560.695 649.241C538.083 629.996 526.286 619.956 511.503 614.679C507.844 613.231 503.733 611.562 499.356 609.784L499.354 609.784C475.018 599.901 442.478 586.688 434.003 589.679C422.024 593.537 410.378 598.52 398.187 603.737C391.66 606.53 384.976 609.39 378.003 612.179C367.003 618.179 356.955 623.275 347.003 626.679C344.006 627.768 340.834 628.589 337.686 629.404C333.984 630.362 330.315 631.312 327.003 632.679C328.119 633.471 329.344 634.344 330.662 635.283L330.676 635.293L330.679 635.295C347.676 647.4 380.181 670.551 395.303 675.319C396.367 674.911 397.438 674.427 398.552 673.924C404.451 671.261 411.533 668.064 424.933 672.749C430.692 674.763 436.514 677.929 442.654 681.268C452.58 686.667 463.337 692.517 476.003 694.679C477.267 694.864 478.59 695.116 479.941 695.372C484.655 696.269 489.728 697.234 494.003 695.679L492.624 694.644C478.857 684.302 448.846 661.758 430.003 649.679C439.003 644.679 462.908 649.179 470.753 654.929C477.184 658.892 483.463 664.12 489.761 669.365C507.702 684.304 525.798 699.372 548.003 685.679C526.003 663.679 499.823 648.119 473.003 634.679C473.147 633.814 473.291 632.7 473.447 631.493L473.448 631.488L473.448 631.484L473.449 631.479C473.834 628.5 474.292 624.956 475.003 623.179ZM141.631 630.407C139.732 639.911 137.577 650.7 134.003 653.679C106.582 659.759 80.5025 669.179 51.0025 689.679C41.0573 696.095 32.0025 702.679 23.0025 710.679C23.0025 707.863 22.9108 705.082 22.8195 702.311C22.6378 696.797 22.4573 691.322 23.0025 685.679C23.0025 671.419 27.0025 653.539 30.9825 640.659C34.9525 627.769 43.7525 617.359 54.7525 610.429C59.5301 607.417 63.4139 604.33 67.0585 601.434C71.7976 597.668 76.1324 594.223 81.5025 591.679C100.47 593.444 122.939 604.547 139.299 612.632L139.301 612.633L139.303 612.634L139.313 612.639C141.492 613.716 143.563 614.739 145.503 615.679C144.088 618.104 142.918 623.96 141.631 630.407ZM222.503 655.179C237.746 676.19 256.722 713.833 266.288 734.827C265.632 735.279 264.976 735.732 264.32 736.185C259.209 739.72 253.983 743.391 248.69 747.108L248.67 747.123C214.591 771.058 177.75 796.934 151.003 801.179C132.528 801.63 113.157 797.778 95.68 794.303C93.7635 793.922 91.8698 793.545 90.0025 793.179C85.0333 794.119 80.1362 795.24 75.3404 796.337L75.3385 796.338L75.337 796.338C62.2795 799.326 49.9725 802.142 39.0025 800.679C16.9965 792.624 8.0025 766.179 13.0025 743.679C17.5025 736.179 22.5249 728.871 28.9225 722.599C62.5025 689.679 102.003 662.679 175.003 661.679C179.781 661.292 184.093 661.104 188.161 660.928L188.163 660.928L188.165 660.928C199.846 660.42 209.524 660 222.503 655.179Z" fill="#174174"/>
<path d="M576.106 755.893C582.659 750.288 589.1 744.779 595.297 739.359C577.079 725.575 554.698 714.191 527.82 702.871C524.903 702.928 521.8 702.719 518.503 702.179C502.991 710.847 479.987 706.195 468.481 703.794C480.422 709.856 516.937 749.619 515.503 770.179C495.003 736.679 455.503 706.179 421.223 690.679L398.003 691.679C370.402 676.526 337.162 650.535 309.511 628.913C286.069 610.584 266.643 595.394 258.073 592.609C238.003 582.679 212.933 594.119 197.503 606.679C194.807 608.872 192.159 610.989 189.553 613.073C177.23 622.925 165.857 632.017 155.003 644.679C158.579 644.679 163.29 644.391 168.688 644.062C193.476 642.548 232.738 640.15 243.003 660.679C254.863 680.525 262.058 696.166 270.639 715.899C271.3 717.419 271.968 718.936 272.635 720.452L272.642 720.468L272.643 720.47C273.898 723.321 275.153 726.172 276.364 729.044C283.076 744.955 286.797 753.776 303.003 763.179C313.259 769.13 322.361 774.696 331.434 780.246C340.276 785.653 349.092 791.044 358.923 796.759C369.674 802.001 378.606 809.38 387.513 816.739C394.206 822.27 400.886 827.788 408.313 832.379C426.283 841.999 454.023 852.519 472.923 843.599C491.833 834.689 504.721 822.179 520.003 806.679C537.622 788.809 557.327 771.955 576.099 755.899L576.105 755.894L576.106 755.893Z" fill="white"/>
<path d="M519.923 635.759C507.353 627.339 490.503 621.679 475.003 623.179C474.292 624.956 473.834 628.5 473.449 631.479L473.448 631.484L473.448 631.488L473.447 631.493C473.291 632.7 473.147 633.814 473.003 634.679C499.823 648.119 526.003 663.679 548.003 685.679C525.798 699.372 507.702 684.304 489.762 669.365C483.463 664.12 477.184 658.892 470.753 654.929C462.908 649.179 439.003 644.679 430.003 649.679C448.846 661.758 478.857 684.302 492.625 694.644L494.003 695.679C489.728 697.234 484.656 696.269 479.941 695.372C478.59 695.116 477.268 694.864 476.003 694.679C463.337 692.517 452.58 686.667 442.654 681.268C436.514 677.929 430.692 674.763 424.933 672.749C411.533 668.064 404.451 671.261 398.552 673.924C397.438 674.427 396.367 674.911 395.303 675.319C380.182 670.551 347.676 647.4 330.679 635.295L330.676 635.293L330.663 635.283C329.344 634.344 328.119 633.471 327.003 632.679C330.315 631.312 333.984 630.362 337.686 629.404C340.834 628.589 344.006 627.768 347.003 626.679C356.955 623.275 367.003 618.179 378.003 612.179C384.977 609.39 391.66 606.53 398.187 603.737C410.378 598.52 422.025 593.537 434.003 589.679C442.478 586.688 475.018 599.901 499.355 609.784L499.356 609.784C503.733 611.562 507.845 613.231 511.503 614.679C526.287 619.956 538.083 629.996 560.695 649.241L560.71 649.253C562.566 650.833 564.494 652.474 566.503 654.179C547.045 656.165 538.732 649.821 528.495 642.009L528.494 642.007L528.491 642.005L528.489 642.004L528.488 642.003C525.837 639.98 523.058 637.859 519.923 635.759Z" fill="white"/>
<path d="M141.631 630.407C139.733 639.911 137.578 650.7 134.003 653.679C106.583 659.759 80.5027 669.179 51.0027 689.679C41.0575 696.095 32.0027 702.679 23.0027 710.679C23.0027 707.863 22.9111 705.082 22.8198 702.311C22.638 696.797 22.4576 691.322 23.0027 685.679C23.0027 671.419 27.0027 653.539 30.9827 640.659C34.9527 627.769 43.7527 617.359 54.7527 610.429C59.5304 607.417 63.4141 604.33 67.0587 601.434C71.7978 597.668 76.1326 594.223 81.5027 591.679C100.47 593.444 122.94 604.547 139.299 612.632L139.301 612.633L139.303 612.634L139.313 612.639C141.493 613.716 143.563 614.739 145.503 615.679C144.088 618.104 142.918 623.96 141.631 630.407Z" fill="white"/>
<path d="M266.288 734.827C256.722 713.833 237.746 676.19 222.503 655.179C209.524 660 199.846 660.42 188.165 660.928L188.164 660.928C184.095 661.104 179.782 661.292 175.003 661.679C102.003 662.679 62.5027 689.679 28.9227 722.599C22.5251 728.871 17.5027 736.179 13.0027 743.679C8.00274 766.179 16.9967 792.624 39.0027 800.679C49.9727 802.142 62.2798 799.326 75.3372 796.338L75.3387 796.338C80.1352 795.24 85.0329 794.119 90.0027 793.179C91.87 793.545 93.7637 793.922 95.6802 794.303C113.157 797.778 132.529 801.63 151.003 801.179C177.75 796.934 214.591 771.058 248.67 747.123L248.69 747.108C253.983 743.391 259.209 739.72 264.32 736.185C264.976 735.732 265.632 735.279 266.288 734.827Z" fill="white"/>
<path d="M22.8193 702.311C22.9106 705.082 23.0023 707.863 23.0023 710.679C24.9469 708.951 26.8942 707.288 28.8524 705.679C29.0023 693.179 35.0023 645.179 41.5023 637.179C47.0023 627.179 74.0023 602.679 87.0023 592.426C85.1428 592.099 83.3067 591.847 81.5023 591.679C76.1322 594.223 71.7973 597.668 67.0583 601.434C63.4136 604.33 59.5299 607.417 54.7523 610.429C43.7523 617.359 34.9523 627.769 30.9823 640.659C27.0023 653.539 23.0023 671.419 23.0023 685.679C22.4571 691.322 22.6376 696.797 22.8193 702.311Z" fill="#D0D1D2"/>
<path d="M41.3489 696.179C44.4888 693.964 47.6963 691.812 51.0023 689.679C60.5023 666.679 91.0023 616.179 111.002 599.636C107.026 598.057 103.001 596.605 99.0023 595.376C93.5023 602.179 45.5023 675.679 41.3489 696.179Z" fill="#D0D1D2"/>
<path d="M308.382 637.734C285.683 621.804 264.173 606.707 248.502 595.179C253.603 599.588 259.838 605.282 267.162 611.97C285.718 628.915 311.257 652.237 343.002 677.179C350.002 682.679 393.502 708.679 414.502 715.179C392.751 696.946 348.693 666.025 308.382 637.734Z" fill="#E7E7E9"/>
<path d="M248.669 699.051C251.792 704.981 254.772 710.848 257.502 716.374C257.502 716.374 45.0023 813.179 19.2453 784.179C12.1083 772.589 9.95304 757.401 13.0022 743.679C17.5401 751.038 22.1743 757.948 41.5023 756.679C101.502 750.679 212.502 718.679 248.669 699.051Z" fill="#E7E7E9"/>
<path d="M134.002 653.679C137.577 650.7 139.732 639.911 141.63 630.407C142.918 623.96 144.088 618.104 145.502 615.679C143.563 614.739 141.492 613.716 139.313 612.639L139.303 612.634L139.301 612.633L139.299 612.632C131.017 608.539 121.169 603.673 111.002 599.636C91.0025 616.179 60.5025 666.679 51.0024 689.679C76.8149 671.742 100.009 662.287 123.773 656.131C127.168 655.251 130.575 654.439 134.002 653.679Z" fill="#9A9898"/>
<path d="M491.502 724.889C491.502 724.889 537.002 714.179 543.002 717.679C543.817 718.177 544.619 718.663 545.411 719.143L545.419 719.149L545.427 719.153C553.378 723.975 560.277 728.158 568.002 736.679C572.194 741.303 561.413 749.321 547.327 759.797C539.571 765.565 530.814 772.078 523.002 779.179C526.502 787.679 524.503 802.179 524.503 802.179C540.938 785.972 558.909 770.601 576.098 755.899L576.104 755.894C582.658 750.288 589.099 744.779 595.297 739.359C577.079 725.575 554.698 714.191 527.819 702.871C524.903 702.928 521.8 702.719 518.502 702.179C502.991 710.847 479.987 706.195 468.48 703.794C473.422 706.303 482.574 714.585 491.502 724.889Z" fill="#9A9898"/>
<path d="M519.922 635.759C507.352 627.339 490.502 621.679 475.002 623.179C474.832 623.606 474.675 624.136 474.531 624.735C453.176 627.395 465.077 642.209 475.312 646.369C498.002 657.179 515.756 670.808 531.002 686.679C528.823 687.551 519.801 687.283 514.211 686.868C505.796 682.717 497.763 676.028 489.761 669.365L489.76 669.364C483.462 664.12 477.183 658.892 470.752 654.929C462.908 649.179 439.002 644.679 430.002 649.679C430.431 649.954 430.866 650.234 431.306 650.52C429.713 651.165 428.253 652.033 427.002 653.179C427.002 656.164 467.605 689.156 477.362 694.897C476.902 694.818 476.449 694.744 476.002 694.679C463.337 692.517 452.58 686.667 442.653 681.268C436.514 677.929 430.692 674.763 424.932 672.749C411.532 668.064 404.451 671.261 398.551 673.925C397.438 674.427 396.366 674.911 395.302 675.319C380.181 670.551 347.676 647.401 330.679 635.295L330.676 635.293L330.669 635.288L330.667 635.286L330.646 635.271L330.643 635.269L330.628 635.258C329.322 634.329 328.109 633.464 327.002 632.679C330.315 631.312 333.984 630.362 337.686 629.404C340.54 628.666 343.413 627.922 346.158 626.978C350.115 628.995 354.231 631.295 358.501 633.681L358.502 633.682C372.828 641.687 388.89 650.663 406.502 653.179C434.969 643.259 448.925 629.246 459.925 618.202L459.926 618.2C461.678 616.442 463.354 614.759 465.002 613.179C467.063 613.523 469.459 613.898 472.097 614.311C488.664 616.906 514.741 620.99 526.692 627.989C540.935 638.43 548.198 645.358 554.224 651.106L554.227 651.109C555.463 652.288 556.646 653.417 557.827 654.516C544.286 654.06 537.065 648.549 528.495 642.009C525.842 639.984 523.061 637.861 519.922 635.759Z" fill="#C4C3C3"/>
<path d="M472.922 843.599C491.832 834.689 504.721 822.179 520.003 806.679C521.488 805.172 522.989 803.672 524.503 802.179C524.503 802.179 526.502 787.679 523.002 779.179C530.814 772.078 539.57 765.566 547.326 759.798L547.327 759.797C561.413 749.321 572.194 741.303 568.002 736.679C560.277 728.158 553.378 723.975 545.427 719.153C544.63 718.67 543.823 718.18 543.002 717.679C537.002 714.179 491.502 724.889 491.502 724.889C504.147 739.481 516.343 758.129 515.502 770.179C495.002 736.679 455.502 706.179 421.222 690.679L403.002 691.464C451.002 708.179 489.002 807.179 464.502 795.679C427.002 779.679 353.502 727.179 304.502 688.679C326.793 740.266 391.266 778.467 431.405 802.25C454.292 815.811 469.268 824.685 464.002 828.679C429.309 856.868 336.87 770.679 272.002 670.679C242.444 632.207 225.213 622.175 218.657 618.357C218.226 618.107 217.841 617.883 217.502 617.679C207.502 611.679 188.002 627.679 173.502 643.773C198.278 642.337 233.38 641.435 243.002 660.679C254.862 680.525 262.058 696.166 270.639 715.899C271.297 717.413 271.962 718.923 272.627 720.434L272.63 720.441L272.632 720.446L272.634 720.451L272.635 720.452L272.642 720.468L272.643 720.47C273.898 723.321 275.152 726.172 276.364 729.044C283.075 744.955 286.796 753.776 303.002 763.179C313.258 769.13 322.36 774.696 331.434 780.246C340.276 785.653 349.091 791.044 358.922 796.759C369.673 802 378.605 809.38 387.512 816.739C394.206 822.27 400.886 827.788 408.312 832.379C426.282 841.999 454.022 852.519 472.922 843.599Z" fill="#C4C3C3"/>
<path d="M266.288 734.827C265.632 735.279 264.975 735.732 264.32 736.185C259.209 739.72 253.984 743.39 248.692 747.107L248.69 747.108L248.67 747.123C214.591 771.058 177.75 796.934 151.002 801.179C132.528 801.63 113.157 797.778 95.6799 794.303L95.6711 794.301C94.7764 794.123 93.8868 793.946 93.0024 793.771L261.302 724.179C263.152 728.037 264.829 731.625 266.288 734.827Z" fill="#C4C3C3"/>
<path d="M471.143 587.559C472.729 588.263 474.336 588.975 476.002 589.679C480.502 527.179 518.432 463.229 584.002 456.179C580.502 433.179 561.502 405.679 539.502 391.179C524.502 423.679 489.002 474.983 442.502 502.679C397.422 529.529 357.502 544.679 307.502 550.179L296.502 485.679C296.029 486.378 295.56 487.072 295.093 487.761C263.5 534.442 246.224 559.928 193.502 545.639C191.45 549.06 188.944 553.063 186.192 557.414C172.855 578.499 153.746 608.712 152.502 630.679C171.903 604.589 208.002 575.058 242.002 576.679C268.605 579.196 296.242 601.874 311.532 614.42C317.508 619.323 321.597 622.679 323.002 622.679C323.682 622.385 324.375 622.085 325.08 621.78C359.14 607.035 422.327 579.679 438.002 579.679C453.367 579.679 461.897 583.461 471.143 587.559Z" fill="#ED1F23"/>
<path d="M544.11 699.451C571.479 712.465 593.66 725.774 605.839 733.082C718.002 676.18 753.502 503.179 624.002 468.786C594.05 462.13 561.82 467.264 538.702 483.38C523.079 493.552 512.627 508.494 503.922 524.599C493.977 540.516 489.264 567.02 487.083 594.028C504.943 600.804 524.76 609.058 536.002 614.679C554.502 628.679 571.336 641.816 585.502 655.179C574.502 673.679 539.926 660.826 535.002 657.179C521.502 647.179 519.922 646.179 506.002 640.679C513.701 646.745 522.705 653.245 532.102 660.029C542.845 667.785 554.101 675.911 564.502 684.179C563.978 684.646 563.324 685.31 562.534 686.111L562.532 686.113L562.529 686.116C559.106 689.59 553.138 695.648 544.11 699.451Z" fill="#ED1F23"/>
<path d="M149.56 509.098C133.674 524.673 113.159 549.579 121.002 569.679C112.502 573.179 100.002 580.179 95.0024 586.679C114.649 589.587 132.85 598.017 150.002 607.679C157.352 581.712 171.902 559.106 185.186 542.683C169.211 536.1 156.254 525.051 149.56 509.098Z" fill="#ED1F23"/>
<path d="M670.257 533.679C685.502 569.179 673.002 623.679 658.002 661.179C711.002 584.679 694.502 549.179 670.257 533.679Z" fill="#F19B9B"/>
<path d="M577.936 436.717C538.491 459.19 528.472 468.491 512.752 483.429C492.84 502.394 478.752 523.179 465.232 548.909C464.874 549.54 464.482 550.273 464.057 551.067C461.138 556.522 456.676 564.862 451.002 562.679C450.254 562.189 449.561 561.727 448.911 561.294C445.7 559.154 443.563 557.73 441.223 557.188C436.572 556.11 431.115 558.511 414.815 565.682C408.819 568.321 401.354 571.605 391.922 575.599C384.962 578.621 378.324 581.577 371.866 584.455L371.862 584.457C358.911 590.226 346.679 595.675 334.002 600.679C317.502 588.179 324.872 581.809 338.002 581.679C347.502 580.679 361.002 577.179 373.072 572.749C423.002 553.179 467.002 518.679 501.752 483.429C527.907 459.267 542.894 440.814 564.269 414.467C569.768 421.489 574.455 429.09 577.936 436.717Z" fill="#EB7070"/>
<path d="M605.839 733.082C605.966 733.017 606.093 732.953 606.22 732.888C606.335 732.829 606.449 732.771 606.564 732.712C624.617 701.462 640.888 658.78 648.944 637.647C650.157 634.465 651.184 631.772 652.002 629.679C660.218 608.679 665.002 548.679 652.002 516.679C637.644 489.869 597.159 465.878 565.693 470.572C565.438 470.648 565.183 470.725 564.928 470.803C561.657 476.215 557.833 482.026 553.776 488.191C536.1 515.052 514.002 548.632 514.002 585.179C513.502 588.179 524.002 601.679 534.502 613.679C534.68 613.809 534.858 613.938 535.037 614.069C535.221 614.203 535.406 614.339 535.591 614.474C535.729 614.543 535.866 614.611 536.002 614.679C553.411 627.853 569.343 640.263 582.966 652.815C583.313 653.105 583.659 653.393 584.002 653.679C584.316 653.976 584.586 654.187 584.817 654.369C585.514 654.914 585.86 655.185 586.002 656.679C586.512 662.039 578.702 668.579 573.772 670.449C568.842 672.319 556.902 674.989 551.002 673.679L551.055 673.86C555.62 677.264 560.137 680.709 564.502 684.179C563.977 684.646 563.323 685.31 562.532 686.113L562.531 686.114L562.529 686.116C560.992 687.676 558.941 689.758 556.331 691.922C558.279 698.501 560.249 705.025 561.248 707.954C580.689 717.992 596.319 727.37 605.839 733.082Z" fill="#EB7070"/>
<path d="M185.186 542.683C171.902 559.106 157.352 581.712 150.002 607.679C137.601 600.693 124.651 594.351 111.002 590.275C115.417 587.628 119.297 585.418 122.783 583.433C129.955 579.349 135.455 576.217 140.502 572.179L140.742 571.848C151.103 557.541 157.629 548.528 167.758 532.679C172.954 536.739 178.831 540.064 185.186 542.683Z" fill="#EB7070"/>
<path d="M275.93 515.117C258.637 537.925 242.69 550.911 215.998 549.542C199.714 561.728 180.502 576.179 177.002 599.679C206.502 580.179 243.102 563.409 274.502 583.679C271.662 576.799 263.412 552.999 274.922 556.759C283.297 561.99 287.913 566.98 292.474 571.912C293.948 573.505 295.415 575.092 297.002 576.679C296.002 559.179 284.002 526.179 275.93 515.117Z" fill="#EB7070"/>
<path d="M463.002 509.179C488.96 492.456 529.992 441.608 553.885 402.869C550.699 399.761 547.364 396.881 543.932 394.302C517.972 439.717 501.471 460.708 466.752 492.429C428.348 523.022 378.833 536.103 328.178 549.485L328.174 549.486C320.465 551.522 312.729 553.566 305.002 555.679C302.76 543.832 299.656 532.213 296.55 520.587C294.292 512.133 292.032 503.674 290.102 495.121C287.722 498.617 285.414 501.975 283.154 505.186L301.002 564.679C347.502 555.679 432.502 531.179 463.002 509.179Z" fill="white"/>
<path d="M104.103 578.734C108.022 576.078 112.448 573.628 116.495 571.691C129.968 572.148 148.369 580.066 158.334 585.288C156.658 588.93 155.092 592.671 153.666 596.501C146.427 590.845 126.249 580 104.103 578.734Z" fill="white"/>
<path d="M555.737 692.407C568.94 696.555 612.728 715.733 622.832 723.214C627.27 720.293 631.559 717.185 635.693 713.909C626.808 709.064 580.326 687.335 564.191 684.464C563.726 684.901 563.175 685.46 562.536 686.109L562.531 686.113L562.53 686.115L562.529 686.116C560.877 687.792 558.632 690.071 555.737 692.407Z" fill="white"/>
</g>
<defs>
<clipPath id="clip0_27_2658">
<rect width="898.46" height="858.521" fill="white" transform="translate(0 0.239258)"/>
</clipPath>
</defs>
</svg>
