<svg width="655" height="674" viewBox="0 0 655 674" fill="none" xmlns="http://www.w3.org/2000/svg">
<path fill-rule="evenodd" clip-rule="evenodd" d="M349.787 617.68C342.925 630.117 338.669 673.083 338.669 673.083C300.023 632.695 267.048 559.898 249.423 476.259C237.318 474.685 220.542 467.433 194.407 450.158C185.171 441.955 177.723 432.907 187.903 426.112L202.144 424.109L178.279 407.003C174.595 399.25 126.158 194.188 331.341 33.1552C341.56 26.1054 343.876 35.4448 343.876 35.4448C386.485 94.8101 368.363 410.226 282.715 463.609C299.025 518.238 322.646 569.809 349.787 617.68ZM245.794 457.675C224.307 338.289 234.418 200.685 302.839 104.372C249.555 226.426 249.914 342.077 277.994 446.939L278.245 446.855C339.107 397.57 373.307 149.309 333.488 50.7411C140.391 213.579 193.226 397.613 193.226 397.613L225.895 421.391C246.335 437.322 227.569 439.984 227.569 439.984L208.779 440.057C223.688 452.96 245.073 457.915 245.073 457.915L245.794 457.675Z" fill="#174174"/>
<path fill-rule="evenodd" clip-rule="evenodd" d="M245.794 457.675C224.307 338.289 234.418 200.685 302.839 104.372C249.556 226.426 249.914 342.077 277.994 446.939L278.245 446.855C339.107 397.57 373.307 149.309 333.488 50.7411C140.392 213.579 193.226 397.613 193.226 397.613L225.895 421.391C246.335 437.322 227.569 439.984 227.569 439.984L208.779 440.058C223.688 452.96 245.073 457.915 245.073 457.915L245.794 457.675Z" fill="white"/>
<path d="M236.394 375.007C237.725 403.033 240.96 430.815 245.794 457.675L245.073 457.915C245.073 457.915 223.688 452.959 208.779 440.058L227.569 439.984L227.571 439.984C227.773 439.954 243.255 437.664 230.219 425.1C229.084 423.938 227.661 422.702 225.897 421.392L225.895 421.39L193.26 397.637C193.255 397.624 193.25 397.611 193.245 397.598C193.212 397.509 193.179 397.417 193.145 397.322C191.166 390.044 154.511 247.442 279.071 104.078C255.419 138.901 197.855 241.04 235.648 365.428C235.648 365.428 235.912 369.068 236.394 375.007Z" fill="#A6B1B8"/>
</svg>
