<svg width="477" height="607" viewBox="0 0 477 607" fill="none" xmlns="http://www.w3.org/2000/svg">
<path fill-rule="evenodd" clip-rule="evenodd" d="M233.459 458.266C243.383 494.294 256.783 532.782 274.323 573.822L227.031 566.937C216.145 533.226 207.749 501.259 201.519 471.017C139.132 436.678 121.558 398.81 121.558 398.81L162.19 390.994L118.386 355.727C94.9254 114.658 295.846 24.7855 295.846 24.7855C298.615 46.834 301.515 68.1713 304.32 88.8082C327.044 256.014 343.521 377.244 233.459 458.266ZM197.52 450.207C167.82 283.387 205.212 171.811 250.589 112.046C216.201 180.123 190.799 286.425 228.309 438.539C328.087 352.348 306.379 211.4 290.498 108.284C287.174 86.701 284.106 66.7754 282.46 49.3564C102.761 159.319 134.276 350.919 134.276 350.919L182.155 389.778C193.704 403.819 182.095 403.239 182.095 403.239L147.846 410.085C162.314 425.14 190.576 445.324 197.52 450.207Z" fill="#174174"/>
<path fill-rule="evenodd" clip-rule="evenodd" d="M197.52 450.206C167.82 283.387 205.212 171.811 250.589 112.046C216.201 180.122 190.799 286.424 228.309 438.539C328.087 352.348 306.379 211.399 290.498 108.284C287.174 86.7007 284.106 66.7751 282.46 49.3561C102.761 159.319 134.276 350.919 134.276 350.919L182.155 389.777C193.704 403.819 182.095 403.239 182.095 403.239L147.846 410.084C162.314 425.139 190.576 445.323 197.52 450.206Z" fill="white"/>
<path d="M134.274 350.906C133.991 349.163 105.444 170.284 266.602 59.6363C239.869 82.4641 106.297 209.384 190.618 402.31C192.3 417.737 194.582 433.701 197.52 450.206C191.444 445.934 169.046 429.946 153.849 415.93C151.678 413.928 149.654 411.966 147.846 410.084L182.095 403.239C182.095 403.239 182.821 403.275 183.729 403.11C186.225 402.656 190.1 400.68 184.058 392.242C183.508 391.475 182.877 390.655 182.155 389.777L134.285 350.926L134.276 350.919C134.276 350.919 134.276 350.914 134.274 350.906Z" fill="#A6B1B8"/>
</svg>
