<svg width="602" height="634" viewBox="0 0 602 634" fill="none" xmlns="http://www.w3.org/2000/svg">
<path fill-rule="evenodd" clip-rule="evenodd" d="M333.885 592.973C328.135 602.072 319.903 633.599 319.903 633.599C292.455 602.895 270.555 558.64 255.212 508.129C224.116 510.384 202.921 484.039 190.713 468.864L190.373 468.442C184.539 462.913 184.081 457.291 192.279 452.62C200.633 450.996 201.996 450.915 219.784 449.864C221.524 449.762 223.422 449.649 225.499 449.526C222.28 447.715 217.679 445.113 212.457 442.161L212.404 442.131C200.704 435.516 185.907 427.149 176.561 421.968C151.797 395.669 144.079 241.705 238.37 109.666C235.355 142.442 244.468 182.099 244.468 182.099C241.727 158.307 254.064 101.823 254.064 101.823C254.527 92.7273 263.086 81.9255 263.086 81.9255C275.774 67.6275 321.798 35.1665 321.798 35.1665C335.343 28.3364 336.05 41.0716 336.05 41.0716C370.409 214.578 318.285 336.822 294.785 391.934L293.949 393.896C299.514 390.732 310.894 393.675 310.894 393.675C324.738 454.869 287.114 496.537 287.114 496.537C286.978 496.624 286.842 496.711 286.707 496.797C303.414 542.904 322.022 577.379 333.885 592.973ZM251.227 494.334L251.216 494.34C251.216 494.34 222.15 485.619 208.04 466.417C208.04 466.417 240.318 464.807 243.285 461.578C245.64 472.694 248.291 483.635 251.227 494.334ZM239.004 439.317L238.963 439.109L189.837 411.968C189.837 411.968 141.705 336.419 228.092 150.133C228.092 150.133 233.337 198.248 244.157 208.175L244.165 208.161C226.266 277.376 225.52 361.484 239.004 439.317ZM258.968 163.746C267.936 142.408 279.054 123.448 292.447 107.752C227.319 235.166 247.754 379.372 280.562 479.019L280.9 478.842C305.924 450.645 300.694 411.837 300.694 411.837L281.151 423.006C262.098 431.931 268.526 410.34 268.526 410.34C294.893 364.682 353.031 231.23 319.602 53.276L269.494 96.2639L259.654 159.136L258.968 163.746Z" fill="#174174"/>
<path fill-rule="evenodd" clip-rule="evenodd" d="M251.227 494.334L251.216 494.34C251.216 494.34 222.151 485.619 208.04 466.417C208.04 466.417 240.318 464.807 243.285 461.577C245.64 472.694 248.291 483.635 251.227 494.334ZM239.004 439.317L238.963 439.109L189.837 411.968C189.837 411.968 141.705 336.419 228.092 150.133C228.092 150.133 233.337 198.248 244.157 208.175L244.165 208.161C226.266 277.376 225.521 361.484 239.004 439.317ZM258.968 163.746C267.936 142.408 279.054 123.447 292.447 107.751C227.32 235.166 247.754 379.372 280.562 479.019L280.9 478.842C305.924 450.645 300.694 411.837 300.694 411.837L281.151 423.006C262.098 431.931 268.526 410.34 268.526 410.34C294.893 364.682 353.031 231.23 319.602 53.2759L269.494 96.2638L259.654 159.136L258.968 163.746Z" fill="white"/>
<path d="M243.286 461.578C245.641 472.694 248.291 483.634 251.227 494.334C251.227 494.334 251.227 494.334 251.227 494.334L251.216 494.339C251.216 494.339 222.151 485.619 208.041 466.417C208.151 466.412 240.323 464.802 243.286 461.578Z" fill="#A6B1B8"/>
<path d="M203.614 209.321C200.799 241.372 192.624 370.242 236.133 432.681C236.133 432.681 237.306 434.158 238.408 435.819C238.603 436.986 238.802 438.152 239.004 439.316L238.963 439.109L189.837 411.967C189.837 411.967 152.009 352.591 203.614 209.321Z" fill="#A6B1B8"/>
</svg>
