<svg width="391" height="580" viewBox="0 0 391 580" fill="none" xmlns="http://www.w3.org/2000/svg">
<path fill-rule="evenodd" clip-rule="evenodd" d="M303.412 547.101L288.668 576.963C256.355 554.76 227.784 506.349 207.454 447.726C184.905 448.122 155.192 441.401 132.874 416.203C132.859 416.186 132.817 416.149 132.755 416.093C131.834 415.271 126.34 410.366 134.768 404.243C142.492 402.638 153.458 396.608 159.694 393.179C161.534 392.168 162.961 391.382 163.774 391.003C156.007 389.773 132.62 378.347 129.044 375.79C93.4371 248.74 139.139 73.2865 238.113 26.7139C249.09 21.5485 248.495 32.1108 248.495 32.1108C263.71 82.3924 274.851 158.007 274.851 158.007L222.898 233.123C258.781 221.246 268.125 194.323 268.125 194.323C274.924 186.215 278.67 194.894 278.67 194.894C290.209 285.146 275.513 326.357 275.513 326.357C274.848 329.113 252.979 363.777 252.979 363.777L274.204 352.294C281.99 352.221 282.291 359.09 282.291 359.09C274.782 406.892 238.426 441.002 238.426 441.002C238.292 441.095 238.152 441.188 238.007 441.281C254.791 479.316 276.026 513.953 301.185 541.917L303.412 547.101ZM202.913 434.029C198.286 434.136 165.196 434.129 147.094 412.874L192.293 395.93C195.443 408.917 198.996 421.663 202.913 434.029ZM189.004 381.609C166.865 279.533 169.878 165.994 216.4 106.241C179.846 190.142 188.76 320.102 232.069 427.228C251.937 411.757 263.451 371.592 263.451 371.592L237.102 385.456C220.194 391.942 227.029 375.361 227.029 375.361L255.103 334.112C263.656 321.477 265.079 312.492 265.079 312.492C272.206 282.543 267.929 220.144 267.929 220.144C248.194 238.456 211.014 253.549 211.014 253.549L205.352 253.17C201.248 250.281 199.344 242.143 199.344 242.143L260.861 153.24L238.39 42.348C91.6549 138.756 140.285 369.065 140.285 369.065C153.51 377.98 188.994 381.569 188.994 381.569L189.004 381.609Z" fill="#174174"/>
<path fill-rule="evenodd" clip-rule="evenodd" d="M202.913 434.029C198.286 434.136 165.196 434.129 147.094 412.874L192.293 395.93C195.443 408.917 198.996 421.664 202.913 434.029ZM189.004 381.61C166.865 279.533 169.878 165.994 216.4 106.242C179.846 190.143 188.76 320.102 232.069 427.228C251.937 411.757 263.451 371.593 263.451 371.593L237.102 385.457C220.194 391.942 227.029 375.361 227.029 375.361L255.103 334.112C263.656 321.478 265.079 312.493 265.079 312.493C272.206 282.543 267.929 220.145 267.929 220.145C248.194 238.456 211.014 253.549 211.014 253.549L205.352 253.171C201.248 250.282 199.344 242.143 199.344 242.143L260.861 153.24L238.39 42.3483C91.6549 138.756 140.285 369.065 140.285 369.065C153.51 377.981 188.994 381.569 188.994 381.569L189.004 381.61Z" fill="white"/>
<path d="M202.913 434.029C198.284 434.136 165.195 434.128 147.094 412.874L188.986 397.17L194.406 404.373C197.007 414.447 199.848 424.354 202.913 434.029Z" fill="#A6B1B8"/>
<path d="M177.553 380.04C177.833 379.998 177.975 379.969 177.975 379.969C101.833 249.852 211.219 65.4523 213.613 61.4485C97.4192 166.056 140.285 369.065 140.285 369.065C148.667 374.716 165.989 378.226 177.553 380.04Z" fill="#A6B1B8"/>
</svg>
